M48
; DRILL file {KiCad 9.0.7} date 2026-09-12T17:01:19+0200
; FORMAT={-:-/ absolute / metric / decimal}
; #@! TF.CreationDate,2026-09-12T17:01:19+02:00
; #@! TF.GenerationSoftware,Kicad,Pcbnew,9.0.7
; #@! TF.FileFunction,Plated,1,2,PTH
FMAT,2
METRIC
; #@! TA.AperFunction,Plated,PTH,ViaDrill
T1C0.400
; #@! TA.AperFunction,Plated,PTH,ComponentDrill
T2C0.800
; #@! TA.AperFunction,Plated,PTH,ComponentDrill
T3C1.000
; #@! TA.AperFunction,Plated,PTH,ComponentDrill
T4C1.020
%
G90
G05
T1
X71.501Y-92.329
X77.333Y-90.294
X78.122Y-74.161
X80.669Y-74.504
X81.376Y-111.299
X83.389Y-75.154
X84.185Y-107.442
X87.244Y-144.023
X88.695Y-91.387
X90.324Y-106.231
X90.551Y-147.187
X91.004Y-94.294
X91.504Y-85.453
X98.21Y-135.261
X99.995Y-124.628
X99.995Y-137.863
X100.109Y-116.443
X101.025Y-72.133
X101.268Y-143.842
X101.353Y-79.765
X101.425Y-81.642
X102.294Y-85.182
X103.277Y-104.265
X103.438Y-141.335
X104.071Y-131.708
X104.812Y-122.002
X105.228Y-123.592
X105.905Y-78.213
X106.576Y-102.667
X106.931Y-90.998
X107.028Y-70.379
X107.085Y-78.842
X107.387Y-113.906
X107.662Y-129.699
X107.679Y-81.492
X107.866Y-141.274
X108.136Y-112.148
X108.763Y-93.867
X109.024Y-75.334
X109.549Y-97.536
X109.88Y-79.177
X109.907Y-75.343
X109.956Y-115.072
X110.704Y-83.435
X110.797Y-94.691
X110.93Y-78.883
X111.87Y-78.581
X111.951Y-105.995
X111.951Y-126.312
X112.476Y-76.695
X112.815Y-89.183
X113.473Y-89.81
X113.557Y-85.096
X113.558Y-77.532
X113.671Y-64.671
X113.912Y-136.687
X114.184Y-86.283
X114.413Y-133.159
X114.449Y-82.886
X115.525Y-87.555
X115.983Y-133.826
X116.333Y-132.559
X116.8Y-134.142
X117.478Y-89.456
X117.802Y-104.076
X117.925Y-90.15
X118.192Y-91.997
X118.276Y-81.889
X118.344Y-86.085
X118.561Y-136.079
X118.934Y-77.011
X119.036Y-85.532
X119.436Y-83.779
X119.501Y-126.746
X119.501Y-132.063
X119.792Y-80.573
X119.867Y-95.444
X120.235Y-86.166
X120.354Y-75.533
X120.38Y-87.847
X120.562Y-88.942
X120.731Y-78.792
X120.846Y-112.776
X120.977Y-82.186
X121.009Y-98.885
X121.209Y-80.218
X121.522Y-90.446
X122.136Y-76.759
X122.261Y-74.941
X122.411Y-82.469
X122.45Y-81.071
X122.535Y-91.306
X122.535Y-122.936
X122.608Y-88.717
X122.975Y-72.761
X123.194Y-126.104
X123.304Y-134.325
X123.525Y-75.525
X123.829Y-84.695
X123.846Y-116.487
X124.351Y-91.172
X124.536Y-76.408
X124.581Y-96.866
X124.664Y-74.779
X124.927Y-90.615
X125.671Y-90.111
X125.712Y-68.546
X125.872Y-97.536
X126.138Y-83.92
X126.71Y-83.256
X127.143Y-76.744
X127.203Y-84.696
X127.449Y-79.626
X128.033Y-92.794
X128.196Y-80.019
X128.896Y-69.627
X129.322Y-86.852
X129.382Y-95.444
X129.646Y-102.077
X129.674Y-83.019
X129.822Y-85.636
X130.218Y-93.495
X130.338Y-82.549
X132.328Y-87.477
X132.389Y-88.327
X132.793Y-96.301
X133.193Y-101.272
X133.685Y-65.532
X134.06Y-143.953
X134.359Y-75.228
X135.007Y-96.248
X135.309Y-83.913
X136.204Y-81.871
X136.65Y-144.61
X138.521Y-104.019
X140.774Y-64.4
X141.549Y-111.757
X143.047Y-103.136
X143.925Y-93.638
X147.247Y-71.521
X148.162Y-71.748
X148.434Y-73.588
X149.288Y-115.867
X150.41Y-70.458
X151.125Y-82.934
X151.925Y-83.981
X153.089Y-67.491
X153.742Y-94.809
X153.766Y-79.12
X154.723Y-78.992
X156.887Y-78.867
X156.966Y-143.05
X157.792Y-124.211
X158.138Y-79.232
X159.748Y-91.726
X160.437Y-93.726
X160.437Y-106.37
X161.235Y-118.627
X162.933Y-93.448
X163.977Y-102.221
X165.1Y-117.602
X165.931Y-111.256
X168.656Y-96.012
X168.656Y-147.32
T2
X76.581Y-65.463
X76.581Y-68.963
X98.171Y-94.996
X98.171Y-97.536
X98.171Y-100.076
X98.171Y-102.616
X98.171Y-105.156
X98.171Y-107.696
X98.171Y-110.236
X98.171Y-112.776
X98.171Y-115.316
X98.171Y-117.856
X98.171Y-120.396
X98.171Y-122.936
X98.171Y-125.476
X98.171Y-128.016
X113.411Y-94.996
X113.411Y-97.536
X113.411Y-100.076
X113.411Y-102.616
X113.411Y-105.156
X113.411Y-107.696
X113.411Y-110.236
X113.411Y-112.776
X113.411Y-115.316
X113.411Y-117.856
X113.411Y-120.396
X113.411Y-122.936
X113.411Y-125.476
X113.411Y-128.016
X116.505Y-94.996
X116.505Y-97.536
X116.505Y-100.076
X116.505Y-102.616
X116.505Y-105.156
X116.505Y-107.696
X116.505Y-110.236
X116.505Y-112.776
X116.505Y-115.316
X116.505Y-117.856
X116.505Y-120.396
X116.505Y-122.936
X116.505Y-125.476
X116.505Y-128.016
X131.745Y-94.996
X131.745Y-97.536
X131.745Y-100.076
X131.745Y-102.616
X131.745Y-105.156
X131.745Y-107.696
X131.745Y-110.236
X131.745Y-112.776
X131.745Y-115.316
X131.745Y-117.856
X131.745Y-120.396
X131.745Y-122.936
X131.745Y-125.476
X131.745Y-128.016
X140.589Y-79.761
X140.589Y-82.301
X140.589Y-84.841
X140.589Y-87.381
X140.589Y-89.921
X140.589Y-92.461
X140.589Y-95.001
X140.589Y-97.541
X140.589Y-100.081
X140.589Y-102.621
X140.589Y-105.161
X140.589Y-107.701
X140.589Y-110.241
X140.589Y-112.781
X140.589Y-115.321
X140.589Y-117.861
X140.589Y-120.401
X140.589Y-122.941
X140.589Y-125.481
X140.589Y-128.021
X155.829Y-79.761
X155.829Y-82.301
X155.829Y-84.841
X155.829Y-87.381
X155.829Y-89.921
X155.829Y-92.461
X155.829Y-95.001
X155.829Y-97.541
X155.829Y-100.081
X155.829Y-102.621
X155.829Y-105.161
X155.829Y-107.701
X155.829Y-110.241
X155.829Y-112.781
X155.829Y-115.321
X155.829Y-117.861
X155.829Y-120.401
X155.829Y-122.941
X155.829Y-125.481
X155.829Y-128.021
T3
X112.56Y-140.97
X113.538Y-70.485
X115.1Y-140.97
X116.078Y-70.485
X117.64Y-140.97
X118.618Y-70.485
X120.18Y-140.97
X121.158Y-70.485
X122.72Y-140.97
X123.698Y-70.485
X125.26Y-140.97
X126.238Y-70.485
X127.8Y-140.97
X130.34Y-140.97
X132.88Y-140.97
X135.42Y-140.97
X137.96Y-140.97
X139.61Y-60.452
X139.61Y-62.992
X140.5Y-140.97
X142.15Y-60.452
X142.15Y-62.992
X144.69Y-60.452
X144.69Y-62.992
X147.23Y-60.452
X147.23Y-62.992
X149.77Y-60.452
X149.77Y-62.992
X152.31Y-60.452
X152.31Y-62.992
X154.85Y-60.452
X154.85Y-62.992
X157.39Y-60.452
X157.39Y-62.992
X164.211Y-71.374
X164.211Y-73.914
X164.211Y-76.454
X164.211Y-78.994
X164.211Y-81.534
X164.211Y-84.074
X167.939Y-71.432
X167.939Y-73.972
X168.021Y-81.539
X168.021Y-84.079
T4
X75.819Y-79.502
X75.819Y-82.042
X75.819Y-84.582
X75.819Y-87.122
X75.819Y-89.662
X75.819Y-92.202
X75.819Y-94.742
X75.819Y-97.282
X75.819Y-99.822
X75.819Y-102.362
X75.819Y-104.902
X75.819Y-107.442
X75.819Y-109.982
X75.819Y-112.522
X75.819Y-115.062
X75.819Y-117.602
X75.819Y-120.142
X75.819Y-122.682
X75.819Y-125.222
X75.819Y-127.762
X82.169Y-127.532
X84.709Y-127.532
X87.249Y-127.532
X93.599Y-79.502
X93.599Y-82.042
X93.599Y-84.582
X93.599Y-87.122
X93.599Y-89.662
X93.599Y-92.202
X93.599Y-94.742
X93.599Y-97.282
X93.599Y-99.822
X93.599Y-102.362
X93.599Y-104.902
X93.599Y-107.442
X93.599Y-109.982
X93.599Y-112.522
X93.599Y-115.062
X93.599Y-117.602
X93.599Y-120.142
X93.599Y-122.682
X93.599Y-125.222
X93.599Y-127.762
T3
X85.3Y-64.5G85X85.3Y-66.5
G05
X91.0Y-62.5G85X89.0Y-62.5
G05
X91.0Y-68.5G85X89.0Y-68.5
G05
M30
