%TF.GenerationSoftware,KiCad,Pcbnew,9.0.7*%
%TF.CreationDate,2026-08-16T20:29:53+02:00*%
%TF.ProjectId,1551-III-Pico,31353531-2d49-4494-992d-5069636f2e6b,2*%
%TF.SameCoordinates,Original*%
%TF.FileFunction,OtherDrawing,Comment*%
%FSLAX46Y46*%
G04 Gerber Fmt 4.6, Leading zero omitted, Abs format (unit mm)*
G04 Created by KiCad (PCBNEW 9.0.7) date 2026-08-16 20:29:53*
%MOMM*%
%LPD*%
G01*
G04 APERTURE LIST*
%ADD10C,0.150000*%
%ADD11C,0.100000*%
%ADD12C,0.050000*%
G04 APERTURE END LIST*
D10*
X159178857Y-71826819D02*
X158607429Y-71826819D01*
X158893143Y-71826819D02*
X158893143Y-70826819D01*
X158893143Y-70826819D02*
X158797905Y-70969676D01*
X158797905Y-70969676D02*
X158702667Y-71064914D01*
X158702667Y-71064914D02*
X158607429Y-71112533D01*
X159797905Y-70826819D02*
X159893143Y-70826819D01*
X159893143Y-70826819D02*
X159988381Y-70874438D01*
X159988381Y-70874438D02*
X160036000Y-70922057D01*
X160036000Y-70922057D02*
X160083619Y-71017295D01*
X160083619Y-71017295D02*
X160131238Y-71207771D01*
X160131238Y-71207771D02*
X160131238Y-71445866D01*
X160131238Y-71445866D02*
X160083619Y-71636342D01*
X160083619Y-71636342D02*
X160036000Y-71731580D01*
X160036000Y-71731580D02*
X159988381Y-71779200D01*
X159988381Y-71779200D02*
X159893143Y-71826819D01*
X159893143Y-71826819D02*
X159797905Y-71826819D01*
X159797905Y-71826819D02*
X159702667Y-71779200D01*
X159702667Y-71779200D02*
X159655048Y-71731580D01*
X159655048Y-71731580D02*
X159607429Y-71636342D01*
X159607429Y-71636342D02*
X159559810Y-71445866D01*
X159559810Y-71445866D02*
X159559810Y-71207771D01*
X159559810Y-71207771D02*
X159607429Y-71017295D01*
X159607429Y-71017295D02*
X159655048Y-70922057D01*
X159655048Y-70922057D02*
X159702667Y-70874438D01*
X159702667Y-70874438D02*
X159797905Y-70826819D01*
X160559810Y-71731580D02*
X160607429Y-71779200D01*
X160607429Y-71779200D02*
X160559810Y-71826819D01*
X160559810Y-71826819D02*
X160512191Y-71779200D01*
X160512191Y-71779200D02*
X160559810Y-71731580D01*
X160559810Y-71731580D02*
X160559810Y-71826819D01*
X161464571Y-71160152D02*
X161464571Y-71826819D01*
X161226476Y-70779200D02*
X160988381Y-71493485D01*
X160988381Y-71493485D02*
X161607428Y-71493485D01*
X162512190Y-71826819D02*
X161940762Y-71826819D01*
X162226476Y-71826819D02*
X162226476Y-70826819D01*
X162226476Y-70826819D02*
X162131238Y-70969676D01*
X162131238Y-70969676D02*
X162036000Y-71064914D01*
X162036000Y-71064914D02*
X161940762Y-71112533D01*
X163369333Y-71160152D02*
X163369333Y-71826819D01*
X163131238Y-70779200D02*
X162893143Y-71493485D01*
X162893143Y-71493485D02*
X163512190Y-71493485D01*
D11*
X155829000Y-79312000D02*
X155829000Y-71935580D01*
X166243000Y-71935580D02*
X166243000Y-79312000D01*
X155829000Y-72522000D02*
X166243000Y-72522000D01*
X155829000Y-72522000D02*
X156955504Y-71935579D01*
X155829000Y-72522000D02*
X156955504Y-73108421D01*
X166243000Y-72522000D02*
X165116496Y-73108421D01*
X166243000Y-72522000D02*
X165116496Y-71935579D01*
D10*
X135810809Y-70445819D02*
X135620333Y-70445819D01*
X135620333Y-70445819D02*
X135525095Y-70493438D01*
X135525095Y-70493438D02*
X135477476Y-70541057D01*
X135477476Y-70541057D02*
X135382238Y-70683914D01*
X135382238Y-70683914D02*
X135334619Y-70874390D01*
X135334619Y-70874390D02*
X135334619Y-71255342D01*
X135334619Y-71255342D02*
X135382238Y-71350580D01*
X135382238Y-71350580D02*
X135429857Y-71398200D01*
X135429857Y-71398200D02*
X135525095Y-71445819D01*
X135525095Y-71445819D02*
X135715571Y-71445819D01*
X135715571Y-71445819D02*
X135810809Y-71398200D01*
X135810809Y-71398200D02*
X135858428Y-71350580D01*
X135858428Y-71350580D02*
X135906047Y-71255342D01*
X135906047Y-71255342D02*
X135906047Y-71017247D01*
X135906047Y-71017247D02*
X135858428Y-70922009D01*
X135858428Y-70922009D02*
X135810809Y-70874390D01*
X135810809Y-70874390D02*
X135715571Y-70826771D01*
X135715571Y-70826771D02*
X135525095Y-70826771D01*
X135525095Y-70826771D02*
X135429857Y-70874390D01*
X135429857Y-70874390D02*
X135382238Y-70922009D01*
X135382238Y-70922009D02*
X135334619Y-71017247D01*
X136334619Y-71350580D02*
X136382238Y-71398200D01*
X136382238Y-71398200D02*
X136334619Y-71445819D01*
X136334619Y-71445819D02*
X136287000Y-71398200D01*
X136287000Y-71398200D02*
X136334619Y-71350580D01*
X136334619Y-71350580D02*
X136334619Y-71445819D01*
X137239380Y-70445819D02*
X137048904Y-70445819D01*
X137048904Y-70445819D02*
X136953666Y-70493438D01*
X136953666Y-70493438D02*
X136906047Y-70541057D01*
X136906047Y-70541057D02*
X136810809Y-70683914D01*
X136810809Y-70683914D02*
X136763190Y-70874390D01*
X136763190Y-70874390D02*
X136763190Y-71255342D01*
X136763190Y-71255342D02*
X136810809Y-71350580D01*
X136810809Y-71350580D02*
X136858428Y-71398200D01*
X136858428Y-71398200D02*
X136953666Y-71445819D01*
X136953666Y-71445819D02*
X137144142Y-71445819D01*
X137144142Y-71445819D02*
X137239380Y-71398200D01*
X137239380Y-71398200D02*
X137286999Y-71350580D01*
X137286999Y-71350580D02*
X137334618Y-71255342D01*
X137334618Y-71255342D02*
X137334618Y-71017247D01*
X137334618Y-71017247D02*
X137286999Y-70922009D01*
X137286999Y-70922009D02*
X137239380Y-70874390D01*
X137239380Y-70874390D02*
X137144142Y-70826771D01*
X137144142Y-70826771D02*
X136953666Y-70826771D01*
X136953666Y-70826771D02*
X136858428Y-70874390D01*
X136858428Y-70874390D02*
X136810809Y-70922009D01*
X136810809Y-70922009D02*
X136763190Y-71017247D01*
X137953666Y-70445819D02*
X138048904Y-70445819D01*
X138048904Y-70445819D02*
X138144142Y-70493438D01*
X138144142Y-70493438D02*
X138191761Y-70541057D01*
X138191761Y-70541057D02*
X138239380Y-70636295D01*
X138239380Y-70636295D02*
X138286999Y-70826771D01*
X138286999Y-70826771D02*
X138286999Y-71064866D01*
X138286999Y-71064866D02*
X138239380Y-71255342D01*
X138239380Y-71255342D02*
X138191761Y-71350580D01*
X138191761Y-71350580D02*
X138144142Y-71398200D01*
X138144142Y-71398200D02*
X138048904Y-71445819D01*
X138048904Y-71445819D02*
X137953666Y-71445819D01*
X137953666Y-71445819D02*
X137858428Y-71398200D01*
X137858428Y-71398200D02*
X137810809Y-71350580D01*
X137810809Y-71350580D02*
X137763190Y-71255342D01*
X137763190Y-71255342D02*
X137715571Y-71064866D01*
X137715571Y-71064866D02*
X137715571Y-70826771D01*
X137715571Y-70826771D02*
X137763190Y-70636295D01*
X137763190Y-70636295D02*
X137810809Y-70541057D01*
X137810809Y-70541057D02*
X137858428Y-70493438D01*
X137858428Y-70493438D02*
X137953666Y-70445819D01*
X139144142Y-70779152D02*
X139144142Y-71445819D01*
X138906047Y-70398200D02*
X138667952Y-71112485D01*
X138667952Y-71112485D02*
X139286999Y-71112485D01*
D11*
X140589000Y-79261000D02*
X140589000Y-71554580D01*
X133985000Y-71554580D02*
X133985000Y-79261000D01*
X140589000Y-72141000D02*
X133985000Y-72141000D01*
X140589000Y-72141000D02*
X139462496Y-72727421D01*
X140589000Y-72141000D02*
X139462496Y-71554579D01*
X133985000Y-72141000D02*
X135111504Y-71554579D01*
X133985000Y-72141000D02*
X135111504Y-72727421D01*
D12*
%TO.C,J5*%
X117403000Y-154774000D02*
X117403000Y-146774000D01*
X117403000Y-154774000D02*
X122703000Y-154774000D01*
X122703000Y-154774000D02*
X122703000Y-146774000D01*
D11*
%TO.C,U3*%
X83209000Y-87132000D02*
X81209000Y-87132000D01*
X81209000Y-85132000D01*
X83209000Y-85132000D01*
X83209000Y-87132000D01*
G36*
X83209000Y-87132000D02*
G01*
X81209000Y-87132000D01*
X81209000Y-85132000D01*
X83209000Y-85132000D01*
X83209000Y-87132000D01*
G37*
X83209000Y-89632000D02*
X81209000Y-89632000D01*
X81209000Y-87632000D01*
X83209000Y-87632000D01*
X83209000Y-89632000D01*
G36*
X83209000Y-89632000D02*
G01*
X81209000Y-89632000D01*
X81209000Y-87632000D01*
X83209000Y-87632000D01*
X83209000Y-89632000D01*
G37*
X83209000Y-92132000D02*
X81209000Y-92132000D01*
X81209000Y-90132000D01*
X83209000Y-90132000D01*
X83209000Y-92132000D01*
G36*
X83209000Y-92132000D02*
G01*
X81209000Y-92132000D01*
X81209000Y-90132000D01*
X83209000Y-90132000D01*
X83209000Y-92132000D01*
G37*
X88409000Y-83432000D02*
X81009000Y-83432000D01*
X81009000Y-78732000D01*
X88409000Y-78732000D01*
X88409000Y-83432000D01*
G36*
X88409000Y-83432000D02*
G01*
X81009000Y-83432000D01*
X81009000Y-78732000D01*
X88409000Y-78732000D01*
X88409000Y-83432000D01*
G37*
%TD*%
M02*
