%TF.GenerationSoftware,KiCad,Pcbnew,9.0.7*%
%TF.CreationDate,2026-09-12T17:01:17+02:00*%
%TF.ProjectId,1551-III-Pico,31353531-2d49-4494-992d-5069636f2e6b,2b*%
%TF.SameCoordinates,Original*%
%TF.FileFunction,Soldermask,Top*%
%TF.FilePolarity,Negative*%
%FSLAX46Y46*%
G04 Gerber Fmt 4.6, Leading zero omitted, Abs format (unit mm)*
G04 Created by KiCad (PCBNEW 9.0.7) date 2026-09-12 17:01:17*
%MOMM*%
%LPD*%
G01*
G04 APERTURE LIST*
G04 Aperture macros list*
%AMRoundRect*
0 Rectangle with rounded corners*
0 $1 Rounding radius*
0 $2 $3 $4 $5 $6 $7 $8 $9 X,Y pos of 4 corners*
0 Add a 4 corners polygon primitive as box body*
4,1,4,$2,$3,$4,$5,$6,$7,$8,$9,$2,$3,0*
0 Add four circle primitives for the rounded corners*
1,1,$1+$1,$2,$3*
1,1,$1+$1,$4,$5*
1,1,$1+$1,$6,$7*
1,1,$1+$1,$8,$9*
0 Add four rect primitives between the rounded corners*
20,1,$1+$1,$2,$3,$4,$5,0*
20,1,$1+$1,$4,$5,$6,$7,0*
20,1,$1+$1,$6,$7,$8,$9,0*
20,1,$1+$1,$8,$9,$2,$3,0*%
G04 Aperture macros list end*
%ADD10C,5.100000*%
%ADD11R,1.600000X1.600000*%
%ADD12C,1.600000*%
%ADD13R,3.500000X3.500000*%
%ADD14R,1.700000X1.700000*%
%ADD15O,1.700000X1.700000*%
%ADD16RoundRect,0.250000X0.337500X0.475000X-0.337500X0.475000X-0.337500X-0.475000X0.337500X-0.475000X0*%
%ADD17RoundRect,0.150000X-0.587500X-0.150000X0.587500X-0.150000X0.587500X0.150000X-0.587500X0.150000X0*%
%ADD18RoundRect,0.250000X0.450000X-0.350000X0.450000X0.350000X-0.450000X0.350000X-0.450000X-0.350000X0*%
%ADD19RoundRect,0.250000X-0.337500X-0.475000X0.337500X-0.475000X0.337500X0.475000X-0.337500X0.475000X0*%
%ADD20RoundRect,0.250000X0.600000X-0.600000X0.600000X0.600000X-0.600000X0.600000X-0.600000X-0.600000X0*%
%ADD21C,1.700000*%
%ADD22RoundRect,0.250000X-0.350000X-0.450000X0.350000X-0.450000X0.350000X0.450000X-0.350000X0.450000X0*%
%ADD23RoundRect,0.250000X0.350000X0.450000X-0.350000X0.450000X-0.350000X-0.450000X0.350000X-0.450000X0*%
%ADD24RoundRect,0.250000X-0.450000X0.350000X-0.450000X-0.350000X0.450000X-0.350000X0.450000X0.350000X0*%
%ADD25RoundRect,0.075000X0.521491X-0.415425X-0.415425X0.521491X-0.521491X0.415425X0.415425X-0.521491X0*%
%ADD26RoundRect,0.075000X0.521491X0.415425X0.415425X0.521491X-0.521491X-0.415425X-0.415425X-0.521491X0*%
%ADD27RoundRect,0.162500X0.162500X-0.750000X0.162500X0.750000X-0.162500X0.750000X-0.162500X-0.750000X0*%
%ADD28RoundRect,0.250000X-0.950000X-0.550000X0.950000X-0.550000X0.950000X0.550000X-0.950000X0.550000X0*%
%ADD29O,2.400000X1.600000*%
%ADD30RoundRect,0.150000X0.150000X-0.587500X0.150000X0.587500X-0.150000X0.587500X-0.150000X-0.587500X0*%
%ADD31RoundRect,0.250000X-0.475000X0.337500X-0.475000X-0.337500X0.475000X-0.337500X0.475000X0.337500X0*%
%ADD32O,1.800000X1.800000*%
%ADD33O,1.500000X1.500000*%
%ADD34R,3.500000X1.700000*%
%ADD35R,1.700000X3.500000*%
%ADD36R,0.700000X1.600000*%
%ADD37R,1.200000X1.400000*%
%ADD38R,1.200000X2.200000*%
%ADD39R,1.600000X1.400000*%
%ADD40RoundRect,0.250000X-0.550000X-0.550000X0.550000X-0.550000X0.550000X0.550000X-0.550000X0.550000X0*%
%ADD41RoundRect,0.250000X0.445000X-0.545000X0.445000X0.545000X-0.445000X0.545000X-0.445000X-0.545000X0*%
G04 APERTURE END LIST*
D10*
%TO.C,M1*%
X73355000Y-151435000D03*
%TD*%
D11*
%TO.C,C7*%
X76581000Y-68962700D03*
D12*
X76581000Y-65462700D03*
%TD*%
D13*
%TO.C,J4*%
X90000000Y-68500000D03*
X90000000Y-62500000D03*
X85300000Y-65500000D03*
%TD*%
D14*
%TO.C,J5*%
X112560000Y-140970000D03*
D15*
X115100000Y-140970000D03*
X117640000Y-140970000D03*
X120180000Y-140970000D03*
X122720000Y-140970000D03*
X125260000Y-140970000D03*
X127800000Y-140970000D03*
X130340000Y-140970000D03*
X132880000Y-140970000D03*
X135420000Y-140970000D03*
X137960000Y-140970000D03*
X140500000Y-140970000D03*
%TD*%
D10*
%TO.C,M2*%
X167005000Y-151435000D03*
%TD*%
%TO.C,M3*%
X167005000Y-57785000D03*
%TD*%
%TO.C,M4*%
X73355000Y-57785000D03*
%TD*%
D16*
%TO.C,C1*%
X113559500Y-91821000D03*
X111484500Y-91821000D03*
%TD*%
D17*
%TO.C,Q2*%
X118057500Y-132063000D03*
X118057500Y-133963000D03*
X119932500Y-133013000D03*
%TD*%
D18*
%TO.C,R40*%
X134620000Y-136906000D03*
X134620000Y-134906000D03*
%TD*%
D19*
%TO.C,C4*%
X133455500Y-76581000D03*
X135530500Y-76581000D03*
%TD*%
D20*
%TO.C,J1*%
X139610000Y-62992000D03*
D21*
X139610000Y-60452000D03*
X142150000Y-62992000D03*
X142150000Y-60452000D03*
X144690000Y-62992000D03*
X144690000Y-60452000D03*
X147230000Y-62992000D03*
X147230000Y-60452000D03*
X149770000Y-62992000D03*
X149770000Y-60452000D03*
X152310000Y-62992000D03*
X152310000Y-60452000D03*
X154850000Y-62992000D03*
X154850000Y-60452000D03*
X157390000Y-62992000D03*
X157390000Y-60452000D03*
%TD*%
D18*
%TO.C,R41*%
X136525000Y-136906000D03*
X136525000Y-134906000D03*
%TD*%
D22*
%TO.C,R30*%
X163862000Y-105664000D03*
X165862000Y-105664000D03*
%TD*%
D23*
%TO.C,R11*%
X161258000Y-73660000D03*
X159258000Y-73660000D03*
%TD*%
D18*
%TO.C,R36*%
X161703000Y-93726000D03*
X161703000Y-91726000D03*
%TD*%
%TO.C,R39*%
X161864000Y-113014000D03*
X161864000Y-111014000D03*
%TD*%
D22*
%TO.C,R33*%
X84201000Y-133509000D03*
X86201000Y-133509000D03*
%TD*%
D24*
%TO.C,R20*%
X71628000Y-85106000D03*
X71628000Y-87106000D03*
%TD*%
D23*
%TO.C,R10*%
X161274000Y-75565000D03*
X159274000Y-75565000D03*
%TD*%
D24*
%TO.C,R32*%
X82423000Y-135541000D03*
X82423000Y-137541000D03*
%TD*%
D22*
%TO.C,R6*%
X130191000Y-61722000D03*
X132191000Y-61722000D03*
%TD*%
D25*
%TO.C,U9*%
X123145342Y-90602643D03*
X123498895Y-90249089D03*
X123852449Y-89895536D03*
X124206002Y-89541982D03*
X124559555Y-89188429D03*
X124913109Y-88834876D03*
X125266662Y-88481322D03*
X125620215Y-88127769D03*
X125973769Y-87774215D03*
X126327322Y-87420662D03*
X126680876Y-87067109D03*
X127034429Y-86713555D03*
X127387982Y-86360002D03*
X127741536Y-86006449D03*
X128095089Y-85652895D03*
X128448643Y-85299342D03*
D26*
X128448643Y-82594658D03*
X128095089Y-82241105D03*
X127741536Y-81887551D03*
X127387982Y-81533998D03*
X127034429Y-81180445D03*
X126680876Y-80826891D03*
X126327322Y-80473338D03*
X125973769Y-80119785D03*
X125620215Y-79766231D03*
X125266662Y-79412678D03*
X124913109Y-79059124D03*
X124559555Y-78705571D03*
X124206002Y-78352018D03*
X123852449Y-77998464D03*
X123498895Y-77644911D03*
X123145342Y-77291357D03*
D25*
X120440658Y-77291357D03*
X120087105Y-77644911D03*
X119733551Y-77998464D03*
X119379998Y-78352018D03*
X119026445Y-78705571D03*
X118672891Y-79059124D03*
X118319338Y-79412678D03*
X117965785Y-79766231D03*
X117612231Y-80119785D03*
X117258678Y-80473338D03*
X116905124Y-80826891D03*
X116551571Y-81180445D03*
X116198018Y-81533998D03*
X115844464Y-81887551D03*
X115490911Y-82241105D03*
X115137357Y-82594658D03*
D26*
X115137357Y-85299342D03*
X115490911Y-85652895D03*
X115844464Y-86006449D03*
X116198018Y-86360002D03*
X116551571Y-86713555D03*
X116905124Y-87067109D03*
X117258678Y-87420662D03*
X117612231Y-87774215D03*
X117965785Y-88127769D03*
X118319338Y-88481322D03*
X118672891Y-88834876D03*
X119026445Y-89188429D03*
X119379998Y-89541982D03*
X119733551Y-89895536D03*
X120087105Y-90249089D03*
X120440658Y-90602643D03*
%TD*%
D24*
%TO.C,R19*%
X71628000Y-80026000D03*
X71628000Y-82026000D03*
%TD*%
D16*
%TO.C,C5*%
X110257500Y-76581000D03*
X108182500Y-76581000D03*
%TD*%
D22*
%TO.C,R28*%
X130207000Y-69342000D03*
X132207000Y-69342000D03*
%TD*%
D23*
%TO.C,R9*%
X161274000Y-77470000D03*
X159274000Y-77470000D03*
%TD*%
D16*
%TO.C,C2*%
X131974500Y-91821000D03*
X129899500Y-91821000D03*
%TD*%
D22*
%TO.C,R2*%
X96155000Y-65786000D03*
X98155000Y-65786000D03*
%TD*%
D27*
%TO.C,U19*%
X98679000Y-139612500D03*
X99949000Y-139612500D03*
X101219000Y-139612500D03*
X102489000Y-139612500D03*
X103759000Y-139612500D03*
X105029000Y-139612500D03*
X106299000Y-139612500D03*
X107569000Y-139612500D03*
X107569000Y-133437500D03*
X106299000Y-133437500D03*
X105029000Y-133437500D03*
X103759000Y-133437500D03*
X102489000Y-133437500D03*
X101219000Y-133437500D03*
X99949000Y-133437500D03*
X98679000Y-133437500D03*
%TD*%
D22*
%TO.C,R17*%
X91186000Y-76073000D03*
X93186000Y-76073000D03*
%TD*%
D16*
%TO.C,C6*%
X110257500Y-87503000D03*
X108182500Y-87503000D03*
%TD*%
D22*
%TO.C,R7*%
X130175000Y-65532000D03*
X132175000Y-65532000D03*
%TD*%
D23*
%TO.C,R18*%
X161258000Y-79375000D03*
X159258000Y-79375000D03*
%TD*%
D14*
%TO.C,J7*%
X167939000Y-71432000D03*
D21*
X167939000Y-73972000D03*
%TD*%
D28*
%TO.C,U4*%
X98171000Y-94996000D03*
D29*
X98171000Y-97536000D03*
X98171000Y-100076000D03*
X98171000Y-102616000D03*
X98171000Y-105156000D03*
X98171000Y-107696000D03*
X98171000Y-110236000D03*
X98171000Y-112776000D03*
X98171000Y-115316000D03*
X98171000Y-117856000D03*
X98171000Y-120396000D03*
X98171000Y-122936000D03*
X98171000Y-125476000D03*
X98171000Y-128016000D03*
X113411000Y-128016000D03*
X113411000Y-125476000D03*
X113411000Y-122936000D03*
X113411000Y-120396000D03*
X113411000Y-117856000D03*
X113411000Y-115316000D03*
X113411000Y-112776000D03*
X113411000Y-110236000D03*
X113411000Y-107696000D03*
X113411000Y-105156000D03*
X113411000Y-102616000D03*
X113411000Y-100076000D03*
X113411000Y-97536000D03*
X113411000Y-94996000D03*
%TD*%
D30*
%TO.C,Q3*%
X163868000Y-103465500D03*
X165768000Y-103465500D03*
X164818000Y-101590500D03*
%TD*%
D14*
%TO.C,J6*%
X113538000Y-70485000D03*
D21*
X116078000Y-70485000D03*
X118618000Y-70485000D03*
X121158000Y-70485000D03*
X123698000Y-70485000D03*
X126238000Y-70485000D03*
%TD*%
D18*
%TO.C,R22*%
X115922000Y-137890000D03*
X115922000Y-135890000D03*
%TD*%
D19*
%TO.C,C3*%
X133455500Y-87503000D03*
X135530500Y-87503000D03*
%TD*%
D23*
%TO.C,R13*%
X161274000Y-69850000D03*
X159274000Y-69850000D03*
%TD*%
D31*
%TO.C,C10*%
X96139000Y-133267500D03*
X96139000Y-135342500D03*
%TD*%
D18*
%TO.C,R26*%
X161991000Y-122001000D03*
X161991000Y-120001000D03*
%TD*%
D22*
%TO.C,R5*%
X130175000Y-63627000D03*
X132175000Y-63627000D03*
%TD*%
%TO.C,R35*%
X163751000Y-95631000D03*
X165751000Y-95631000D03*
%TD*%
D32*
%TO.C,U3*%
X81984000Y-79632000D03*
D33*
X82284000Y-82662000D03*
X87134000Y-82662000D03*
D32*
X87434000Y-79632000D03*
D15*
X75819000Y-79502000D03*
D34*
X74919000Y-79502000D03*
D15*
X75819000Y-82042000D03*
D34*
X74919000Y-82042000D03*
D14*
X75819000Y-84582000D03*
D34*
X74919000Y-84582000D03*
D15*
X75819000Y-87122000D03*
D34*
X74919000Y-87122000D03*
D15*
X75819000Y-89662000D03*
D34*
X74919000Y-89662000D03*
D15*
X75819000Y-92202000D03*
D34*
X74919000Y-92202000D03*
D15*
X75819000Y-94742000D03*
D34*
X74919000Y-94742000D03*
D14*
X75819000Y-97282000D03*
D34*
X74919000Y-97282000D03*
D15*
X75819000Y-99822000D03*
D34*
X74919000Y-99822000D03*
D15*
X75819000Y-102362000D03*
D34*
X74919000Y-102362000D03*
D15*
X75819000Y-104902000D03*
D34*
X74919000Y-104902000D03*
D15*
X75819000Y-107442000D03*
D34*
X74919000Y-107442000D03*
D14*
X75819000Y-109982000D03*
D34*
X74919000Y-109982000D03*
D15*
X75819000Y-112522000D03*
D34*
X74919000Y-112522000D03*
D15*
X75819000Y-115062000D03*
D34*
X74919000Y-115062000D03*
D15*
X75819000Y-117602000D03*
D34*
X74919000Y-117602000D03*
D15*
X75819000Y-120142000D03*
D34*
X74919000Y-120142000D03*
D14*
X75819000Y-122682000D03*
D34*
X74919000Y-122682000D03*
D15*
X75819000Y-125222000D03*
D34*
X74919000Y-125222000D03*
D15*
X75819000Y-127762000D03*
D34*
X74919000Y-127762000D03*
D15*
X93599000Y-127762000D03*
D34*
X94499000Y-127762000D03*
D15*
X93599000Y-125222000D03*
D34*
X94499000Y-125222000D03*
D14*
X93599000Y-122682000D03*
D34*
X94499000Y-122682000D03*
D15*
X93599000Y-120142000D03*
D34*
X94499000Y-120142000D03*
D15*
X93599000Y-117602000D03*
D34*
X94499000Y-117602000D03*
D15*
X93599000Y-115062000D03*
D34*
X94499000Y-115062000D03*
D15*
X93599000Y-112522000D03*
D34*
X94499000Y-112522000D03*
D14*
X93599000Y-109982000D03*
D34*
X94499000Y-109982000D03*
D15*
X93599000Y-107442000D03*
D34*
X94499000Y-107442000D03*
D15*
X93599000Y-104902000D03*
D34*
X94499000Y-104902000D03*
D15*
X93599000Y-102362000D03*
D34*
X94499000Y-102362000D03*
D15*
X93599000Y-99822000D03*
D34*
X94499000Y-99822000D03*
D14*
X93599000Y-97282000D03*
D34*
X94499000Y-97282000D03*
D15*
X93599000Y-94742000D03*
D34*
X94499000Y-94742000D03*
D15*
X93599000Y-92202000D03*
D34*
X94499000Y-92202000D03*
D15*
X93599000Y-89662000D03*
D34*
X94499000Y-89662000D03*
D15*
X93599000Y-87122000D03*
D34*
X94499000Y-87122000D03*
D14*
X93599000Y-84582000D03*
D34*
X94499000Y-84582000D03*
D15*
X93599000Y-82042000D03*
D34*
X94499000Y-82042000D03*
D15*
X93599000Y-79502000D03*
D34*
X94499000Y-79502000D03*
D15*
X82169000Y-127532000D03*
D35*
X82169000Y-128432000D03*
D14*
X84709000Y-127532000D03*
D35*
X84709000Y-128432000D03*
D15*
X87249000Y-127532000D03*
D35*
X87249000Y-128432000D03*
%TD*%
D23*
%TO.C,R14*%
X161274000Y-67945000D03*
X159274000Y-67945000D03*
%TD*%
D36*
%TO.C,XS1*%
X117602000Y-66675000D03*
X118702000Y-66675000D03*
X119802000Y-66675000D03*
X120902000Y-66675000D03*
X122002000Y-66675000D03*
D37*
X127552000Y-66175000D03*
D38*
X127552000Y-56575000D03*
D36*
X123102000Y-66675000D03*
D39*
X112952000Y-66175000D03*
D38*
X112052000Y-56575000D03*
D36*
X124202000Y-66675000D03*
X125302000Y-66675000D03*
X126402000Y-66675000D03*
%TD*%
D18*
%TO.C,R44*%
X128905000Y-136906000D03*
X128905000Y-134906000D03*
%TD*%
D28*
%TO.C,U5*%
X116505000Y-94996000D03*
D29*
X116505000Y-97536000D03*
X116505000Y-100076000D03*
X116505000Y-102616000D03*
X116505000Y-105156000D03*
X116505000Y-107696000D03*
X116505000Y-110236000D03*
X116505000Y-112776000D03*
X116505000Y-115316000D03*
X116505000Y-117856000D03*
X116505000Y-120396000D03*
X116505000Y-122936000D03*
X116505000Y-125476000D03*
X116505000Y-128016000D03*
X131745000Y-128016000D03*
X131745000Y-125476000D03*
X131745000Y-122936000D03*
X131745000Y-120396000D03*
X131745000Y-117856000D03*
X131745000Y-115316000D03*
X131745000Y-112776000D03*
X131745000Y-110236000D03*
X131745000Y-107696000D03*
X131745000Y-105156000D03*
X131745000Y-102616000D03*
X131745000Y-100076000D03*
X131745000Y-97536000D03*
X131745000Y-94996000D03*
%TD*%
D30*
%TO.C,Q5*%
X163762000Y-93448500D03*
X165662000Y-93448500D03*
X164712000Y-91573500D03*
%TD*%
D22*
%TO.C,R16*%
X96155000Y-69088000D03*
X98155000Y-69088000D03*
%TD*%
%TO.C,R15*%
X130191000Y-56007000D03*
X132191000Y-56007000D03*
%TD*%
D18*
%TO.C,R43*%
X130810000Y-136906000D03*
X130810000Y-134906000D03*
%TD*%
D40*
%TO.C,U6*%
X140589000Y-79761000D03*
D12*
X140589000Y-82301000D03*
X140589000Y-84841000D03*
X140589000Y-87381000D03*
X140589000Y-89921000D03*
X140589000Y-92461000D03*
X140589000Y-95001000D03*
X140589000Y-97541000D03*
X140589000Y-100081000D03*
X140589000Y-102621000D03*
X140589000Y-105161000D03*
X140589000Y-107701000D03*
X140589000Y-110241000D03*
X140589000Y-112781000D03*
X140589000Y-115321000D03*
X140589000Y-117861000D03*
X140589000Y-120401000D03*
X140589000Y-122941000D03*
X140589000Y-125481000D03*
X140589000Y-128021000D03*
X155829000Y-128021000D03*
X155829000Y-125481000D03*
X155829000Y-122941000D03*
X155829000Y-120401000D03*
X155829000Y-117861000D03*
X155829000Y-115321000D03*
X155829000Y-112781000D03*
X155829000Y-110241000D03*
X155829000Y-107701000D03*
X155829000Y-105161000D03*
X155829000Y-102621000D03*
X155829000Y-100081000D03*
X155829000Y-97541000D03*
X155829000Y-95001000D03*
X155829000Y-92461000D03*
X155829000Y-89921000D03*
X155829000Y-87381000D03*
X155829000Y-84841000D03*
X155829000Y-82301000D03*
X155829000Y-79761000D03*
%TD*%
D23*
%TO.C,R21*%
X78867000Y-76073000D03*
X76867000Y-76073000D03*
%TD*%
D22*
%TO.C,R3*%
X130191000Y-59817000D03*
X132191000Y-59817000D03*
%TD*%
D17*
%TO.C,Q4*%
X84462500Y-135480000D03*
X84462500Y-137380000D03*
X86337500Y-136430000D03*
%TD*%
D30*
%TO.C,Q1*%
X163896000Y-121636000D03*
X165796000Y-121636000D03*
X164846000Y-119761000D03*
%TD*%
%TO.C,Q6*%
X163896000Y-112746000D03*
X165796000Y-112746000D03*
X164846000Y-110871000D03*
%TD*%
D14*
%TO.C,J3*%
X164211000Y-71374000D03*
D21*
X164211000Y-73914000D03*
X164211000Y-76454000D03*
X164211000Y-78994000D03*
X164211000Y-81534000D03*
X164211000Y-84074000D03*
%TD*%
D24*
%TO.C,R27*%
X127000000Y-134906000D03*
X127000000Y-136906000D03*
%TD*%
D22*
%TO.C,R25*%
X164055000Y-123795000D03*
X166055000Y-123795000D03*
%TD*%
D18*
%TO.C,R42*%
X132715000Y-136906000D03*
X132715000Y-134906000D03*
%TD*%
D23*
%TO.C,R12*%
X161274000Y-71755000D03*
X159274000Y-71755000D03*
%TD*%
D18*
%TO.C,R31*%
X161703000Y-103886000D03*
X161703000Y-101886000D03*
%TD*%
D14*
%TO.C,J2*%
X168021000Y-84079000D03*
D21*
X168021000Y-81539000D03*
%TD*%
D18*
%TO.C,R1*%
X134493000Y-94980000D03*
X134493000Y-92980000D03*
%TD*%
D41*
%TO.C,C11*%
X109474000Y-64262000D03*
X109474000Y-61382000D03*
%TD*%
D22*
%TO.C,R8*%
X130191000Y-67437000D03*
X132191000Y-67437000D03*
%TD*%
%TO.C,R4*%
X130191000Y-57912000D03*
X132191000Y-57912000D03*
%TD*%
%TO.C,R38*%
X163896000Y-114808000D03*
X165896000Y-114808000D03*
%TD*%
D24*
%TO.C,R37*%
X109474000Y-66707000D03*
X109474000Y-68707000D03*
%TD*%
M02*
