%TF.GenerationSoftware,KiCad,Pcbnew,9.0.7*%
%TF.CreationDate,2026-09-12T17:01:17+02:00*%
%TF.ProjectId,1551-III-Pico,31353531-2d49-4494-992d-5069636f2e6b,2b*%
%TF.SameCoordinates,Original*%
%TF.FileFunction,Legend,Bot*%
%TF.FilePolarity,Positive*%
%FSLAX46Y46*%
G04 Gerber Fmt 4.6, Leading zero omitted, Abs format (unit mm)*
G04 Created by KiCad (PCBNEW 9.0.7) date 2026-09-12 17:01:17*
%MOMM*%
%LPD*%
G01*
G04 APERTURE LIST*
%ADD10C,0.150000*%
%ADD11C,0.500000*%
%ADD12C,0.010000*%
%ADD13C,0.120000*%
G04 APERTURE END LIST*
D10*
X91571428Y-58429819D02*
X92047618Y-58429819D01*
X92047618Y-58429819D02*
X92095237Y-58906009D01*
X92095237Y-58906009D02*
X92047618Y-58858390D01*
X92047618Y-58858390D02*
X91952380Y-58810771D01*
X91952380Y-58810771D02*
X91714285Y-58810771D01*
X91714285Y-58810771D02*
X91619047Y-58858390D01*
X91619047Y-58858390D02*
X91571428Y-58906009D01*
X91571428Y-58906009D02*
X91523809Y-59001247D01*
X91523809Y-59001247D02*
X91523809Y-59239342D01*
X91523809Y-59239342D02*
X91571428Y-59334580D01*
X91571428Y-59334580D02*
X91619047Y-59382200D01*
X91619047Y-59382200D02*
X91714285Y-59429819D01*
X91714285Y-59429819D02*
X91952380Y-59429819D01*
X91952380Y-59429819D02*
X92047618Y-59382200D01*
X92047618Y-59382200D02*
X92095237Y-59334580D01*
X91238094Y-58429819D02*
X90904761Y-59429819D01*
X90904761Y-59429819D02*
X90571428Y-58429819D01*
X89476189Y-59429819D02*
X89476189Y-58429819D01*
X89476189Y-58429819D02*
X89238094Y-58429819D01*
X89238094Y-58429819D02*
X89095237Y-58477438D01*
X89095237Y-58477438D02*
X88999999Y-58572676D01*
X88999999Y-58572676D02*
X88952380Y-58667914D01*
X88952380Y-58667914D02*
X88904761Y-58858390D01*
X88904761Y-58858390D02*
X88904761Y-59001247D01*
X88904761Y-59001247D02*
X88952380Y-59191723D01*
X88952380Y-59191723D02*
X88999999Y-59286961D01*
X88999999Y-59286961D02*
X89095237Y-59382200D01*
X89095237Y-59382200D02*
X89238094Y-59429819D01*
X89238094Y-59429819D02*
X89476189Y-59429819D01*
X87904761Y-59334580D02*
X87952380Y-59382200D01*
X87952380Y-59382200D02*
X88095237Y-59429819D01*
X88095237Y-59429819D02*
X88190475Y-59429819D01*
X88190475Y-59429819D02*
X88333332Y-59382200D01*
X88333332Y-59382200D02*
X88428570Y-59286961D01*
X88428570Y-59286961D02*
X88476189Y-59191723D01*
X88476189Y-59191723D02*
X88523808Y-59001247D01*
X88523808Y-59001247D02*
X88523808Y-58858390D01*
X88523808Y-58858390D02*
X88476189Y-58667914D01*
X88476189Y-58667914D02*
X88428570Y-58572676D01*
X88428570Y-58572676D02*
X88333332Y-58477438D01*
X88333332Y-58477438D02*
X88190475Y-58429819D01*
X88190475Y-58429819D02*
X88095237Y-58429819D01*
X88095237Y-58429819D02*
X87952380Y-58477438D01*
X87952380Y-58477438D02*
X87904761Y-58525057D01*
X122887931Y-98269588D02*
X122887931Y-97698160D01*
X122887931Y-97983874D02*
X121887931Y-97983874D01*
X121887931Y-97983874D02*
X122030788Y-97888636D01*
X122030788Y-97888636D02*
X122126026Y-97793398D01*
X122126026Y-97793398D02*
X122173645Y-97698160D01*
X121887931Y-99174350D02*
X121887931Y-98698160D01*
X121887931Y-98698160D02*
X122364121Y-98650541D01*
X122364121Y-98650541D02*
X122316502Y-98698160D01*
X122316502Y-98698160D02*
X122268883Y-98793398D01*
X122268883Y-98793398D02*
X122268883Y-99031493D01*
X122268883Y-99031493D02*
X122316502Y-99126731D01*
X122316502Y-99126731D02*
X122364121Y-99174350D01*
X122364121Y-99174350D02*
X122459359Y-99221969D01*
X122459359Y-99221969D02*
X122697454Y-99221969D01*
X122697454Y-99221969D02*
X122792692Y-99174350D01*
X122792692Y-99174350D02*
X122840312Y-99126731D01*
X122840312Y-99126731D02*
X122887931Y-99031493D01*
X122887931Y-99031493D02*
X122887931Y-98793398D01*
X122887931Y-98793398D02*
X122840312Y-98698160D01*
X122840312Y-98698160D02*
X122792692Y-98650541D01*
X121887931Y-100126731D02*
X121887931Y-99650541D01*
X121887931Y-99650541D02*
X122364121Y-99602922D01*
X122364121Y-99602922D02*
X122316502Y-99650541D01*
X122316502Y-99650541D02*
X122268883Y-99745779D01*
X122268883Y-99745779D02*
X122268883Y-99983874D01*
X122268883Y-99983874D02*
X122316502Y-100079112D01*
X122316502Y-100079112D02*
X122364121Y-100126731D01*
X122364121Y-100126731D02*
X122459359Y-100174350D01*
X122459359Y-100174350D02*
X122697454Y-100174350D01*
X122697454Y-100174350D02*
X122792692Y-100126731D01*
X122792692Y-100126731D02*
X122840312Y-100079112D01*
X122840312Y-100079112D02*
X122887931Y-99983874D01*
X122887931Y-99983874D02*
X122887931Y-99745779D01*
X122887931Y-99745779D02*
X122840312Y-99650541D01*
X122840312Y-99650541D02*
X122792692Y-99602922D01*
X122887931Y-101126731D02*
X122887931Y-100555303D01*
X122887931Y-100841017D02*
X121887931Y-100841017D01*
X121887931Y-100841017D02*
X122030788Y-100745779D01*
X122030788Y-100745779D02*
X122126026Y-100650541D01*
X122126026Y-100650541D02*
X122173645Y-100555303D01*
X122506978Y-101555303D02*
X122506978Y-102317208D01*
X122887931Y-102793398D02*
X121887931Y-102793398D01*
X122887931Y-103269588D02*
X121887931Y-103269588D01*
X122887931Y-103745778D02*
X121887931Y-103745778D01*
X122506978Y-104221968D02*
X122506978Y-104983873D01*
X122887931Y-105460063D02*
X121887931Y-105460063D01*
X121887931Y-105460063D02*
X121887931Y-105841015D01*
X121887931Y-105841015D02*
X121935550Y-105936253D01*
X121935550Y-105936253D02*
X121983169Y-105983872D01*
X121983169Y-105983872D02*
X122078407Y-106031491D01*
X122078407Y-106031491D02*
X122221264Y-106031491D01*
X122221264Y-106031491D02*
X122316502Y-105983872D01*
X122316502Y-105983872D02*
X122364121Y-105936253D01*
X122364121Y-105936253D02*
X122411740Y-105841015D01*
X122411740Y-105841015D02*
X122411740Y-105460063D01*
X122887931Y-106460063D02*
X122221264Y-106460063D01*
X121887931Y-106460063D02*
X121935550Y-106412444D01*
X121935550Y-106412444D02*
X121983169Y-106460063D01*
X121983169Y-106460063D02*
X121935550Y-106507682D01*
X121935550Y-106507682D02*
X121887931Y-106460063D01*
X121887931Y-106460063D02*
X121983169Y-106460063D01*
X122840312Y-107364824D02*
X122887931Y-107269586D01*
X122887931Y-107269586D02*
X122887931Y-107079110D01*
X122887931Y-107079110D02*
X122840312Y-106983872D01*
X122840312Y-106983872D02*
X122792692Y-106936253D01*
X122792692Y-106936253D02*
X122697454Y-106888634D01*
X122697454Y-106888634D02*
X122411740Y-106888634D01*
X122411740Y-106888634D02*
X122316502Y-106936253D01*
X122316502Y-106936253D02*
X122268883Y-106983872D01*
X122268883Y-106983872D02*
X122221264Y-107079110D01*
X122221264Y-107079110D02*
X122221264Y-107269586D01*
X122221264Y-107269586D02*
X122268883Y-107364824D01*
X122887931Y-107936253D02*
X122840312Y-107841015D01*
X122840312Y-107841015D02*
X122792692Y-107793396D01*
X122792692Y-107793396D02*
X122697454Y-107745777D01*
X122697454Y-107745777D02*
X122411740Y-107745777D01*
X122411740Y-107745777D02*
X122316502Y-107793396D01*
X122316502Y-107793396D02*
X122268883Y-107841015D01*
X122268883Y-107841015D02*
X122221264Y-107936253D01*
X122221264Y-107936253D02*
X122221264Y-108079110D01*
X122221264Y-108079110D02*
X122268883Y-108174348D01*
X122268883Y-108174348D02*
X122316502Y-108221967D01*
X122316502Y-108221967D02*
X122411740Y-108269586D01*
X122411740Y-108269586D02*
X122697454Y-108269586D01*
X122697454Y-108269586D02*
X122792692Y-108221967D01*
X122792692Y-108221967D02*
X122840312Y-108174348D01*
X122840312Y-108174348D02*
X122887931Y-108079110D01*
X122887931Y-108079110D02*
X122887931Y-107936253D01*
X122221264Y-109364825D02*
X122887931Y-109602920D01*
X122887931Y-109602920D02*
X122221264Y-109841015D01*
X122887931Y-110745777D02*
X122887931Y-110174349D01*
X122887931Y-110460063D02*
X121887931Y-110460063D01*
X121887931Y-110460063D02*
X122030788Y-110364825D01*
X122030788Y-110364825D02*
X122126026Y-110269587D01*
X122126026Y-110269587D02*
X122173645Y-110174349D01*
X122792692Y-111174349D02*
X122840312Y-111221968D01*
X122840312Y-111221968D02*
X122887931Y-111174349D01*
X122887931Y-111174349D02*
X122840312Y-111126730D01*
X122840312Y-111126730D02*
X122792692Y-111174349D01*
X122792692Y-111174349D02*
X122887931Y-111174349D01*
X122887931Y-112174348D02*
X122887931Y-111602920D01*
X122887931Y-111888634D02*
X121887931Y-111888634D01*
X121887931Y-111888634D02*
X122030788Y-111793396D01*
X122030788Y-111793396D02*
X122126026Y-111698158D01*
X122126026Y-111698158D02*
X122173645Y-111602920D01*
X124497875Y-97745779D02*
X123497875Y-97745779D01*
X123497875Y-97745779D02*
X124212160Y-98079112D01*
X124212160Y-98079112D02*
X123497875Y-98412445D01*
X123497875Y-98412445D02*
X124497875Y-98412445D01*
X124497875Y-99317207D02*
X123974065Y-99317207D01*
X123974065Y-99317207D02*
X123878827Y-99269588D01*
X123878827Y-99269588D02*
X123831208Y-99174350D01*
X123831208Y-99174350D02*
X123831208Y-98983874D01*
X123831208Y-98983874D02*
X123878827Y-98888636D01*
X124450256Y-99317207D02*
X124497875Y-99221969D01*
X124497875Y-99221969D02*
X124497875Y-98983874D01*
X124497875Y-98983874D02*
X124450256Y-98888636D01*
X124450256Y-98888636D02*
X124355017Y-98841017D01*
X124355017Y-98841017D02*
X124259779Y-98841017D01*
X124259779Y-98841017D02*
X124164541Y-98888636D01*
X124164541Y-98888636D02*
X124116922Y-98983874D01*
X124116922Y-98983874D02*
X124116922Y-99221969D01*
X124116922Y-99221969D02*
X124069303Y-99317207D01*
X124450256Y-100221969D02*
X124497875Y-100126731D01*
X124497875Y-100126731D02*
X124497875Y-99936255D01*
X124497875Y-99936255D02*
X124450256Y-99841017D01*
X124450256Y-99841017D02*
X124402636Y-99793398D01*
X124402636Y-99793398D02*
X124307398Y-99745779D01*
X124307398Y-99745779D02*
X124021684Y-99745779D01*
X124021684Y-99745779D02*
X123926446Y-99793398D01*
X123926446Y-99793398D02*
X123878827Y-99841017D01*
X123878827Y-99841017D02*
X123831208Y-99936255D01*
X123831208Y-99936255D02*
X123831208Y-100126731D01*
X123831208Y-100126731D02*
X123878827Y-100221969D01*
X124497875Y-100650541D02*
X123831208Y-100650541D01*
X123497875Y-100650541D02*
X123545494Y-100602922D01*
X123545494Y-100602922D02*
X123593113Y-100650541D01*
X123593113Y-100650541D02*
X123545494Y-100698160D01*
X123545494Y-100698160D02*
X123497875Y-100650541D01*
X123497875Y-100650541D02*
X123593113Y-100650541D01*
X124450256Y-101507683D02*
X124497875Y-101412445D01*
X124497875Y-101412445D02*
X124497875Y-101221969D01*
X124497875Y-101221969D02*
X124450256Y-101126731D01*
X124450256Y-101126731D02*
X124355017Y-101079112D01*
X124355017Y-101079112D02*
X123974065Y-101079112D01*
X123974065Y-101079112D02*
X123878827Y-101126731D01*
X123878827Y-101126731D02*
X123831208Y-101221969D01*
X123831208Y-101221969D02*
X123831208Y-101412445D01*
X123831208Y-101412445D02*
X123878827Y-101507683D01*
X123878827Y-101507683D02*
X123974065Y-101555302D01*
X123974065Y-101555302D02*
X124069303Y-101555302D01*
X124069303Y-101555302D02*
X124164541Y-101079112D01*
X123831208Y-101983874D02*
X124688351Y-101983874D01*
X124688351Y-101983874D02*
X124783589Y-101936255D01*
X124783589Y-101936255D02*
X124831208Y-101841017D01*
X124831208Y-101841017D02*
X124831208Y-101793398D01*
X123497875Y-101983874D02*
X123545494Y-101936255D01*
X123545494Y-101936255D02*
X123593113Y-101983874D01*
X123593113Y-101983874D02*
X123545494Y-102031493D01*
X123545494Y-102031493D02*
X123497875Y-101983874D01*
X123497875Y-101983874D02*
X123593113Y-101983874D01*
X123497875Y-103126731D02*
X124497875Y-103364826D01*
X124497875Y-103364826D02*
X123783589Y-103555302D01*
X123783589Y-103555302D02*
X124497875Y-103745778D01*
X124497875Y-103745778D02*
X123497875Y-103983874D01*
X124497875Y-104364826D02*
X123831208Y-104364826D01*
X123497875Y-104364826D02*
X123545494Y-104317207D01*
X123545494Y-104317207D02*
X123593113Y-104364826D01*
X123593113Y-104364826D02*
X123545494Y-104412445D01*
X123545494Y-104412445D02*
X123497875Y-104364826D01*
X123497875Y-104364826D02*
X123593113Y-104364826D01*
X124497875Y-104841016D02*
X123497875Y-104841016D01*
X124116922Y-104936254D02*
X124497875Y-105221968D01*
X123831208Y-105221968D02*
X124212160Y-104841016D01*
X123831208Y-105507683D02*
X123831208Y-105888635D01*
X123497875Y-105650540D02*
X124355017Y-105650540D01*
X124355017Y-105650540D02*
X124450256Y-105698159D01*
X124450256Y-105698159D02*
X124497875Y-105793397D01*
X124497875Y-105793397D02*
X124497875Y-105888635D01*
X124497875Y-106364826D02*
X124450256Y-106269588D01*
X124450256Y-106269588D02*
X124402636Y-106221969D01*
X124402636Y-106221969D02*
X124307398Y-106174350D01*
X124307398Y-106174350D02*
X124021684Y-106174350D01*
X124021684Y-106174350D02*
X123926446Y-106221969D01*
X123926446Y-106221969D02*
X123878827Y-106269588D01*
X123878827Y-106269588D02*
X123831208Y-106364826D01*
X123831208Y-106364826D02*
X123831208Y-106507683D01*
X123831208Y-106507683D02*
X123878827Y-106602921D01*
X123878827Y-106602921D02*
X123926446Y-106650540D01*
X123926446Y-106650540D02*
X124021684Y-106698159D01*
X124021684Y-106698159D02*
X124307398Y-106698159D01*
X124307398Y-106698159D02*
X124402636Y-106650540D01*
X124402636Y-106650540D02*
X124450256Y-106602921D01*
X124450256Y-106602921D02*
X124497875Y-106507683D01*
X124497875Y-106507683D02*
X124497875Y-106364826D01*
X123831208Y-107031493D02*
X124497875Y-107221969D01*
X124497875Y-107221969D02*
X124021684Y-107412445D01*
X124021684Y-107412445D02*
X124497875Y-107602921D01*
X124497875Y-107602921D02*
X123831208Y-107793397D01*
X124497875Y-108174350D02*
X123831208Y-108174350D01*
X123497875Y-108174350D02*
X123545494Y-108126731D01*
X123545494Y-108126731D02*
X123593113Y-108174350D01*
X123593113Y-108174350D02*
X123545494Y-108221969D01*
X123545494Y-108221969D02*
X123497875Y-108174350D01*
X123497875Y-108174350D02*
X123593113Y-108174350D01*
X124497875Y-109079111D02*
X123974065Y-109079111D01*
X123974065Y-109079111D02*
X123878827Y-109031492D01*
X123878827Y-109031492D02*
X123831208Y-108936254D01*
X123831208Y-108936254D02*
X123831208Y-108745778D01*
X123831208Y-108745778D02*
X123878827Y-108650540D01*
X124450256Y-109079111D02*
X124497875Y-108983873D01*
X124497875Y-108983873D02*
X124497875Y-108745778D01*
X124497875Y-108745778D02*
X124450256Y-108650540D01*
X124450256Y-108650540D02*
X124355017Y-108602921D01*
X124355017Y-108602921D02*
X124259779Y-108602921D01*
X124259779Y-108602921D02*
X124164541Y-108650540D01*
X124164541Y-108650540D02*
X124116922Y-108745778D01*
X124116922Y-108745778D02*
X124116922Y-108983873D01*
X124116922Y-108983873D02*
X124069303Y-109079111D01*
X124497875Y-109555302D02*
X123497875Y-109555302D01*
X124116922Y-109650540D02*
X124497875Y-109936254D01*
X123831208Y-109936254D02*
X124212160Y-109555302D01*
X123831208Y-111888636D02*
X124116922Y-111126731D01*
X124116922Y-111126731D02*
X124402636Y-111888636D01*
X123831208Y-112269588D02*
X124497875Y-112507683D01*
X123831208Y-112745778D02*
X124497875Y-112507683D01*
X124497875Y-112507683D02*
X124735970Y-112412445D01*
X124735970Y-112412445D02*
X124783589Y-112364826D01*
X124783589Y-112364826D02*
X124831208Y-112269588D01*
X123831208Y-112983874D02*
X123831208Y-113364826D01*
X123497875Y-113126731D02*
X124355017Y-113126731D01*
X124355017Y-113126731D02*
X124450256Y-113174350D01*
X124450256Y-113174350D02*
X124497875Y-113269588D01*
X124497875Y-113269588D02*
X124497875Y-113364826D01*
X124497875Y-113698160D02*
X123831208Y-113698160D01*
X123926446Y-113698160D02*
X123878827Y-113745779D01*
X123878827Y-113745779D02*
X123831208Y-113841017D01*
X123831208Y-113841017D02*
X123831208Y-113983874D01*
X123831208Y-113983874D02*
X123878827Y-114079112D01*
X123878827Y-114079112D02*
X123974065Y-114126731D01*
X123974065Y-114126731D02*
X124497875Y-114126731D01*
X123974065Y-114126731D02*
X123878827Y-114174350D01*
X123878827Y-114174350D02*
X123831208Y-114269588D01*
X123831208Y-114269588D02*
X123831208Y-114412445D01*
X123831208Y-114412445D02*
X123878827Y-114507684D01*
X123878827Y-114507684D02*
X123974065Y-114555303D01*
X123974065Y-114555303D02*
X124497875Y-114555303D01*
X124021684Y-115650540D02*
X123974065Y-115602921D01*
X123974065Y-115602921D02*
X123926446Y-115507683D01*
X123926446Y-115507683D02*
X123926446Y-115412445D01*
X123926446Y-115412445D02*
X123974065Y-115317207D01*
X123974065Y-115317207D02*
X124021684Y-115269588D01*
X124021684Y-115269588D02*
X124116922Y-115221969D01*
X124116922Y-115221969D02*
X124212160Y-115221969D01*
X124212160Y-115221969D02*
X124307398Y-115269588D01*
X124307398Y-115269588D02*
X124355017Y-115317207D01*
X124355017Y-115317207D02*
X124402636Y-115412445D01*
X124402636Y-115412445D02*
X124402636Y-115507683D01*
X124402636Y-115507683D02*
X124355017Y-115602921D01*
X124355017Y-115602921D02*
X124307398Y-115650540D01*
X123926446Y-115650540D02*
X124307398Y-115650540D01*
X124307398Y-115650540D02*
X124355017Y-115698159D01*
X124355017Y-115698159D02*
X124355017Y-115745778D01*
X124355017Y-115745778D02*
X124307398Y-115841017D01*
X124307398Y-115841017D02*
X124212160Y-115888636D01*
X124212160Y-115888636D02*
X123974065Y-115888636D01*
X123974065Y-115888636D02*
X123831208Y-115793398D01*
X123831208Y-115793398D02*
X123735970Y-115650540D01*
X123735970Y-115650540D02*
X123688351Y-115460064D01*
X123688351Y-115460064D02*
X123735970Y-115269588D01*
X123735970Y-115269588D02*
X123831208Y-115126731D01*
X123831208Y-115126731D02*
X123974065Y-115031493D01*
X123974065Y-115031493D02*
X124164541Y-114983874D01*
X124164541Y-114983874D02*
X124355017Y-115031493D01*
X124355017Y-115031493D02*
X124497875Y-115126731D01*
X124497875Y-115126731D02*
X124593113Y-115269588D01*
X124593113Y-115269588D02*
X124640732Y-115460064D01*
X124640732Y-115460064D02*
X124593113Y-115650540D01*
X124593113Y-115650540D02*
X124497875Y-115793398D01*
X124450256Y-116698159D02*
X124497875Y-116602921D01*
X124497875Y-116602921D02*
X124497875Y-116412445D01*
X124497875Y-116412445D02*
X124450256Y-116317207D01*
X124450256Y-116317207D02*
X124355017Y-116269588D01*
X124355017Y-116269588D02*
X123974065Y-116269588D01*
X123974065Y-116269588D02*
X123878827Y-116317207D01*
X123878827Y-116317207D02*
X123831208Y-116412445D01*
X123831208Y-116412445D02*
X123831208Y-116602921D01*
X123831208Y-116602921D02*
X123878827Y-116698159D01*
X123878827Y-116698159D02*
X123974065Y-116745778D01*
X123974065Y-116745778D02*
X124069303Y-116745778D01*
X124069303Y-116745778D02*
X124164541Y-116269588D01*
X124497875Y-117317207D02*
X124450256Y-117221969D01*
X124450256Y-117221969D02*
X124355017Y-117174350D01*
X124355017Y-117174350D02*
X123497875Y-117174350D01*
X123831208Y-117602922D02*
X124497875Y-117841017D01*
X123831208Y-118079112D02*
X124497875Y-117841017D01*
X124497875Y-117841017D02*
X124735970Y-117745779D01*
X124735970Y-117745779D02*
X124783589Y-117698160D01*
X124783589Y-117698160D02*
X124831208Y-117602922D01*
X124450256Y-118412446D02*
X124497875Y-118507684D01*
X124497875Y-118507684D02*
X124497875Y-118698160D01*
X124497875Y-118698160D02*
X124450256Y-118793398D01*
X124450256Y-118793398D02*
X124355017Y-118841017D01*
X124355017Y-118841017D02*
X124307398Y-118841017D01*
X124307398Y-118841017D02*
X124212160Y-118793398D01*
X124212160Y-118793398D02*
X124164541Y-118698160D01*
X124164541Y-118698160D02*
X124164541Y-118555303D01*
X124164541Y-118555303D02*
X124116922Y-118460065D01*
X124116922Y-118460065D02*
X124021684Y-118412446D01*
X124021684Y-118412446D02*
X123974065Y-118412446D01*
X123974065Y-118412446D02*
X123878827Y-118460065D01*
X123878827Y-118460065D02*
X123831208Y-118555303D01*
X123831208Y-118555303D02*
X123831208Y-118698160D01*
X123831208Y-118698160D02*
X123878827Y-118793398D01*
X124497875Y-119269589D02*
X123831208Y-119269589D01*
X123497875Y-119269589D02*
X123545494Y-119221970D01*
X123545494Y-119221970D02*
X123593113Y-119269589D01*
X123593113Y-119269589D02*
X123545494Y-119317208D01*
X123545494Y-119317208D02*
X123497875Y-119269589D01*
X123497875Y-119269589D02*
X123593113Y-119269589D01*
X123831208Y-120174350D02*
X124497875Y-120174350D01*
X123831208Y-119745779D02*
X124355017Y-119745779D01*
X124355017Y-119745779D02*
X124450256Y-119793398D01*
X124450256Y-119793398D02*
X124497875Y-119888636D01*
X124497875Y-119888636D02*
X124497875Y-120031493D01*
X124497875Y-120031493D02*
X124450256Y-120126731D01*
X124450256Y-120126731D02*
X124402636Y-120174350D01*
X124497875Y-120650541D02*
X123831208Y-120650541D01*
X123926446Y-120650541D02*
X123878827Y-120698160D01*
X123878827Y-120698160D02*
X123831208Y-120793398D01*
X123831208Y-120793398D02*
X123831208Y-120936255D01*
X123831208Y-120936255D02*
X123878827Y-121031493D01*
X123878827Y-121031493D02*
X123974065Y-121079112D01*
X123974065Y-121079112D02*
X124497875Y-121079112D01*
X123974065Y-121079112D02*
X123878827Y-121126731D01*
X123878827Y-121126731D02*
X123831208Y-121221969D01*
X123831208Y-121221969D02*
X123831208Y-121364826D01*
X123831208Y-121364826D02*
X123878827Y-121460065D01*
X123878827Y-121460065D02*
X123974065Y-121507684D01*
X123974065Y-121507684D02*
X124497875Y-121507684D01*
X124402636Y-121983874D02*
X124450256Y-122031493D01*
X124450256Y-122031493D02*
X124497875Y-121983874D01*
X124497875Y-121983874D02*
X124450256Y-121936255D01*
X124450256Y-121936255D02*
X124402636Y-121983874D01*
X124402636Y-121983874D02*
X124497875Y-121983874D01*
X123831208Y-122460064D02*
X124831208Y-122460064D01*
X123878827Y-122460064D02*
X123831208Y-122555302D01*
X123831208Y-122555302D02*
X123831208Y-122745778D01*
X123831208Y-122745778D02*
X123878827Y-122841016D01*
X123878827Y-122841016D02*
X123926446Y-122888635D01*
X123926446Y-122888635D02*
X124021684Y-122936254D01*
X124021684Y-122936254D02*
X124307398Y-122936254D01*
X124307398Y-122936254D02*
X124402636Y-122888635D01*
X124402636Y-122888635D02*
X124450256Y-122841016D01*
X124450256Y-122841016D02*
X124497875Y-122745778D01*
X124497875Y-122745778D02*
X124497875Y-122555302D01*
X124497875Y-122555302D02*
X124450256Y-122460064D01*
X124497875Y-123507683D02*
X124450256Y-123412445D01*
X124450256Y-123412445D02*
X124355017Y-123364826D01*
X124355017Y-123364826D02*
X123497875Y-123364826D01*
X123831208Y-123888636D02*
X124116922Y-124650541D01*
X124116922Y-124650541D02*
X124402636Y-123888636D01*
X126107819Y-97745779D02*
X125107819Y-97745779D01*
X125107819Y-98126731D02*
X126107819Y-98793397D01*
X125107819Y-98793397D02*
X126107819Y-98126731D01*
X125203057Y-99888636D02*
X125155438Y-99936255D01*
X125155438Y-99936255D02*
X125107819Y-100031493D01*
X125107819Y-100031493D02*
X125107819Y-100269588D01*
X125107819Y-100269588D02*
X125155438Y-100364826D01*
X125155438Y-100364826D02*
X125203057Y-100412445D01*
X125203057Y-100412445D02*
X125298295Y-100460064D01*
X125298295Y-100460064D02*
X125393533Y-100460064D01*
X125393533Y-100460064D02*
X125536390Y-100412445D01*
X125536390Y-100412445D02*
X126107819Y-99841017D01*
X126107819Y-99841017D02*
X126107819Y-100460064D01*
X125107819Y-101079112D02*
X125107819Y-101174350D01*
X125107819Y-101174350D02*
X125155438Y-101269588D01*
X125155438Y-101269588D02*
X125203057Y-101317207D01*
X125203057Y-101317207D02*
X125298295Y-101364826D01*
X125298295Y-101364826D02*
X125488771Y-101412445D01*
X125488771Y-101412445D02*
X125726866Y-101412445D01*
X125726866Y-101412445D02*
X125917342Y-101364826D01*
X125917342Y-101364826D02*
X126012580Y-101317207D01*
X126012580Y-101317207D02*
X126060200Y-101269588D01*
X126060200Y-101269588D02*
X126107819Y-101174350D01*
X126107819Y-101174350D02*
X126107819Y-101079112D01*
X126107819Y-101079112D02*
X126060200Y-100983874D01*
X126060200Y-100983874D02*
X126012580Y-100936255D01*
X126012580Y-100936255D02*
X125917342Y-100888636D01*
X125917342Y-100888636D02*
X125726866Y-100841017D01*
X125726866Y-100841017D02*
X125488771Y-100841017D01*
X125488771Y-100841017D02*
X125298295Y-100888636D01*
X125298295Y-100888636D02*
X125203057Y-100936255D01*
X125203057Y-100936255D02*
X125155438Y-100983874D01*
X125155438Y-100983874D02*
X125107819Y-101079112D01*
X125203057Y-101793398D02*
X125155438Y-101841017D01*
X125155438Y-101841017D02*
X125107819Y-101936255D01*
X125107819Y-101936255D02*
X125107819Y-102174350D01*
X125107819Y-102174350D02*
X125155438Y-102269588D01*
X125155438Y-102269588D02*
X125203057Y-102317207D01*
X125203057Y-102317207D02*
X125298295Y-102364826D01*
X125298295Y-102364826D02*
X125393533Y-102364826D01*
X125393533Y-102364826D02*
X125536390Y-102317207D01*
X125536390Y-102317207D02*
X126107819Y-101745779D01*
X126107819Y-101745779D02*
X126107819Y-102364826D01*
X125107819Y-103221969D02*
X125107819Y-103031493D01*
X125107819Y-103031493D02*
X125155438Y-102936255D01*
X125155438Y-102936255D02*
X125203057Y-102888636D01*
X125203057Y-102888636D02*
X125345914Y-102793398D01*
X125345914Y-102793398D02*
X125536390Y-102745779D01*
X125536390Y-102745779D02*
X125917342Y-102745779D01*
X125917342Y-102745779D02*
X126012580Y-102793398D01*
X126012580Y-102793398D02*
X126060200Y-102841017D01*
X126060200Y-102841017D02*
X126107819Y-102936255D01*
X126107819Y-102936255D02*
X126107819Y-103126731D01*
X126107819Y-103126731D02*
X126060200Y-103221969D01*
X126060200Y-103221969D02*
X126012580Y-103269588D01*
X126012580Y-103269588D02*
X125917342Y-103317207D01*
X125917342Y-103317207D02*
X125679247Y-103317207D01*
X125679247Y-103317207D02*
X125584009Y-103269588D01*
X125584009Y-103269588D02*
X125536390Y-103221969D01*
X125536390Y-103221969D02*
X125488771Y-103126731D01*
X125488771Y-103126731D02*
X125488771Y-102936255D01*
X125488771Y-102936255D02*
X125536390Y-102841017D01*
X125536390Y-102841017D02*
X125584009Y-102793398D01*
X125584009Y-102793398D02*
X125679247Y-102745779D01*
X86619048Y-56508866D02*
X87380953Y-56508866D01*
X87000000Y-56889819D02*
X87000000Y-56127914D01*
X92619048Y-56508866D02*
X93380953Y-56508866D01*
X128595333Y-132550819D02*
X128595333Y-133265104D01*
X128595333Y-133265104D02*
X128642952Y-133407961D01*
X128642952Y-133407961D02*
X128738190Y-133503200D01*
X128738190Y-133503200D02*
X128881047Y-133550819D01*
X128881047Y-133550819D02*
X128976285Y-133550819D01*
X128119142Y-133550819D02*
X128119142Y-132550819D01*
X128119142Y-132550819D02*
X127738190Y-132550819D01*
X127738190Y-132550819D02*
X127642952Y-132598438D01*
X127642952Y-132598438D02*
X127595333Y-132646057D01*
X127595333Y-132646057D02*
X127547714Y-132741295D01*
X127547714Y-132741295D02*
X127547714Y-132884152D01*
X127547714Y-132884152D02*
X127595333Y-132979390D01*
X127595333Y-132979390D02*
X127642952Y-133027009D01*
X127642952Y-133027009D02*
X127738190Y-133074628D01*
X127738190Y-133074628D02*
X128119142Y-133074628D01*
X127214380Y-132550819D02*
X126595333Y-132550819D01*
X126595333Y-132550819D02*
X126928666Y-132931771D01*
X126928666Y-132931771D02*
X126785809Y-132931771D01*
X126785809Y-132931771D02*
X126690571Y-132979390D01*
X126690571Y-132979390D02*
X126642952Y-133027009D01*
X126642952Y-133027009D02*
X126595333Y-133122247D01*
X126595333Y-133122247D02*
X126595333Y-133360342D01*
X126595333Y-133360342D02*
X126642952Y-133455580D01*
X126642952Y-133455580D02*
X126690571Y-133503200D01*
X126690571Y-133503200D02*
X126785809Y-133550819D01*
X126785809Y-133550819D02*
X127071523Y-133550819D01*
X127071523Y-133550819D02*
X127166761Y-133503200D01*
X127166761Y-133503200D02*
X127214380Y-133455580D01*
X127216819Y-138948667D02*
X127216819Y-139567714D01*
X127216819Y-139567714D02*
X127597771Y-139234381D01*
X127597771Y-139234381D02*
X127597771Y-139377238D01*
X127597771Y-139377238D02*
X127645390Y-139472476D01*
X127645390Y-139472476D02*
X127693009Y-139520095D01*
X127693009Y-139520095D02*
X127788247Y-139567714D01*
X127788247Y-139567714D02*
X128026342Y-139567714D01*
X128026342Y-139567714D02*
X128121580Y-139520095D01*
X128121580Y-139520095D02*
X128169200Y-139472476D01*
X128169200Y-139472476D02*
X128216819Y-139377238D01*
X128216819Y-139377238D02*
X128216819Y-139091524D01*
X128216819Y-139091524D02*
X128169200Y-138996286D01*
X128169200Y-138996286D02*
X128121580Y-138948667D01*
X128216819Y-134367714D02*
X128216819Y-133796286D01*
X128216819Y-134082000D02*
X127216819Y-134082000D01*
X127216819Y-134082000D02*
X127359676Y-133986762D01*
X127359676Y-133986762D02*
X127454914Y-133891524D01*
X127454914Y-133891524D02*
X127502533Y-133796286D01*
X126055333Y-132550819D02*
X126055333Y-133265104D01*
X126055333Y-133265104D02*
X126102952Y-133407961D01*
X126102952Y-133407961D02*
X126198190Y-133503200D01*
X126198190Y-133503200D02*
X126341047Y-133550819D01*
X126341047Y-133550819D02*
X126436285Y-133550819D01*
X125579142Y-133550819D02*
X125579142Y-132550819D01*
X125579142Y-132550819D02*
X125198190Y-132550819D01*
X125198190Y-132550819D02*
X125102952Y-132598438D01*
X125102952Y-132598438D02*
X125055333Y-132646057D01*
X125055333Y-132646057D02*
X125007714Y-132741295D01*
X125007714Y-132741295D02*
X125007714Y-132884152D01*
X125007714Y-132884152D02*
X125055333Y-132979390D01*
X125055333Y-132979390D02*
X125102952Y-133027009D01*
X125102952Y-133027009D02*
X125198190Y-133074628D01*
X125198190Y-133074628D02*
X125579142Y-133074628D01*
X124055333Y-133550819D02*
X124626761Y-133550819D01*
X124341047Y-133550819D02*
X124341047Y-132550819D01*
X124341047Y-132550819D02*
X124436285Y-132693676D01*
X124436285Y-132693676D02*
X124531523Y-132788914D01*
X124531523Y-132788914D02*
X124626761Y-132836533D01*
X125676819Y-134367714D02*
X125676819Y-133796286D01*
X125676819Y-134082000D02*
X124676819Y-134082000D01*
X124676819Y-134082000D02*
X124819676Y-133986762D01*
X124819676Y-133986762D02*
X124914914Y-133891524D01*
X124914914Y-133891524D02*
X124962533Y-133796286D01*
X124676819Y-138948667D02*
X124676819Y-139567714D01*
X124676819Y-139567714D02*
X125057771Y-139234381D01*
X125057771Y-139234381D02*
X125057771Y-139377238D01*
X125057771Y-139377238D02*
X125105390Y-139472476D01*
X125105390Y-139472476D02*
X125153009Y-139520095D01*
X125153009Y-139520095D02*
X125248247Y-139567714D01*
X125248247Y-139567714D02*
X125486342Y-139567714D01*
X125486342Y-139567714D02*
X125581580Y-139520095D01*
X125581580Y-139520095D02*
X125629200Y-139472476D01*
X125629200Y-139472476D02*
X125676819Y-139377238D01*
X125676819Y-139377238D02*
X125676819Y-139091524D01*
X125676819Y-139091524D02*
X125629200Y-138996286D01*
X125629200Y-138996286D02*
X125581580Y-138948667D01*
X131135333Y-132550819D02*
X131135333Y-133265104D01*
X131135333Y-133265104D02*
X131182952Y-133407961D01*
X131182952Y-133407961D02*
X131278190Y-133503200D01*
X131278190Y-133503200D02*
X131421047Y-133550819D01*
X131421047Y-133550819D02*
X131516285Y-133550819D01*
X130659142Y-133550819D02*
X130659142Y-132550819D01*
X130659142Y-132550819D02*
X130278190Y-132550819D01*
X130278190Y-132550819D02*
X130182952Y-132598438D01*
X130182952Y-132598438D02*
X130135333Y-132646057D01*
X130135333Y-132646057D02*
X130087714Y-132741295D01*
X130087714Y-132741295D02*
X130087714Y-132884152D01*
X130087714Y-132884152D02*
X130135333Y-132979390D01*
X130135333Y-132979390D02*
X130182952Y-133027009D01*
X130182952Y-133027009D02*
X130278190Y-133074628D01*
X130278190Y-133074628D02*
X130659142Y-133074628D01*
X129706761Y-132646057D02*
X129659142Y-132598438D01*
X129659142Y-132598438D02*
X129563904Y-132550819D01*
X129563904Y-132550819D02*
X129325809Y-132550819D01*
X129325809Y-132550819D02*
X129230571Y-132598438D01*
X129230571Y-132598438D02*
X129182952Y-132646057D01*
X129182952Y-132646057D02*
X129135333Y-132741295D01*
X129135333Y-132741295D02*
X129135333Y-132836533D01*
X129135333Y-132836533D02*
X129182952Y-132979390D01*
X129182952Y-132979390D02*
X129754380Y-133550819D01*
X129754380Y-133550819D02*
X129135333Y-133550819D01*
X129756819Y-138948667D02*
X129756819Y-139567714D01*
X129756819Y-139567714D02*
X130137771Y-139234381D01*
X130137771Y-139234381D02*
X130137771Y-139377238D01*
X130137771Y-139377238D02*
X130185390Y-139472476D01*
X130185390Y-139472476D02*
X130233009Y-139520095D01*
X130233009Y-139520095D02*
X130328247Y-139567714D01*
X130328247Y-139567714D02*
X130566342Y-139567714D01*
X130566342Y-139567714D02*
X130661580Y-139520095D01*
X130661580Y-139520095D02*
X130709200Y-139472476D01*
X130709200Y-139472476D02*
X130756819Y-139377238D01*
X130756819Y-139377238D02*
X130756819Y-139091524D01*
X130756819Y-139091524D02*
X130709200Y-138996286D01*
X130709200Y-138996286D02*
X130661580Y-138948667D01*
X130756819Y-134367714D02*
X130756819Y-133796286D01*
X130756819Y-134082000D02*
X129756819Y-134082000D01*
X129756819Y-134082000D02*
X129899676Y-133986762D01*
X129899676Y-133986762D02*
X129994914Y-133891524D01*
X129994914Y-133891524D02*
X130042533Y-133796286D01*
%TO.C,SYM1*%
X90000000Y-56498500D02*
X88000000Y-56498500D01*
X91068500Y-56498500D02*
X91968500Y-56498500D01*
X89250000Y-55823500D02*
G75*
G02*
X89325000Y-57248500I750000J-675000D01*
G01*
X87940500Y-56498500D02*
G75*
G02*
X86090500Y-56498500I-925000J0D01*
G01*
X86090500Y-56498500D02*
G75*
G02*
X87940500Y-56498500I925000J0D01*
G01*
D11*
X90175000Y-56498500D02*
G75*
G02*
X89825000Y-56498500I-175000J0D01*
G01*
X89825000Y-56498500D02*
G75*
G02*
X90175000Y-56498500I175000J0D01*
G01*
D10*
X93909500Y-56498500D02*
G75*
G02*
X92059500Y-56498500I-925000J0D01*
G01*
X92059500Y-56498500D02*
G75*
G02*
X93909500Y-56498500I925000J0D01*
G01*
D12*
%TO.C,REF2*%
X81072406Y-122289949D02*
X81098127Y-122305647D01*
X81124778Y-122327227D01*
X81124778Y-122974684D01*
X81098127Y-122996264D01*
X81066767Y-123013739D01*
X81030966Y-123014575D01*
X80999528Y-122994082D01*
X80995652Y-122989416D01*
X80990186Y-122979949D01*
X80985979Y-122966267D01*
X80982867Y-122945748D01*
X80980687Y-122915768D01*
X80979276Y-122873704D01*
X80978471Y-122816932D01*
X80978107Y-122742830D01*
X80978022Y-122648773D01*
X80978022Y-122327227D01*
X81004673Y-122305647D01*
X81028386Y-122290877D01*
X81051400Y-122284067D01*
X81072406Y-122289949D01*
G36*
X81072406Y-122289949D02*
G01*
X81098127Y-122305647D01*
X81124778Y-122327227D01*
X81124778Y-122974684D01*
X81098127Y-122996264D01*
X81066767Y-123013739D01*
X81030966Y-123014575D01*
X80999528Y-122994082D01*
X80995652Y-122989416D01*
X80990186Y-122979949D01*
X80985979Y-122966267D01*
X80982867Y-122945748D01*
X80980687Y-122915768D01*
X80979276Y-122873704D01*
X80978471Y-122816932D01*
X80978107Y-122742830D01*
X80978022Y-122648773D01*
X80978022Y-122327227D01*
X81004673Y-122305647D01*
X81028386Y-122290877D01*
X81051400Y-122284067D01*
X81072406Y-122289949D01*
G37*
X88203137Y-122288463D02*
X88237291Y-122311776D01*
X88265000Y-122339485D01*
X88265000Y-122652537D01*
X88264959Y-122736567D01*
X88264701Y-122810789D01*
X88264030Y-122867541D01*
X88262752Y-122909512D01*
X88260673Y-122939389D01*
X88257599Y-122959861D01*
X88253334Y-122973614D01*
X88247684Y-122983337D01*
X88240455Y-122991717D01*
X88208991Y-123013181D01*
X88173826Y-123014947D01*
X88140822Y-122995267D01*
X88135516Y-122989398D01*
X88130066Y-122980314D01*
X88125900Y-122966973D01*
X88122846Y-122946757D01*
X88120732Y-122917049D01*
X88119386Y-122875232D01*
X88118638Y-122818689D01*
X88118314Y-122744802D01*
X88118245Y-122650956D01*
X88118284Y-122575294D01*
X88118539Y-122497385D01*
X88119183Y-122437375D01*
X88120387Y-122392648D01*
X88122324Y-122360585D01*
X88125164Y-122338571D01*
X88129079Y-122323987D01*
X88134242Y-122314218D01*
X88140822Y-122306645D01*
X88170006Y-122287623D01*
X88203137Y-122288463D01*
G36*
X88203137Y-122288463D02*
G01*
X88237291Y-122311776D01*
X88265000Y-122339485D01*
X88265000Y-122652537D01*
X88264959Y-122736567D01*
X88264701Y-122810789D01*
X88264030Y-122867541D01*
X88262752Y-122909512D01*
X88260673Y-122939389D01*
X88257599Y-122959861D01*
X88253334Y-122973614D01*
X88247684Y-122983337D01*
X88240455Y-122991717D01*
X88208991Y-123013181D01*
X88173826Y-123014947D01*
X88140822Y-122995267D01*
X88135516Y-122989398D01*
X88130066Y-122980314D01*
X88125900Y-122966973D01*
X88122846Y-122946757D01*
X88120732Y-122917049D01*
X88119386Y-122875232D01*
X88118638Y-122818689D01*
X88118314Y-122744802D01*
X88118245Y-122650956D01*
X88118284Y-122575294D01*
X88118539Y-122497385D01*
X88119183Y-122437375D01*
X88120387Y-122392648D01*
X88122324Y-122360585D01*
X88125164Y-122338571D01*
X88129079Y-122323987D01*
X88134242Y-122314218D01*
X88140822Y-122306645D01*
X88170006Y-122287623D01*
X88203137Y-122288463D01*
G37*
X87671562Y-117047850D02*
X87754313Y-117075053D01*
X87829406Y-117120484D01*
X87901298Y-117186302D01*
X87939846Y-117230567D01*
X87979256Y-117288961D01*
X88004446Y-117349586D01*
X88017861Y-117418865D01*
X88021948Y-117503222D01*
X88021669Y-117549307D01*
X88019460Y-117590450D01*
X88013894Y-117622582D01*
X88003586Y-117653122D01*
X87987148Y-117689489D01*
X87973200Y-117716728D01*
X87914665Y-117802429D01*
X87842619Y-117871617D01*
X87758947Y-117922741D01*
X87665531Y-117954250D01*
X87632434Y-117961225D01*
X87591960Y-117968094D01*
X87558999Y-117969919D01*
X87524698Y-117966947D01*
X87480200Y-117959426D01*
X87428934Y-117947002D01*
X87338434Y-117909112D01*
X87259345Y-117854836D01*
X87193528Y-117786770D01*
X87142840Y-117707511D01*
X87109140Y-117619654D01*
X87094286Y-117525795D01*
X87100136Y-117428530D01*
X87126399Y-117332220D01*
X87171418Y-117243494D01*
X87232373Y-117168419D01*
X87307184Y-117108641D01*
X87393768Y-117065809D01*
X87490043Y-117041571D01*
X87593928Y-117037576D01*
X87671562Y-117047850D01*
G36*
X87671562Y-117047850D02*
G01*
X87754313Y-117075053D01*
X87829406Y-117120484D01*
X87901298Y-117186302D01*
X87939846Y-117230567D01*
X87979256Y-117288961D01*
X88004446Y-117349586D01*
X88017861Y-117418865D01*
X88021948Y-117503222D01*
X88021669Y-117549307D01*
X88019460Y-117590450D01*
X88013894Y-117622582D01*
X88003586Y-117653122D01*
X87987148Y-117689489D01*
X87973200Y-117716728D01*
X87914665Y-117802429D01*
X87842619Y-117871617D01*
X87758947Y-117922741D01*
X87665531Y-117954250D01*
X87632434Y-117961225D01*
X87591960Y-117968094D01*
X87558999Y-117969919D01*
X87524698Y-117966947D01*
X87480200Y-117959426D01*
X87428934Y-117947002D01*
X87338434Y-117909112D01*
X87259345Y-117854836D01*
X87193528Y-117786770D01*
X87142840Y-117707511D01*
X87109140Y-117619654D01*
X87094286Y-117525795D01*
X87100136Y-117428530D01*
X87126399Y-117332220D01*
X87171418Y-117243494D01*
X87232373Y-117168419D01*
X87307184Y-117108641D01*
X87393768Y-117065809D01*
X87490043Y-117041571D01*
X87593928Y-117037576D01*
X87671562Y-117047850D01*
G37*
X80372767Y-122284068D02*
X80466890Y-122284158D01*
X80541405Y-122284498D01*
X80598811Y-122285239D01*
X80641611Y-122286535D01*
X80672304Y-122288537D01*
X80693391Y-122291396D01*
X80707373Y-122295266D01*
X80716750Y-122300298D01*
X80724022Y-122306645D01*
X80742828Y-122339362D01*
X80744275Y-122376939D01*
X80727917Y-122410178D01*
X80726557Y-122411631D01*
X80715354Y-122419992D01*
X80698252Y-122425547D01*
X80671082Y-122428840D01*
X80629678Y-122430418D01*
X80569873Y-122430822D01*
X80430511Y-122430822D01*
X80430511Y-122694589D01*
X80430436Y-122770417D01*
X80430028Y-122837083D01*
X80429046Y-122886867D01*
X80427250Y-122922784D01*
X80424399Y-122947850D01*
X80420253Y-122965081D01*
X80414571Y-122977492D01*
X80407114Y-122988100D01*
X80404824Y-122990906D01*
X80373646Y-123013548D01*
X80339266Y-123015112D01*
X80306334Y-122995267D01*
X80299355Y-122987191D01*
X80293883Y-122976593D01*
X80289863Y-122960749D01*
X80287072Y-122936773D01*
X80285288Y-122901774D01*
X80284289Y-122852864D01*
X80283852Y-122787154D01*
X80283756Y-122701756D01*
X80283756Y-122430822D01*
X80137820Y-122430822D01*
X80126720Y-122430821D01*
X80070202Y-122430596D01*
X80031358Y-122429457D01*
X80005965Y-122426657D01*
X79989804Y-122421450D01*
X79978652Y-122413089D01*
X79968289Y-122400826D01*
X79952441Y-122370138D01*
X79955543Y-122336358D01*
X79981187Y-122303822D01*
X79986129Y-122300105D01*
X79996338Y-122295269D01*
X80011764Y-122291506D01*
X80034886Y-122288683D01*
X80068183Y-122286670D01*
X80114137Y-122285333D01*
X80175228Y-122284542D01*
X80253935Y-122284163D01*
X80352740Y-122284067D01*
X80372767Y-122284068D01*
G36*
X80372767Y-122284068D02*
G01*
X80466890Y-122284158D01*
X80541405Y-122284498D01*
X80598811Y-122285239D01*
X80641611Y-122286535D01*
X80672304Y-122288537D01*
X80693391Y-122291396D01*
X80707373Y-122295266D01*
X80716750Y-122300298D01*
X80724022Y-122306645D01*
X80742828Y-122339362D01*
X80744275Y-122376939D01*
X80727917Y-122410178D01*
X80726557Y-122411631D01*
X80715354Y-122419992D01*
X80698252Y-122425547D01*
X80671082Y-122428840D01*
X80629678Y-122430418D01*
X80569873Y-122430822D01*
X80430511Y-122430822D01*
X80430511Y-122694589D01*
X80430436Y-122770417D01*
X80430028Y-122837083D01*
X80429046Y-122886867D01*
X80427250Y-122922784D01*
X80424399Y-122947850D01*
X80420253Y-122965081D01*
X80414571Y-122977492D01*
X80407114Y-122988100D01*
X80404824Y-122990906D01*
X80373646Y-123013548D01*
X80339266Y-123015112D01*
X80306334Y-122995267D01*
X80299355Y-122987191D01*
X80293883Y-122976593D01*
X80289863Y-122960749D01*
X80287072Y-122936773D01*
X80285288Y-122901774D01*
X80284289Y-122852864D01*
X80283852Y-122787154D01*
X80283756Y-122701756D01*
X80283756Y-122430822D01*
X80137820Y-122430822D01*
X80126720Y-122430821D01*
X80070202Y-122430596D01*
X80031358Y-122429457D01*
X80005965Y-122426657D01*
X79989804Y-122421450D01*
X79978652Y-122413089D01*
X79968289Y-122400826D01*
X79952441Y-122370138D01*
X79955543Y-122336358D01*
X79981187Y-122303822D01*
X79986129Y-122300105D01*
X79996338Y-122295269D01*
X80011764Y-122291506D01*
X80034886Y-122288683D01*
X80068183Y-122286670D01*
X80114137Y-122285333D01*
X80175228Y-122284542D01*
X80253935Y-122284163D01*
X80352740Y-122284067D01*
X80372767Y-122284068D01*
G37*
X79696734Y-122306645D02*
X79702366Y-122312835D01*
X79707456Y-122321041D01*
X79711543Y-122332817D01*
X79714721Y-122350276D01*
X79717087Y-122375530D01*
X79718738Y-122410690D01*
X79719769Y-122457869D01*
X79720277Y-122519177D01*
X79720359Y-122596727D01*
X79720109Y-122692631D01*
X79719625Y-122809000D01*
X79719557Y-122823175D01*
X79718971Y-122884937D01*
X79717648Y-122928620D01*
X79715103Y-122958001D01*
X79710848Y-122976855D01*
X79704396Y-122988959D01*
X79695262Y-122998089D01*
X79661804Y-123015506D01*
X79626856Y-123012604D01*
X79595953Y-122988100D01*
X79586944Y-122974897D01*
X79579492Y-122956361D01*
X79575124Y-122930333D01*
X79573069Y-122891787D01*
X79572556Y-122835700D01*
X79572556Y-122713045D01*
X79075845Y-122713045D01*
X79075845Y-122847871D01*
X79075772Y-122883662D01*
X79075009Y-122929992D01*
X79072833Y-122960526D01*
X79068536Y-122979557D01*
X79061412Y-122991374D01*
X79050755Y-123000271D01*
X79018504Y-123015341D01*
X78983217Y-123012673D01*
X78952486Y-122988100D01*
X78947831Y-122981845D01*
X78941895Y-122971321D01*
X78937364Y-122957391D01*
X78934048Y-122937317D01*
X78931759Y-122908360D01*
X78930308Y-122867780D01*
X78929505Y-122812840D01*
X78929162Y-122740799D01*
X78929089Y-122648920D01*
X78929089Y-122339485D01*
X78956798Y-122311776D01*
X78988177Y-122289533D01*
X79021406Y-122286844D01*
X79053267Y-122306645D01*
X79061553Y-122316415D01*
X79068965Y-122332307D01*
X79073302Y-122356275D01*
X79075338Y-122393148D01*
X79075845Y-122447756D01*
X79075845Y-122566289D01*
X79572556Y-122566289D01*
X79572556Y-122450776D01*
X79572994Y-122399078D01*
X79574958Y-122364554D01*
X79579474Y-122341978D01*
X79587567Y-122326126D01*
X79600265Y-122311776D01*
X79631643Y-122289533D01*
X79664872Y-122286844D01*
X79696734Y-122306645D01*
G36*
X79696734Y-122306645D02*
G01*
X79702366Y-122312835D01*
X79707456Y-122321041D01*
X79711543Y-122332817D01*
X79714721Y-122350276D01*
X79717087Y-122375530D01*
X79718738Y-122410690D01*
X79719769Y-122457869D01*
X79720277Y-122519177D01*
X79720359Y-122596727D01*
X79720109Y-122692631D01*
X79719625Y-122809000D01*
X79719557Y-122823175D01*
X79718971Y-122884937D01*
X79717648Y-122928620D01*
X79715103Y-122958001D01*
X79710848Y-122976855D01*
X79704396Y-122988959D01*
X79695262Y-122998089D01*
X79661804Y-123015506D01*
X79626856Y-123012604D01*
X79595953Y-122988100D01*
X79586944Y-122974897D01*
X79579492Y-122956361D01*
X79575124Y-122930333D01*
X79573069Y-122891787D01*
X79572556Y-122835700D01*
X79572556Y-122713045D01*
X79075845Y-122713045D01*
X79075845Y-122847871D01*
X79075772Y-122883662D01*
X79075009Y-122929992D01*
X79072833Y-122960526D01*
X79068536Y-122979557D01*
X79061412Y-122991374D01*
X79050755Y-123000271D01*
X79018504Y-123015341D01*
X78983217Y-123012673D01*
X78952486Y-122988100D01*
X78947831Y-122981845D01*
X78941895Y-122971321D01*
X78937364Y-122957391D01*
X78934048Y-122937317D01*
X78931759Y-122908360D01*
X78930308Y-122867780D01*
X78929505Y-122812840D01*
X78929162Y-122740799D01*
X78929089Y-122648920D01*
X78929089Y-122339485D01*
X78956798Y-122311776D01*
X78988177Y-122289533D01*
X79021406Y-122286844D01*
X79053267Y-122306645D01*
X79061553Y-122316415D01*
X79068965Y-122332307D01*
X79073302Y-122356275D01*
X79075338Y-122393148D01*
X79075845Y-122447756D01*
X79075845Y-122566289D01*
X79572556Y-122566289D01*
X79572556Y-122450776D01*
X79572994Y-122399078D01*
X79574958Y-122364554D01*
X79579474Y-122341978D01*
X79587567Y-122326126D01*
X79600265Y-122311776D01*
X79631643Y-122289533D01*
X79664872Y-122286844D01*
X79696734Y-122306645D01*
G37*
X84402133Y-122895396D02*
X84400163Y-122928175D01*
X84397235Y-122951095D01*
X84393158Y-122966897D01*
X84387743Y-122978319D01*
X84380803Y-122988100D01*
X84357406Y-123017845D01*
X84191714Y-123017251D01*
X84156918Y-123016953D01*
X84058435Y-123013522D01*
X83977473Y-123005839D01*
X83910379Y-122993282D01*
X83853496Y-122975227D01*
X83803169Y-122951052D01*
X83799810Y-122949135D01*
X83741998Y-122912417D01*
X83699644Y-122875451D01*
X83666828Y-122831966D01*
X83637628Y-122775689D01*
X83633346Y-122766073D01*
X83610769Y-122702887D01*
X83605034Y-122657333D01*
X83754279Y-122657333D01*
X83759892Y-122682061D01*
X83765618Y-122697939D01*
X83798548Y-122757847D01*
X83845886Y-122803600D01*
X83909652Y-122836736D01*
X83991861Y-122858790D01*
X83994655Y-122859292D01*
X84040940Y-122865255D01*
X84097336Y-122869483D01*
X84152274Y-122871089D01*
X84246156Y-122871089D01*
X84246156Y-122430822D01*
X84158667Y-122431270D01*
X84091747Y-122433746D01*
X83999349Y-122444998D01*
X83920034Y-122464537D01*
X83858060Y-122491511D01*
X83827120Y-122512240D01*
X83799000Y-122542006D01*
X83775660Y-122584434D01*
X83768533Y-122600400D01*
X83756709Y-122632902D01*
X83754279Y-122657333D01*
X83605034Y-122657333D01*
X83603797Y-122647509D01*
X83612399Y-122592483D01*
X83636541Y-122530351D01*
X83637337Y-122528658D01*
X83677788Y-122459236D01*
X83728473Y-122402638D01*
X83791198Y-122358070D01*
X83867774Y-122324741D01*
X83960009Y-122301861D01*
X84069712Y-122288636D01*
X84198691Y-122284275D01*
X84202263Y-122284270D01*
X84262283Y-122284410D01*
X84304214Y-122285446D01*
X84332328Y-122288040D01*
X84350897Y-122292853D01*
X84364194Y-122300544D01*
X84376491Y-122311776D01*
X84404200Y-122339485D01*
X84404200Y-122648920D01*
X84404175Y-122710526D01*
X84403950Y-122789311D01*
X84403332Y-122850021D01*
X84402775Y-122871089D01*
X84402133Y-122895396D01*
G36*
X84402133Y-122895396D02*
G01*
X84400163Y-122928175D01*
X84397235Y-122951095D01*
X84393158Y-122966897D01*
X84387743Y-122978319D01*
X84380803Y-122988100D01*
X84357406Y-123017845D01*
X84191714Y-123017251D01*
X84156918Y-123016953D01*
X84058435Y-123013522D01*
X83977473Y-123005839D01*
X83910379Y-122993282D01*
X83853496Y-122975227D01*
X83803169Y-122951052D01*
X83799810Y-122949135D01*
X83741998Y-122912417D01*
X83699644Y-122875451D01*
X83666828Y-122831966D01*
X83637628Y-122775689D01*
X83633346Y-122766073D01*
X83610769Y-122702887D01*
X83605034Y-122657333D01*
X83754279Y-122657333D01*
X83759892Y-122682061D01*
X83765618Y-122697939D01*
X83798548Y-122757847D01*
X83845886Y-122803600D01*
X83909652Y-122836736D01*
X83991861Y-122858790D01*
X83994655Y-122859292D01*
X84040940Y-122865255D01*
X84097336Y-122869483D01*
X84152274Y-122871089D01*
X84246156Y-122871089D01*
X84246156Y-122430822D01*
X84158667Y-122431270D01*
X84091747Y-122433746D01*
X83999349Y-122444998D01*
X83920034Y-122464537D01*
X83858060Y-122491511D01*
X83827120Y-122512240D01*
X83799000Y-122542006D01*
X83775660Y-122584434D01*
X83768533Y-122600400D01*
X83756709Y-122632902D01*
X83754279Y-122657333D01*
X83605034Y-122657333D01*
X83603797Y-122647509D01*
X83612399Y-122592483D01*
X83636541Y-122530351D01*
X83637337Y-122528658D01*
X83677788Y-122459236D01*
X83728473Y-122402638D01*
X83791198Y-122358070D01*
X83867774Y-122324741D01*
X83960009Y-122301861D01*
X84069712Y-122288636D01*
X84198691Y-122284275D01*
X84202263Y-122284270D01*
X84262283Y-122284410D01*
X84304214Y-122285446D01*
X84332328Y-122288040D01*
X84350897Y-122292853D01*
X84364194Y-122300544D01*
X84376491Y-122311776D01*
X84404200Y-122339485D01*
X84404200Y-122648920D01*
X84404175Y-122710526D01*
X84403950Y-122789311D01*
X84403332Y-122850021D01*
X84402775Y-122871089D01*
X84402133Y-122895396D01*
G37*
X91493817Y-122469427D02*
X91493870Y-122550041D01*
X91493622Y-122650956D01*
X91493583Y-122726617D01*
X91493328Y-122804526D01*
X91492684Y-122864536D01*
X91491480Y-122909264D01*
X91489543Y-122941326D01*
X91486703Y-122963340D01*
X91482788Y-122977924D01*
X91477626Y-122987694D01*
X91471045Y-122995267D01*
X91464077Y-123001501D01*
X91451079Y-123008801D01*
X91431931Y-123013554D01*
X91402528Y-123016292D01*
X91358762Y-123017545D01*
X91296528Y-123017845D01*
X91247582Y-123017469D01*
X91140722Y-123013041D01*
X91051494Y-123002953D01*
X90976696Y-122986365D01*
X90913125Y-122962435D01*
X90857579Y-122930321D01*
X90806854Y-122889182D01*
X90800866Y-122883330D01*
X90763999Y-122834821D01*
X90732899Y-122774013D01*
X90711417Y-122709769D01*
X90706136Y-122671026D01*
X90853353Y-122671026D01*
X90871635Y-122721961D01*
X90901305Y-122767878D01*
X90948002Y-122810287D01*
X91009392Y-122840090D01*
X91088538Y-122859226D01*
X91090028Y-122859464D01*
X91138999Y-122865256D01*
X91197693Y-122869396D01*
X91253734Y-122871004D01*
X91346867Y-122871089D01*
X91346867Y-122430822D01*
X91270667Y-122430808D01*
X91267639Y-122430817D01*
X91216519Y-122432782D01*
X91156416Y-122437507D01*
X91099708Y-122444035D01*
X91049750Y-122453331D01*
X90974998Y-122479600D01*
X90917489Y-122518899D01*
X90875988Y-122571933D01*
X90854771Y-122623200D01*
X90853353Y-122671026D01*
X90706136Y-122671026D01*
X90703400Y-122650956D01*
X90704679Y-122629739D01*
X90716991Y-122572323D01*
X90739520Y-122512413D01*
X90768750Y-122458363D01*
X90801167Y-122418532D01*
X90820708Y-122401510D01*
X90875420Y-122362322D01*
X90935723Y-122332193D01*
X91004919Y-122310232D01*
X91086311Y-122295550D01*
X91183200Y-122287259D01*
X91298889Y-122284467D01*
X91338371Y-122284066D01*
X91384082Y-122283653D01*
X91419883Y-122285457D01*
X91446974Y-122291739D01*
X91466556Y-122304759D01*
X91479830Y-122326778D01*
X91487998Y-122360055D01*
X91492260Y-122406851D01*
X91492857Y-122430822D01*
X91493817Y-122469427D01*
G36*
X91493817Y-122469427D02*
G01*
X91493870Y-122550041D01*
X91493622Y-122650956D01*
X91493583Y-122726617D01*
X91493328Y-122804526D01*
X91492684Y-122864536D01*
X91491480Y-122909264D01*
X91489543Y-122941326D01*
X91486703Y-122963340D01*
X91482788Y-122977924D01*
X91477626Y-122987694D01*
X91471045Y-122995267D01*
X91464077Y-123001501D01*
X91451079Y-123008801D01*
X91431931Y-123013554D01*
X91402528Y-123016292D01*
X91358762Y-123017545D01*
X91296528Y-123017845D01*
X91247582Y-123017469D01*
X91140722Y-123013041D01*
X91051494Y-123002953D01*
X90976696Y-122986365D01*
X90913125Y-122962435D01*
X90857579Y-122930321D01*
X90806854Y-122889182D01*
X90800866Y-122883330D01*
X90763999Y-122834821D01*
X90732899Y-122774013D01*
X90711417Y-122709769D01*
X90706136Y-122671026D01*
X90853353Y-122671026D01*
X90871635Y-122721961D01*
X90901305Y-122767878D01*
X90948002Y-122810287D01*
X91009392Y-122840090D01*
X91088538Y-122859226D01*
X91090028Y-122859464D01*
X91138999Y-122865256D01*
X91197693Y-122869396D01*
X91253734Y-122871004D01*
X91346867Y-122871089D01*
X91346867Y-122430822D01*
X91270667Y-122430808D01*
X91267639Y-122430817D01*
X91216519Y-122432782D01*
X91156416Y-122437507D01*
X91099708Y-122444035D01*
X91049750Y-122453331D01*
X90974998Y-122479600D01*
X90917489Y-122518899D01*
X90875988Y-122571933D01*
X90854771Y-122623200D01*
X90853353Y-122671026D01*
X90706136Y-122671026D01*
X90703400Y-122650956D01*
X90704679Y-122629739D01*
X90716991Y-122572323D01*
X90739520Y-122512413D01*
X90768750Y-122458363D01*
X90801167Y-122418532D01*
X90820708Y-122401510D01*
X90875420Y-122362322D01*
X90935723Y-122332193D01*
X91004919Y-122310232D01*
X91086311Y-122295550D01*
X91183200Y-122287259D01*
X91298889Y-122284467D01*
X91338371Y-122284066D01*
X91384082Y-122283653D01*
X91419883Y-122285457D01*
X91446974Y-122291739D01*
X91466556Y-122304759D01*
X91479830Y-122326778D01*
X91487998Y-122360055D01*
X91492260Y-122406851D01*
X91492857Y-122430822D01*
X91493817Y-122469427D01*
G37*
X86548893Y-122282892D02*
X86560301Y-122289029D01*
X86570850Y-122299691D01*
X86582136Y-122313811D01*
X86586589Y-122319772D01*
X86592588Y-122330268D01*
X86597167Y-122344093D01*
X86600519Y-122363998D01*
X86602833Y-122392732D01*
X86604301Y-122433045D01*
X86605113Y-122487687D01*
X86605460Y-122559407D01*
X86605534Y-122650956D01*
X86605511Y-122709486D01*
X86605292Y-122788573D01*
X86604683Y-122849516D01*
X86603492Y-122895062D01*
X86601529Y-122927963D01*
X86598603Y-122950968D01*
X86594523Y-122966826D01*
X86589097Y-122978286D01*
X86582136Y-122988100D01*
X86551708Y-123012493D01*
X86516765Y-123015372D01*
X86479784Y-122996282D01*
X86475600Y-122992807D01*
X86467424Y-122984279D01*
X86461364Y-122972728D01*
X86456981Y-122954896D01*
X86453839Y-122927524D01*
X86451502Y-122887354D01*
X86449531Y-122831128D01*
X86447489Y-122755589D01*
X86441845Y-122536458D01*
X86176556Y-122777099D01*
X86102722Y-122843875D01*
X86037542Y-122901991D01*
X85985348Y-122946949D01*
X85944273Y-122979871D01*
X85912455Y-123001879D01*
X85888026Y-123014094D01*
X85869124Y-123017639D01*
X85853883Y-123013636D01*
X85840439Y-123003207D01*
X85826927Y-122987474D01*
X85820682Y-122978991D01*
X85815050Y-122968413D01*
X85810839Y-122954255D01*
X85807887Y-122933803D01*
X85806032Y-122904342D01*
X85805113Y-122863161D01*
X85804968Y-122807544D01*
X85805435Y-122734779D01*
X85806352Y-122642151D01*
X85809667Y-122327199D01*
X85836318Y-122305633D01*
X85862383Y-122289441D01*
X85895241Y-122286670D01*
X85929772Y-122305623D01*
X85934084Y-122309208D01*
X85942216Y-122317737D01*
X85948245Y-122329329D01*
X85952606Y-122347235D01*
X85955734Y-122374706D01*
X85958063Y-122414994D01*
X85960029Y-122471351D01*
X85962067Y-122547029D01*
X85967711Y-122766878D01*
X86148334Y-122603084D01*
X86235072Y-122524451D01*
X86310843Y-122456058D01*
X86372980Y-122400708D01*
X86423078Y-122357338D01*
X86462735Y-122324881D01*
X86493548Y-122302273D01*
X86517114Y-122288448D01*
X86535030Y-122282343D01*
X86548893Y-122282892D01*
G36*
X86548893Y-122282892D02*
G01*
X86560301Y-122289029D01*
X86570850Y-122299691D01*
X86582136Y-122313811D01*
X86586589Y-122319772D01*
X86592588Y-122330268D01*
X86597167Y-122344093D01*
X86600519Y-122363998D01*
X86602833Y-122392732D01*
X86604301Y-122433045D01*
X86605113Y-122487687D01*
X86605460Y-122559407D01*
X86605534Y-122650956D01*
X86605511Y-122709486D01*
X86605292Y-122788573D01*
X86604683Y-122849516D01*
X86603492Y-122895062D01*
X86601529Y-122927963D01*
X86598603Y-122950968D01*
X86594523Y-122966826D01*
X86589097Y-122978286D01*
X86582136Y-122988100D01*
X86551708Y-123012493D01*
X86516765Y-123015372D01*
X86479784Y-122996282D01*
X86475600Y-122992807D01*
X86467424Y-122984279D01*
X86461364Y-122972728D01*
X86456981Y-122954896D01*
X86453839Y-122927524D01*
X86451502Y-122887354D01*
X86449531Y-122831128D01*
X86447489Y-122755589D01*
X86441845Y-122536458D01*
X86176556Y-122777099D01*
X86102722Y-122843875D01*
X86037542Y-122901991D01*
X85985348Y-122946949D01*
X85944273Y-122979871D01*
X85912455Y-123001879D01*
X85888026Y-123014094D01*
X85869124Y-123017639D01*
X85853883Y-123013636D01*
X85840439Y-123003207D01*
X85826927Y-122987474D01*
X85820682Y-122978991D01*
X85815050Y-122968413D01*
X85810839Y-122954255D01*
X85807887Y-122933803D01*
X85806032Y-122904342D01*
X85805113Y-122863161D01*
X85804968Y-122807544D01*
X85805435Y-122734779D01*
X85806352Y-122642151D01*
X85809667Y-122327199D01*
X85836318Y-122305633D01*
X85862383Y-122289441D01*
X85895241Y-122286670D01*
X85929772Y-122305623D01*
X85934084Y-122309208D01*
X85942216Y-122317737D01*
X85948245Y-122329329D01*
X85952606Y-122347235D01*
X85955734Y-122374706D01*
X85958063Y-122414994D01*
X85960029Y-122471351D01*
X85962067Y-122547029D01*
X85967711Y-122766878D01*
X86148334Y-122603084D01*
X86235072Y-122524451D01*
X86310843Y-122456058D01*
X86372980Y-122400708D01*
X86423078Y-122357338D01*
X86462735Y-122324881D01*
X86493548Y-122302273D01*
X86517114Y-122288448D01*
X86535030Y-122282343D01*
X86548893Y-122282892D01*
G37*
X87346150Y-122289179D02*
X87452157Y-122305494D01*
X87545969Y-122333545D01*
X87624765Y-122372452D01*
X87685719Y-122421334D01*
X87711789Y-122454195D01*
X87741297Y-122503394D01*
X87766568Y-122557252D01*
X87784218Y-122608419D01*
X87790858Y-122649544D01*
X87789298Y-122669259D01*
X87776357Y-122720592D01*
X87753194Y-122777118D01*
X87723302Y-122831035D01*
X87690173Y-122874539D01*
X87679977Y-122884887D01*
X87612892Y-122936662D01*
X87532766Y-122976554D01*
X87446556Y-123000956D01*
X87391592Y-123009068D01*
X87298139Y-123015673D01*
X87208358Y-123013586D01*
X87125869Y-123003340D01*
X87054286Y-122985470D01*
X86997228Y-122960508D01*
X86958311Y-122928988D01*
X86956936Y-122927012D01*
X86949848Y-122901786D01*
X86945609Y-122854535D01*
X86944200Y-122785071D01*
X86945060Y-122722838D01*
X86949780Y-122675456D01*
X86961470Y-122643353D01*
X86983239Y-122623800D01*
X87018198Y-122614070D01*
X87069456Y-122611433D01*
X87140123Y-122613161D01*
X87188743Y-122616173D01*
X87238939Y-122624366D01*
X87271433Y-122638419D01*
X87288892Y-122659654D01*
X87293983Y-122689394D01*
X87293877Y-122693936D01*
X87285175Y-122728730D01*
X87261165Y-122752147D01*
X87219900Y-122765347D01*
X87159431Y-122769489D01*
X87090956Y-122769489D01*
X87090956Y-122807841D01*
X87091006Y-122816976D01*
X87093227Y-122834227D01*
X87102494Y-122844521D01*
X87123875Y-122851459D01*
X87162436Y-122858641D01*
X87167910Y-122859575D01*
X87264860Y-122869478D01*
X87354852Y-122866559D01*
X87435760Y-122851829D01*
X87505459Y-122826299D01*
X87561824Y-122790978D01*
X87602729Y-122746879D01*
X87626051Y-122695012D01*
X87629663Y-122636388D01*
X87624145Y-122607494D01*
X87597461Y-122551604D01*
X87551273Y-122505945D01*
X87486291Y-122471108D01*
X87403229Y-122447690D01*
X87378555Y-122443241D01*
X87289226Y-122432742D01*
X87209419Y-122433971D01*
X87131326Y-122446906D01*
X87096183Y-122453696D01*
X87050745Y-122454713D01*
X87019430Y-122442182D01*
X86999277Y-122415395D01*
X86992893Y-122387148D01*
X87002379Y-122355924D01*
X87011708Y-122342499D01*
X87045943Y-122318967D01*
X87098565Y-122301095D01*
X87167081Y-122289599D01*
X87249000Y-122285192D01*
X87346150Y-122289179D01*
G36*
X87346150Y-122289179D02*
G01*
X87452157Y-122305494D01*
X87545969Y-122333545D01*
X87624765Y-122372452D01*
X87685719Y-122421334D01*
X87711789Y-122454195D01*
X87741297Y-122503394D01*
X87766568Y-122557252D01*
X87784218Y-122608419D01*
X87790858Y-122649544D01*
X87789298Y-122669259D01*
X87776357Y-122720592D01*
X87753194Y-122777118D01*
X87723302Y-122831035D01*
X87690173Y-122874539D01*
X87679977Y-122884887D01*
X87612892Y-122936662D01*
X87532766Y-122976554D01*
X87446556Y-123000956D01*
X87391592Y-123009068D01*
X87298139Y-123015673D01*
X87208358Y-123013586D01*
X87125869Y-123003340D01*
X87054286Y-122985470D01*
X86997228Y-122960508D01*
X86958311Y-122928988D01*
X86956936Y-122927012D01*
X86949848Y-122901786D01*
X86945609Y-122854535D01*
X86944200Y-122785071D01*
X86945060Y-122722838D01*
X86949780Y-122675456D01*
X86961470Y-122643353D01*
X86983239Y-122623800D01*
X87018198Y-122614070D01*
X87069456Y-122611433D01*
X87140123Y-122613161D01*
X87188743Y-122616173D01*
X87238939Y-122624366D01*
X87271433Y-122638419D01*
X87288892Y-122659654D01*
X87293983Y-122689394D01*
X87293877Y-122693936D01*
X87285175Y-122728730D01*
X87261165Y-122752147D01*
X87219900Y-122765347D01*
X87159431Y-122769489D01*
X87090956Y-122769489D01*
X87090956Y-122807841D01*
X87091006Y-122816976D01*
X87093227Y-122834227D01*
X87102494Y-122844521D01*
X87123875Y-122851459D01*
X87162436Y-122858641D01*
X87167910Y-122859575D01*
X87264860Y-122869478D01*
X87354852Y-122866559D01*
X87435760Y-122851829D01*
X87505459Y-122826299D01*
X87561824Y-122790978D01*
X87602729Y-122746879D01*
X87626051Y-122695012D01*
X87629663Y-122636388D01*
X87624145Y-122607494D01*
X87597461Y-122551604D01*
X87551273Y-122505945D01*
X87486291Y-122471108D01*
X87403229Y-122447690D01*
X87378555Y-122443241D01*
X87289226Y-122432742D01*
X87209419Y-122433971D01*
X87131326Y-122446906D01*
X87096183Y-122453696D01*
X87050745Y-122454713D01*
X87019430Y-122442182D01*
X86999277Y-122415395D01*
X86992893Y-122387148D01*
X87002379Y-122355924D01*
X87011708Y-122342499D01*
X87045943Y-122318967D01*
X87098565Y-122301095D01*
X87167081Y-122289599D01*
X87249000Y-122285192D01*
X87346150Y-122289179D01*
G37*
X85396803Y-122313811D02*
X85401752Y-122320495D01*
X85407596Y-122331066D01*
X85412057Y-122345153D01*
X85415321Y-122365478D01*
X85417574Y-122394765D01*
X85419002Y-122435737D01*
X85419792Y-122491117D01*
X85420129Y-122563628D01*
X85420200Y-122655994D01*
X85420171Y-122721911D01*
X85419939Y-122800228D01*
X85419319Y-122860496D01*
X85418126Y-122905393D01*
X85416179Y-122937602D01*
X85413294Y-122959800D01*
X85409288Y-122974669D01*
X85403979Y-122984889D01*
X85397183Y-122993138D01*
X85392668Y-122997795D01*
X85384438Y-123004282D01*
X85373078Y-123009194D01*
X85355810Y-123012749D01*
X85329855Y-123015167D01*
X85292436Y-123016667D01*
X85240773Y-123017467D01*
X85172089Y-123017787D01*
X85083606Y-123017845D01*
X85063931Y-123017838D01*
X84976906Y-123017572D01*
X84909254Y-123016806D01*
X84858299Y-123015392D01*
X84821367Y-123013180D01*
X84795783Y-123010022D01*
X84778871Y-123005769D01*
X84767957Y-123000271D01*
X84757464Y-122990285D01*
X84744203Y-122959168D01*
X84745386Y-122923280D01*
X84761550Y-122891733D01*
X84763739Y-122889457D01*
X84772427Y-122883189D01*
X84785769Y-122878523D01*
X84806752Y-122875227D01*
X84838363Y-122873068D01*
X84883590Y-122871814D01*
X84945420Y-122871231D01*
X85026839Y-122871089D01*
X85273445Y-122871089D01*
X85273445Y-122713045D01*
X85111006Y-122713045D01*
X85075338Y-122712964D01*
X85019568Y-122712167D01*
X84980430Y-122710162D01*
X84953976Y-122706521D01*
X84936259Y-122700812D01*
X84923329Y-122692607D01*
X84919686Y-122689423D01*
X84901278Y-122658448D01*
X84900644Y-122622112D01*
X84918183Y-122588493D01*
X84918245Y-122588424D01*
X84927916Y-122579798D01*
X84941209Y-122573742D01*
X84961917Y-122569811D01*
X84993828Y-122567556D01*
X85040734Y-122566531D01*
X85106424Y-122566289D01*
X85274571Y-122566289D01*
X85271186Y-122501378D01*
X85267800Y-122436467D01*
X85025723Y-122433414D01*
X85000707Y-122433086D01*
X84919087Y-122431606D01*
X84856768Y-122429222D01*
X84811154Y-122425227D01*
X84779652Y-122418913D01*
X84759667Y-122409574D01*
X84748604Y-122396503D01*
X84743869Y-122378992D01*
X84742867Y-122356335D01*
X84742873Y-122353970D01*
X84744027Y-122333939D01*
X84748824Y-122318146D01*
X84759632Y-122306090D01*
X84778817Y-122297267D01*
X84808745Y-122291175D01*
X84851783Y-122287311D01*
X84910299Y-122285174D01*
X84986657Y-122284260D01*
X85083226Y-122284067D01*
X85373406Y-122284067D01*
X85396803Y-122313811D01*
G36*
X85396803Y-122313811D02*
G01*
X85401752Y-122320495D01*
X85407596Y-122331066D01*
X85412057Y-122345153D01*
X85415321Y-122365478D01*
X85417574Y-122394765D01*
X85419002Y-122435737D01*
X85419792Y-122491117D01*
X85420129Y-122563628D01*
X85420200Y-122655994D01*
X85420171Y-122721911D01*
X85419939Y-122800228D01*
X85419319Y-122860496D01*
X85418126Y-122905393D01*
X85416179Y-122937602D01*
X85413294Y-122959800D01*
X85409288Y-122974669D01*
X85403979Y-122984889D01*
X85397183Y-122993138D01*
X85392668Y-122997795D01*
X85384438Y-123004282D01*
X85373078Y-123009194D01*
X85355810Y-123012749D01*
X85329855Y-123015167D01*
X85292436Y-123016667D01*
X85240773Y-123017467D01*
X85172089Y-123017787D01*
X85083606Y-123017845D01*
X85063931Y-123017838D01*
X84976906Y-123017572D01*
X84909254Y-123016806D01*
X84858299Y-123015392D01*
X84821367Y-123013180D01*
X84795783Y-123010022D01*
X84778871Y-123005769D01*
X84767957Y-123000271D01*
X84757464Y-122990285D01*
X84744203Y-122959168D01*
X84745386Y-122923280D01*
X84761550Y-122891733D01*
X84763739Y-122889457D01*
X84772427Y-122883189D01*
X84785769Y-122878523D01*
X84806752Y-122875227D01*
X84838363Y-122873068D01*
X84883590Y-122871814D01*
X84945420Y-122871231D01*
X85026839Y-122871089D01*
X85273445Y-122871089D01*
X85273445Y-122713045D01*
X85111006Y-122713045D01*
X85075338Y-122712964D01*
X85019568Y-122712167D01*
X84980430Y-122710162D01*
X84953976Y-122706521D01*
X84936259Y-122700812D01*
X84923329Y-122692607D01*
X84919686Y-122689423D01*
X84901278Y-122658448D01*
X84900644Y-122622112D01*
X84918183Y-122588493D01*
X84918245Y-122588424D01*
X84927916Y-122579798D01*
X84941209Y-122573742D01*
X84961917Y-122569811D01*
X84993828Y-122567556D01*
X85040734Y-122566531D01*
X85106424Y-122566289D01*
X85274571Y-122566289D01*
X85271186Y-122501378D01*
X85267800Y-122436467D01*
X85025723Y-122433414D01*
X85000707Y-122433086D01*
X84919087Y-122431606D01*
X84856768Y-122429222D01*
X84811154Y-122425227D01*
X84779652Y-122418913D01*
X84759667Y-122409574D01*
X84748604Y-122396503D01*
X84743869Y-122378992D01*
X84742867Y-122356335D01*
X84742873Y-122353970D01*
X84744027Y-122333939D01*
X84748824Y-122318146D01*
X84759632Y-122306090D01*
X84778817Y-122297267D01*
X84808745Y-122291175D01*
X84851783Y-122287311D01*
X84910299Y-122285174D01*
X84986657Y-122284260D01*
X85083226Y-122284067D01*
X85373406Y-122284067D01*
X85396803Y-122313811D01*
G37*
X90073734Y-122284083D02*
X90150831Y-122284275D01*
X90209777Y-122284860D01*
X90253364Y-122286051D01*
X90284383Y-122288064D01*
X90305625Y-122291112D01*
X90319882Y-122295409D01*
X90329945Y-122301172D01*
X90338606Y-122308612D01*
X90340391Y-122310293D01*
X90347635Y-122317832D01*
X90353277Y-122326850D01*
X90357517Y-122339984D01*
X90360556Y-122359872D01*
X90362594Y-122389151D01*
X90363830Y-122430458D01*
X90364465Y-122486431D01*
X90364700Y-122559707D01*
X90364734Y-122652923D01*
X90364697Y-122725713D01*
X90364448Y-122803889D01*
X90363812Y-122864103D01*
X90362615Y-122908982D01*
X90360684Y-122941152D01*
X90357846Y-122963239D01*
X90353927Y-122977870D01*
X90348755Y-122987670D01*
X90342156Y-122995267D01*
X90338822Y-122998444D01*
X90330300Y-123004554D01*
X90318298Y-123009229D01*
X90300087Y-123012659D01*
X90272940Y-123015036D01*
X90234129Y-123016552D01*
X90180924Y-123017398D01*
X90110598Y-123017765D01*
X90020422Y-123017845D01*
X89978314Y-123017833D01*
X89897167Y-123017651D01*
X89834675Y-123017098D01*
X89788109Y-123015982D01*
X89754741Y-123014113D01*
X89731844Y-123011298D01*
X89716688Y-123007346D01*
X89706546Y-123002066D01*
X89698689Y-122995267D01*
X89683963Y-122973667D01*
X89676111Y-122944467D01*
X89681610Y-122920560D01*
X89698689Y-122893667D01*
X89703668Y-122889059D01*
X89713443Y-122882772D01*
X89727559Y-122878146D01*
X89749054Y-122874930D01*
X89780968Y-122872870D01*
X89826342Y-122871712D01*
X89888213Y-122871202D01*
X89969622Y-122871089D01*
X90217978Y-122871089D01*
X90217978Y-122713045D01*
X90056801Y-122713045D01*
X90020983Y-122712899D01*
X89955359Y-122711176D01*
X89908118Y-122706741D01*
X89876383Y-122698637D01*
X89857277Y-122685906D01*
X89847923Y-122667592D01*
X89845445Y-122642738D01*
X89846242Y-122622482D01*
X89851494Y-122600656D01*
X89864288Y-122585304D01*
X89887628Y-122575309D01*
X89924517Y-122569553D01*
X89977959Y-122566919D01*
X90050958Y-122566289D01*
X90219105Y-122566289D01*
X90215719Y-122501378D01*
X90212334Y-122436467D01*
X89964617Y-122433418D01*
X89902026Y-122432539D01*
X89833565Y-122431095D01*
X89782661Y-122429164D01*
X89746408Y-122426514D01*
X89721901Y-122422910D01*
X89706235Y-122418121D01*
X89696506Y-122411913D01*
X89690491Y-122405510D01*
X89677482Y-122373828D01*
X89681043Y-122338142D01*
X89700818Y-122307084D01*
X89704069Y-122304161D01*
X89713049Y-122297810D01*
X89725153Y-122292957D01*
X89743159Y-122289403D01*
X89769847Y-122286946D01*
X89807997Y-122285385D01*
X89860386Y-122284518D01*
X89929794Y-122284146D01*
X90019001Y-122284067D01*
X90073734Y-122284083D01*
G36*
X90073734Y-122284083D02*
G01*
X90150831Y-122284275D01*
X90209777Y-122284860D01*
X90253364Y-122286051D01*
X90284383Y-122288064D01*
X90305625Y-122291112D01*
X90319882Y-122295409D01*
X90329945Y-122301172D01*
X90338606Y-122308612D01*
X90340391Y-122310293D01*
X90347635Y-122317832D01*
X90353277Y-122326850D01*
X90357517Y-122339984D01*
X90360556Y-122359872D01*
X90362594Y-122389151D01*
X90363830Y-122430458D01*
X90364465Y-122486431D01*
X90364700Y-122559707D01*
X90364734Y-122652923D01*
X90364697Y-122725713D01*
X90364448Y-122803889D01*
X90363812Y-122864103D01*
X90362615Y-122908982D01*
X90360684Y-122941152D01*
X90357846Y-122963239D01*
X90353927Y-122977870D01*
X90348755Y-122987670D01*
X90342156Y-122995267D01*
X90338822Y-122998444D01*
X90330300Y-123004554D01*
X90318298Y-123009229D01*
X90300087Y-123012659D01*
X90272940Y-123015036D01*
X90234129Y-123016552D01*
X90180924Y-123017398D01*
X90110598Y-123017765D01*
X90020422Y-123017845D01*
X89978314Y-123017833D01*
X89897167Y-123017651D01*
X89834675Y-123017098D01*
X89788109Y-123015982D01*
X89754741Y-123014113D01*
X89731844Y-123011298D01*
X89716688Y-123007346D01*
X89706546Y-123002066D01*
X89698689Y-122995267D01*
X89683963Y-122973667D01*
X89676111Y-122944467D01*
X89681610Y-122920560D01*
X89698689Y-122893667D01*
X89703668Y-122889059D01*
X89713443Y-122882772D01*
X89727559Y-122878146D01*
X89749054Y-122874930D01*
X89780968Y-122872870D01*
X89826342Y-122871712D01*
X89888213Y-122871202D01*
X89969622Y-122871089D01*
X90217978Y-122871089D01*
X90217978Y-122713045D01*
X90056801Y-122713045D01*
X90020983Y-122712899D01*
X89955359Y-122711176D01*
X89908118Y-122706741D01*
X89876383Y-122698637D01*
X89857277Y-122685906D01*
X89847923Y-122667592D01*
X89845445Y-122642738D01*
X89846242Y-122622482D01*
X89851494Y-122600656D01*
X89864288Y-122585304D01*
X89887628Y-122575309D01*
X89924517Y-122569553D01*
X89977959Y-122566919D01*
X90050958Y-122566289D01*
X90219105Y-122566289D01*
X90215719Y-122501378D01*
X90212334Y-122436467D01*
X89964617Y-122433418D01*
X89902026Y-122432539D01*
X89833565Y-122431095D01*
X89782661Y-122429164D01*
X89746408Y-122426514D01*
X89721901Y-122422910D01*
X89706235Y-122418121D01*
X89696506Y-122411913D01*
X89690491Y-122405510D01*
X89677482Y-122373828D01*
X89681043Y-122338142D01*
X89700818Y-122307084D01*
X89704069Y-122304161D01*
X89713049Y-122297810D01*
X89725153Y-122292957D01*
X89743159Y-122289403D01*
X89769847Y-122286946D01*
X89807997Y-122285385D01*
X89860386Y-122284518D01*
X89929794Y-122284146D01*
X90019001Y-122284067D01*
X90073734Y-122284083D01*
G37*
X81506702Y-122293478D02*
X81524663Y-122311989D01*
X81545263Y-122343071D01*
X81570095Y-122388756D01*
X81600750Y-122451078D01*
X81638820Y-122532071D01*
X81653454Y-122563454D01*
X81683203Y-122626638D01*
X81709297Y-122681244D01*
X81730292Y-122724290D01*
X81744739Y-122752793D01*
X81751191Y-122763770D01*
X81752550Y-122763189D01*
X81762542Y-122749242D01*
X81779833Y-122719704D01*
X81802430Y-122678087D01*
X81828338Y-122627903D01*
X81844311Y-122596414D01*
X81873261Y-122541061D01*
X81895749Y-122502044D01*
X81913965Y-122476566D01*
X81930096Y-122461831D01*
X81946330Y-122455042D01*
X81964857Y-122453400D01*
X81975360Y-122453875D01*
X81991476Y-122458082D01*
X82006790Y-122468946D01*
X82023388Y-122489219D01*
X82043357Y-122521654D01*
X82068783Y-122569004D01*
X82101752Y-122634022D01*
X82111485Y-122653277D01*
X82135943Y-122699946D01*
X82156178Y-122736109D01*
X82170311Y-122758497D01*
X82176460Y-122763845D01*
X82177827Y-122760573D01*
X82187202Y-122739664D01*
X82204062Y-122702725D01*
X82226979Y-122652874D01*
X82254520Y-122593226D01*
X82285255Y-122526898D01*
X82311970Y-122469677D01*
X82341593Y-122407688D01*
X82364664Y-122361949D01*
X82382643Y-122329908D01*
X82396990Y-122309014D01*
X82409166Y-122296718D01*
X82420632Y-122290466D01*
X82430042Y-122287574D01*
X82455147Y-122287425D01*
X82482290Y-122302768D01*
X82483590Y-122303753D01*
X82505674Y-122326388D01*
X82516723Y-122348613D01*
X82516769Y-122349253D01*
X82512228Y-122366915D01*
X82499364Y-122401481D01*
X82479605Y-122449826D01*
X82454381Y-122508825D01*
X82425119Y-122575355D01*
X82393250Y-122646291D01*
X82360201Y-122718507D01*
X82327401Y-122788880D01*
X82296280Y-122854285D01*
X82268265Y-122911597D01*
X82244786Y-122957692D01*
X82227272Y-122989446D01*
X82217151Y-123003733D01*
X82182743Y-123017102D01*
X82141046Y-123010741D01*
X82135681Y-123006044D01*
X82119852Y-122983893D01*
X82097650Y-122947132D01*
X82071233Y-122899415D01*
X82042760Y-122844393D01*
X81962986Y-122685150D01*
X81889799Y-122831742D01*
X81880103Y-122851032D01*
X81853125Y-122903380D01*
X81829096Y-122948170D01*
X81810332Y-122981154D01*
X81799146Y-122998089D01*
X81798000Y-122999332D01*
X81769879Y-123014619D01*
X81734817Y-123016302D01*
X81703776Y-123003733D01*
X81701350Y-123000884D01*
X81689090Y-122980259D01*
X81669352Y-122942708D01*
X81643448Y-122890880D01*
X81612685Y-122827423D01*
X81578375Y-122754985D01*
X81541825Y-122676216D01*
X81521585Y-122632093D01*
X81484812Y-122551365D01*
X81456355Y-122487687D01*
X81435331Y-122438752D01*
X81420854Y-122402257D01*
X81412039Y-122375895D01*
X81408004Y-122357361D01*
X81407862Y-122344352D01*
X81410730Y-122334561D01*
X81425387Y-122313678D01*
X81451990Y-122293377D01*
X81452745Y-122293035D01*
X81472335Y-122286034D01*
X81489790Y-122285504D01*
X81506702Y-122293478D01*
G36*
X81506702Y-122293478D02*
G01*
X81524663Y-122311989D01*
X81545263Y-122343071D01*
X81570095Y-122388756D01*
X81600750Y-122451078D01*
X81638820Y-122532071D01*
X81653454Y-122563454D01*
X81683203Y-122626638D01*
X81709297Y-122681244D01*
X81730292Y-122724290D01*
X81744739Y-122752793D01*
X81751191Y-122763770D01*
X81752550Y-122763189D01*
X81762542Y-122749242D01*
X81779833Y-122719704D01*
X81802430Y-122678087D01*
X81828338Y-122627903D01*
X81844311Y-122596414D01*
X81873261Y-122541061D01*
X81895749Y-122502044D01*
X81913965Y-122476566D01*
X81930096Y-122461831D01*
X81946330Y-122455042D01*
X81964857Y-122453400D01*
X81975360Y-122453875D01*
X81991476Y-122458082D01*
X82006790Y-122468946D01*
X82023388Y-122489219D01*
X82043357Y-122521654D01*
X82068783Y-122569004D01*
X82101752Y-122634022D01*
X82111485Y-122653277D01*
X82135943Y-122699946D01*
X82156178Y-122736109D01*
X82170311Y-122758497D01*
X82176460Y-122763845D01*
X82177827Y-122760573D01*
X82187202Y-122739664D01*
X82204062Y-122702725D01*
X82226979Y-122652874D01*
X82254520Y-122593226D01*
X82285255Y-122526898D01*
X82311970Y-122469677D01*
X82341593Y-122407688D01*
X82364664Y-122361949D01*
X82382643Y-122329908D01*
X82396990Y-122309014D01*
X82409166Y-122296718D01*
X82420632Y-122290466D01*
X82430042Y-122287574D01*
X82455147Y-122287425D01*
X82482290Y-122302768D01*
X82483590Y-122303753D01*
X82505674Y-122326388D01*
X82516723Y-122348613D01*
X82516769Y-122349253D01*
X82512228Y-122366915D01*
X82499364Y-122401481D01*
X82479605Y-122449826D01*
X82454381Y-122508825D01*
X82425119Y-122575355D01*
X82393250Y-122646291D01*
X82360201Y-122718507D01*
X82327401Y-122788880D01*
X82296280Y-122854285D01*
X82268265Y-122911597D01*
X82244786Y-122957692D01*
X82227272Y-122989446D01*
X82217151Y-123003733D01*
X82182743Y-123017102D01*
X82141046Y-123010741D01*
X82135681Y-123006044D01*
X82119852Y-122983893D01*
X82097650Y-122947132D01*
X82071233Y-122899415D01*
X82042760Y-122844393D01*
X81962986Y-122685150D01*
X81889799Y-122831742D01*
X81880103Y-122851032D01*
X81853125Y-122903380D01*
X81829096Y-122948170D01*
X81810332Y-122981154D01*
X81799146Y-122998089D01*
X81798000Y-122999332D01*
X81769879Y-123014619D01*
X81734817Y-123016302D01*
X81703776Y-123003733D01*
X81701350Y-123000884D01*
X81689090Y-122980259D01*
X81669352Y-122942708D01*
X81643448Y-122890880D01*
X81612685Y-122827423D01*
X81578375Y-122754985D01*
X81541825Y-122676216D01*
X81521585Y-122632093D01*
X81484812Y-122551365D01*
X81456355Y-122487687D01*
X81435331Y-122438752D01*
X81420854Y-122402257D01*
X81412039Y-122375895D01*
X81408004Y-122357361D01*
X81407862Y-122344352D01*
X81410730Y-122334561D01*
X81425387Y-122313678D01*
X81451990Y-122293377D01*
X81452745Y-122293035D01*
X81472335Y-122286034D01*
X81489790Y-122285504D01*
X81506702Y-122293478D01*
G37*
X89057853Y-122284936D02*
X89124100Y-122290366D01*
X89179400Y-122299964D01*
X89230283Y-122314825D01*
X89301595Y-122347958D01*
X89352752Y-122390640D01*
X89383575Y-122442705D01*
X89393889Y-122503983D01*
X89392952Y-122535232D01*
X89387160Y-122560029D01*
X89372353Y-122581699D01*
X89344380Y-122609049D01*
X89336402Y-122616378D01*
X89312692Y-122637281D01*
X89290298Y-122654251D01*
X89266265Y-122668205D01*
X89237637Y-122680056D01*
X89201460Y-122690720D01*
X89154780Y-122701111D01*
X89094641Y-122712146D01*
X89018090Y-122724738D01*
X88922171Y-122739804D01*
X88903808Y-122742838D01*
X88841478Y-122756458D01*
X88796260Y-122772192D01*
X88769976Y-122789263D01*
X88764447Y-122806897D01*
X88767068Y-122811168D01*
X88785000Y-122826233D01*
X88813126Y-122842867D01*
X88825926Y-122848857D01*
X88847224Y-122856050D01*
X88873610Y-122860827D01*
X88909454Y-122863646D01*
X88959128Y-122864964D01*
X89027000Y-122865237D01*
X89044785Y-122865164D01*
X89112406Y-122864053D01*
X89177345Y-122861828D01*
X89232970Y-122858762D01*
X89272651Y-122855127D01*
X89308162Y-122851059D01*
X89337415Y-122850276D01*
X89356315Y-122854876D01*
X89371429Y-122865551D01*
X89375085Y-122869144D01*
X89391427Y-122900918D01*
X89390107Y-122936572D01*
X89371150Y-122967190D01*
X89350780Y-122978796D01*
X89314796Y-122991491D01*
X89272372Y-123001541D01*
X89268922Y-123002140D01*
X89226252Y-123007356D01*
X89168866Y-123011730D01*
X89103849Y-123014818D01*
X89038289Y-123016177D01*
X89022057Y-123016218D01*
X88923744Y-123013741D01*
X88843692Y-123005735D01*
X88778513Y-122991203D01*
X88724817Y-122969149D01*
X88679216Y-122938576D01*
X88638323Y-122898486D01*
X88618202Y-122872259D01*
X88606576Y-122842712D01*
X88603667Y-122802995D01*
X88603808Y-122791026D01*
X88607681Y-122758345D01*
X88620065Y-122731819D01*
X88645230Y-122700971D01*
X88666442Y-122678831D01*
X88692838Y-122656285D01*
X88722555Y-122637917D01*
X88758785Y-122622661D01*
X88804717Y-122609449D01*
X88863544Y-122597214D01*
X88938456Y-122584889D01*
X89032645Y-122571406D01*
X89077957Y-122564396D01*
X89145911Y-122549837D01*
X89195047Y-122533337D01*
X89224614Y-122515439D01*
X89233864Y-122496685D01*
X89222048Y-122477615D01*
X89188416Y-122458771D01*
X89185370Y-122457557D01*
X89139011Y-122445479D01*
X89076361Y-122437279D01*
X89002927Y-122433119D01*
X88924217Y-122433161D01*
X88845739Y-122437569D01*
X88773000Y-122446505D01*
X88769073Y-122447154D01*
X88720257Y-122454861D01*
X88688005Y-122458473D01*
X88667008Y-122457876D01*
X88651954Y-122452954D01*
X88637534Y-122443596D01*
X88636364Y-122442725D01*
X88611847Y-122412351D01*
X88607054Y-122376850D01*
X88622860Y-122342269D01*
X88627406Y-122337813D01*
X88657020Y-122322673D01*
X88704002Y-122309550D01*
X88764306Y-122298750D01*
X88833888Y-122290581D01*
X88908703Y-122285351D01*
X88984706Y-122283367D01*
X89057853Y-122284936D01*
G36*
X89057853Y-122284936D02*
G01*
X89124100Y-122290366D01*
X89179400Y-122299964D01*
X89230283Y-122314825D01*
X89301595Y-122347958D01*
X89352752Y-122390640D01*
X89383575Y-122442705D01*
X89393889Y-122503983D01*
X89392952Y-122535232D01*
X89387160Y-122560029D01*
X89372353Y-122581699D01*
X89344380Y-122609049D01*
X89336402Y-122616378D01*
X89312692Y-122637281D01*
X89290298Y-122654251D01*
X89266265Y-122668205D01*
X89237637Y-122680056D01*
X89201460Y-122690720D01*
X89154780Y-122701111D01*
X89094641Y-122712146D01*
X89018090Y-122724738D01*
X88922171Y-122739804D01*
X88903808Y-122742838D01*
X88841478Y-122756458D01*
X88796260Y-122772192D01*
X88769976Y-122789263D01*
X88764447Y-122806897D01*
X88767068Y-122811168D01*
X88785000Y-122826233D01*
X88813126Y-122842867D01*
X88825926Y-122848857D01*
X88847224Y-122856050D01*
X88873610Y-122860827D01*
X88909454Y-122863646D01*
X88959128Y-122864964D01*
X89027000Y-122865237D01*
X89044785Y-122865164D01*
X89112406Y-122864053D01*
X89177345Y-122861828D01*
X89232970Y-122858762D01*
X89272651Y-122855127D01*
X89308162Y-122851059D01*
X89337415Y-122850276D01*
X89356315Y-122854876D01*
X89371429Y-122865551D01*
X89375085Y-122869144D01*
X89391427Y-122900918D01*
X89390107Y-122936572D01*
X89371150Y-122967190D01*
X89350780Y-122978796D01*
X89314796Y-122991491D01*
X89272372Y-123001541D01*
X89268922Y-123002140D01*
X89226252Y-123007356D01*
X89168866Y-123011730D01*
X89103849Y-123014818D01*
X89038289Y-123016177D01*
X89022057Y-123016218D01*
X88923744Y-123013741D01*
X88843692Y-123005735D01*
X88778513Y-122991203D01*
X88724817Y-122969149D01*
X88679216Y-122938576D01*
X88638323Y-122898486D01*
X88618202Y-122872259D01*
X88606576Y-122842712D01*
X88603667Y-122802995D01*
X88603808Y-122791026D01*
X88607681Y-122758345D01*
X88620065Y-122731819D01*
X88645230Y-122700971D01*
X88666442Y-122678831D01*
X88692838Y-122656285D01*
X88722555Y-122637917D01*
X88758785Y-122622661D01*
X88804717Y-122609449D01*
X88863544Y-122597214D01*
X88938456Y-122584889D01*
X89032645Y-122571406D01*
X89077957Y-122564396D01*
X89145911Y-122549837D01*
X89195047Y-122533337D01*
X89224614Y-122515439D01*
X89233864Y-122496685D01*
X89222048Y-122477615D01*
X89188416Y-122458771D01*
X89185370Y-122457557D01*
X89139011Y-122445479D01*
X89076361Y-122437279D01*
X89002927Y-122433119D01*
X88924217Y-122433161D01*
X88845739Y-122437569D01*
X88773000Y-122446505D01*
X88769073Y-122447154D01*
X88720257Y-122454861D01*
X88688005Y-122458473D01*
X88667008Y-122457876D01*
X88651954Y-122452954D01*
X88637534Y-122443596D01*
X88636364Y-122442725D01*
X88611847Y-122412351D01*
X88607054Y-122376850D01*
X88622860Y-122342269D01*
X88627406Y-122337813D01*
X88657020Y-122322673D01*
X88704002Y-122309550D01*
X88764306Y-122298750D01*
X88833888Y-122290581D01*
X88908703Y-122285351D01*
X88984706Y-122283367D01*
X89057853Y-122284936D01*
G37*
X85205711Y-117977033D02*
X85301268Y-117994523D01*
X85465558Y-118039564D01*
X85619589Y-118102656D01*
X85765509Y-118184915D01*
X85905466Y-118287457D01*
X86041608Y-118411399D01*
X86085473Y-118456661D01*
X86197758Y-118588865D01*
X86290972Y-118726832D01*
X86367719Y-118874750D01*
X86430603Y-119036803D01*
X86434420Y-119048391D01*
X86484507Y-119234392D01*
X86517899Y-119430521D01*
X86534584Y-119632568D01*
X86534551Y-119836325D01*
X86517791Y-120037581D01*
X86484292Y-120232128D01*
X86434044Y-120415756D01*
X86390190Y-120533053D01*
X86312348Y-120695951D01*
X86218828Y-120849866D01*
X86111822Y-120991671D01*
X85993519Y-121118239D01*
X85866111Y-121226441D01*
X85788606Y-121279120D01*
X85661725Y-121348750D01*
X85524243Y-121407468D01*
X85382716Y-121452587D01*
X85243702Y-121481422D01*
X85229597Y-121483106D01*
X85186153Y-121486434D01*
X85128723Y-121489275D01*
X85063122Y-121491373D01*
X84995167Y-121492468D01*
X84868378Y-121490140D01*
X84720673Y-121477136D01*
X84582779Y-121452133D01*
X84449014Y-121414318D01*
X84425562Y-121405889D01*
X84377612Y-121386408D01*
X84321140Y-121361473D01*
X84259379Y-121332722D01*
X84195563Y-121301790D01*
X84132926Y-121270315D01*
X84074703Y-121239934D01*
X84024127Y-121212283D01*
X83984433Y-121188999D01*
X83958854Y-121171718D01*
X83950625Y-121162079D01*
X83952076Y-121158984D01*
X83963250Y-121139079D01*
X83984134Y-121103420D01*
X84013265Y-121054459D01*
X84049181Y-120994646D01*
X84090420Y-120926433D01*
X84135517Y-120852271D01*
X84316785Y-120555008D01*
X84363315Y-120599539D01*
X84454723Y-120677865D01*
X84568334Y-120752439D01*
X84686122Y-120806474D01*
X84806559Y-120839290D01*
X84928117Y-120850211D01*
X84969585Y-120848868D01*
X85087080Y-120830612D01*
X85197089Y-120791617D01*
X85298430Y-120732670D01*
X85389921Y-120654557D01*
X85470380Y-120558064D01*
X85538627Y-120443978D01*
X85554908Y-120409724D01*
X85600982Y-120286240D01*
X85636106Y-120147918D01*
X85660197Y-119998561D01*
X85673173Y-119841973D01*
X85674949Y-119681956D01*
X85665443Y-119522314D01*
X85644572Y-119366850D01*
X85612252Y-119219366D01*
X85568399Y-119083667D01*
X85530982Y-118997076D01*
X85466185Y-118883688D01*
X85390772Y-118790070D01*
X85304418Y-118715959D01*
X85206795Y-118661094D01*
X85097577Y-118625212D01*
X84976439Y-118608051D01*
X84907038Y-118606880D01*
X84784168Y-118621141D01*
X84668664Y-118656241D01*
X84561953Y-118711682D01*
X84465464Y-118786964D01*
X84449720Y-118801440D01*
X84419150Y-118827962D01*
X84396809Y-118845138D01*
X84386691Y-118849787D01*
X84384706Y-118847597D01*
X84370241Y-118828721D01*
X84346400Y-118795397D01*
X84315029Y-118750380D01*
X84277974Y-118696425D01*
X84237083Y-118636285D01*
X84194202Y-118572718D01*
X84151178Y-118508476D01*
X84109857Y-118446315D01*
X84072086Y-118388991D01*
X84039712Y-118339257D01*
X84014582Y-118299868D01*
X83998542Y-118273580D01*
X83993439Y-118263147D01*
X83998050Y-118258941D01*
X84017267Y-118253933D01*
X84026838Y-118251386D01*
X84054809Y-118240249D01*
X84096448Y-118221802D01*
X84147995Y-118197725D01*
X84205690Y-118169699D01*
X84216957Y-118164154D01*
X84394687Y-118084889D01*
X84564490Y-118025385D01*
X84728430Y-117985245D01*
X84888571Y-117964071D01*
X85046977Y-117961466D01*
X85205711Y-117977033D01*
G36*
X85205711Y-117977033D02*
G01*
X85301268Y-117994523D01*
X85465558Y-118039564D01*
X85619589Y-118102656D01*
X85765509Y-118184915D01*
X85905466Y-118287457D01*
X86041608Y-118411399D01*
X86085473Y-118456661D01*
X86197758Y-118588865D01*
X86290972Y-118726832D01*
X86367719Y-118874750D01*
X86430603Y-119036803D01*
X86434420Y-119048391D01*
X86484507Y-119234392D01*
X86517899Y-119430521D01*
X86534584Y-119632568D01*
X86534551Y-119836325D01*
X86517791Y-120037581D01*
X86484292Y-120232128D01*
X86434044Y-120415756D01*
X86390190Y-120533053D01*
X86312348Y-120695951D01*
X86218828Y-120849866D01*
X86111822Y-120991671D01*
X85993519Y-121118239D01*
X85866111Y-121226441D01*
X85788606Y-121279120D01*
X85661725Y-121348750D01*
X85524243Y-121407468D01*
X85382716Y-121452587D01*
X85243702Y-121481422D01*
X85229597Y-121483106D01*
X85186153Y-121486434D01*
X85128723Y-121489275D01*
X85063122Y-121491373D01*
X84995167Y-121492468D01*
X84868378Y-121490140D01*
X84720673Y-121477136D01*
X84582779Y-121452133D01*
X84449014Y-121414318D01*
X84425562Y-121405889D01*
X84377612Y-121386408D01*
X84321140Y-121361473D01*
X84259379Y-121332722D01*
X84195563Y-121301790D01*
X84132926Y-121270315D01*
X84074703Y-121239934D01*
X84024127Y-121212283D01*
X83984433Y-121188999D01*
X83958854Y-121171718D01*
X83950625Y-121162079D01*
X83952076Y-121158984D01*
X83963250Y-121139079D01*
X83984134Y-121103420D01*
X84013265Y-121054459D01*
X84049181Y-120994646D01*
X84090420Y-120926433D01*
X84135517Y-120852271D01*
X84316785Y-120555008D01*
X84363315Y-120599539D01*
X84454723Y-120677865D01*
X84568334Y-120752439D01*
X84686122Y-120806474D01*
X84806559Y-120839290D01*
X84928117Y-120850211D01*
X84969585Y-120848868D01*
X85087080Y-120830612D01*
X85197089Y-120791617D01*
X85298430Y-120732670D01*
X85389921Y-120654557D01*
X85470380Y-120558064D01*
X85538627Y-120443978D01*
X85554908Y-120409724D01*
X85600982Y-120286240D01*
X85636106Y-120147918D01*
X85660197Y-119998561D01*
X85673173Y-119841973D01*
X85674949Y-119681956D01*
X85665443Y-119522314D01*
X85644572Y-119366850D01*
X85612252Y-119219366D01*
X85568399Y-119083667D01*
X85530982Y-118997076D01*
X85466185Y-118883688D01*
X85390772Y-118790070D01*
X85304418Y-118715959D01*
X85206795Y-118661094D01*
X85097577Y-118625212D01*
X84976439Y-118608051D01*
X84907038Y-118606880D01*
X84784168Y-118621141D01*
X84668664Y-118656241D01*
X84561953Y-118711682D01*
X84465464Y-118786964D01*
X84449720Y-118801440D01*
X84419150Y-118827962D01*
X84396809Y-118845138D01*
X84386691Y-118849787D01*
X84384706Y-118847597D01*
X84370241Y-118828721D01*
X84346400Y-118795397D01*
X84315029Y-118750380D01*
X84277974Y-118696425D01*
X84237083Y-118636285D01*
X84194202Y-118572718D01*
X84151178Y-118508476D01*
X84109857Y-118446315D01*
X84072086Y-118388991D01*
X84039712Y-118339257D01*
X84014582Y-118299868D01*
X83998542Y-118273580D01*
X83993439Y-118263147D01*
X83998050Y-118258941D01*
X84017267Y-118253933D01*
X84026838Y-118251386D01*
X84054809Y-118240249D01*
X84096448Y-118221802D01*
X84147995Y-118197725D01*
X84205690Y-118169699D01*
X84216957Y-118164154D01*
X84394687Y-118084889D01*
X84564490Y-118025385D01*
X84728430Y-117985245D01*
X84888571Y-117964071D01*
X85046977Y-117961466D01*
X85205711Y-117977033D01*
G37*
X81402994Y-120257711D02*
X81402268Y-120335158D01*
X81393689Y-120486594D01*
X81374833Y-120623283D01*
X81344837Y-120749276D01*
X81302836Y-120868625D01*
X81247969Y-120985381D01*
X81181167Y-121096179D01*
X81090363Y-121209739D01*
X80986708Y-121305211D01*
X80870887Y-121382073D01*
X80743586Y-121439797D01*
X80605489Y-121477858D01*
X80567793Y-121483666D01*
X80488752Y-121489396D01*
X80400629Y-121489583D01*
X80311236Y-121484539D01*
X80228384Y-121474578D01*
X80159887Y-121460012D01*
X80129035Y-121450364D01*
X80051730Y-121420123D01*
X79974679Y-121382617D01*
X79905200Y-121341614D01*
X79850615Y-121300879D01*
X79827916Y-121281505D01*
X79805201Y-121263662D01*
X79793779Y-121256778D01*
X79792537Y-121258424D01*
X79789728Y-121276205D01*
X79787776Y-121309370D01*
X79787045Y-121352733D01*
X79787045Y-121448689D01*
X78928896Y-121448689D01*
X78963161Y-121387974D01*
X78968355Y-121378868D01*
X78976715Y-121364249D01*
X78984288Y-121350173D01*
X78991112Y-121335540D01*
X78997227Y-121319249D01*
X79002673Y-121300198D01*
X79007487Y-121277286D01*
X79011708Y-121249413D01*
X79015377Y-121215478D01*
X79018531Y-121174379D01*
X79021211Y-121125015D01*
X79023454Y-121066286D01*
X79025299Y-120997090D01*
X79026787Y-120916326D01*
X79027955Y-120822894D01*
X79028844Y-120715692D01*
X79029491Y-120593620D01*
X79029936Y-120455576D01*
X79030218Y-120300459D01*
X79030375Y-120127168D01*
X79030448Y-119934603D01*
X79030474Y-119721662D01*
X79030485Y-119585530D01*
X79832200Y-119585530D01*
X79832200Y-120735721D01*
X79902756Y-120782089D01*
X79943417Y-120805791D01*
X79997546Y-120831639D01*
X80046689Y-120849829D01*
X80110165Y-120865551D01*
X80206331Y-120876541D01*
X80290900Y-120868365D01*
X80364219Y-120840805D01*
X80426637Y-120793642D01*
X80478502Y-120726658D01*
X80520160Y-120639633D01*
X80551962Y-120532350D01*
X80554545Y-120520009D01*
X80563000Y-120458772D01*
X80568663Y-120381692D01*
X80571576Y-120294002D01*
X80571783Y-120200934D01*
X80569330Y-120107720D01*
X80564261Y-120019594D01*
X80556619Y-119941788D01*
X80546448Y-119879533D01*
X80545167Y-119873666D01*
X80516126Y-119763121D01*
X80481610Y-119672575D01*
X80440456Y-119599953D01*
X80391499Y-119543181D01*
X80333574Y-119500184D01*
X80301620Y-119484615D01*
X80228784Y-119465722D01*
X80147443Y-119462465D01*
X80062319Y-119474389D01*
X79978133Y-119501040D01*
X79899608Y-119541962D01*
X79832200Y-119585530D01*
X79030485Y-119585530D01*
X79030493Y-119487245D01*
X79030689Y-117802378D01*
X79936017Y-117802378D01*
X79911585Y-117839067D01*
X79905318Y-117848647D01*
X79879208Y-117894981D01*
X79861469Y-117942102D01*
X79849908Y-117997251D01*
X79842331Y-118067667D01*
X79841839Y-118074650D01*
X79840062Y-118112641D01*
X79838444Y-118166576D01*
X79836999Y-118233703D01*
X79835740Y-118311271D01*
X79834680Y-118396528D01*
X79833829Y-118486724D01*
X79833203Y-118579107D01*
X79832812Y-118670925D01*
X79832670Y-118759427D01*
X79832790Y-118841862D01*
X79833183Y-118915479D01*
X79833862Y-118977526D01*
X79834841Y-119025251D01*
X79836132Y-119055904D01*
X79837747Y-119066733D01*
X79845957Y-119062333D01*
X79867647Y-119047362D01*
X79897014Y-119025448D01*
X79945879Y-118991236D01*
X80034125Y-118944714D01*
X80132916Y-118911046D01*
X80245510Y-118889231D01*
X80375164Y-118878265D01*
X80467670Y-118877219D01*
X80589011Y-118887014D01*
X80699099Y-118911174D01*
X80802389Y-118950785D01*
X80903338Y-119006932D01*
X80948503Y-119037883D01*
X81053911Y-119129115D01*
X81145538Y-119238106D01*
X81223332Y-119364726D01*
X81287241Y-119508845D01*
X81337214Y-119670332D01*
X81373198Y-119849059D01*
X81395143Y-120044895D01*
X81400900Y-120200934D01*
X81402994Y-120257711D01*
G36*
X81402994Y-120257711D02*
G01*
X81402268Y-120335158D01*
X81393689Y-120486594D01*
X81374833Y-120623283D01*
X81344837Y-120749276D01*
X81302836Y-120868625D01*
X81247969Y-120985381D01*
X81181167Y-121096179D01*
X81090363Y-121209739D01*
X80986708Y-121305211D01*
X80870887Y-121382073D01*
X80743586Y-121439797D01*
X80605489Y-121477858D01*
X80567793Y-121483666D01*
X80488752Y-121489396D01*
X80400629Y-121489583D01*
X80311236Y-121484539D01*
X80228384Y-121474578D01*
X80159887Y-121460012D01*
X80129035Y-121450364D01*
X80051730Y-121420123D01*
X79974679Y-121382617D01*
X79905200Y-121341614D01*
X79850615Y-121300879D01*
X79827916Y-121281505D01*
X79805201Y-121263662D01*
X79793779Y-121256778D01*
X79792537Y-121258424D01*
X79789728Y-121276205D01*
X79787776Y-121309370D01*
X79787045Y-121352733D01*
X79787045Y-121448689D01*
X78928896Y-121448689D01*
X78963161Y-121387974D01*
X78968355Y-121378868D01*
X78976715Y-121364249D01*
X78984288Y-121350173D01*
X78991112Y-121335540D01*
X78997227Y-121319249D01*
X79002673Y-121300198D01*
X79007487Y-121277286D01*
X79011708Y-121249413D01*
X79015377Y-121215478D01*
X79018531Y-121174379D01*
X79021211Y-121125015D01*
X79023454Y-121066286D01*
X79025299Y-120997090D01*
X79026787Y-120916326D01*
X79027955Y-120822894D01*
X79028844Y-120715692D01*
X79029491Y-120593620D01*
X79029936Y-120455576D01*
X79030218Y-120300459D01*
X79030375Y-120127168D01*
X79030448Y-119934603D01*
X79030474Y-119721662D01*
X79030485Y-119585530D01*
X79832200Y-119585530D01*
X79832200Y-120735721D01*
X79902756Y-120782089D01*
X79943417Y-120805791D01*
X79997546Y-120831639D01*
X80046689Y-120849829D01*
X80110165Y-120865551D01*
X80206331Y-120876541D01*
X80290900Y-120868365D01*
X80364219Y-120840805D01*
X80426637Y-120793642D01*
X80478502Y-120726658D01*
X80520160Y-120639633D01*
X80551962Y-120532350D01*
X80554545Y-120520009D01*
X80563000Y-120458772D01*
X80568663Y-120381692D01*
X80571576Y-120294002D01*
X80571783Y-120200934D01*
X80569330Y-120107720D01*
X80564261Y-120019594D01*
X80556619Y-119941788D01*
X80546448Y-119879533D01*
X80545167Y-119873666D01*
X80516126Y-119763121D01*
X80481610Y-119672575D01*
X80440456Y-119599953D01*
X80391499Y-119543181D01*
X80333574Y-119500184D01*
X80301620Y-119484615D01*
X80228784Y-119465722D01*
X80147443Y-119462465D01*
X80062319Y-119474389D01*
X79978133Y-119501040D01*
X79899608Y-119541962D01*
X79832200Y-119585530D01*
X79030485Y-119585530D01*
X79030493Y-119487245D01*
X79030689Y-117802378D01*
X79936017Y-117802378D01*
X79911585Y-117839067D01*
X79905318Y-117848647D01*
X79879208Y-117894981D01*
X79861469Y-117942102D01*
X79849908Y-117997251D01*
X79842331Y-118067667D01*
X79841839Y-118074650D01*
X79840062Y-118112641D01*
X79838444Y-118166576D01*
X79836999Y-118233703D01*
X79835740Y-118311271D01*
X79834680Y-118396528D01*
X79833829Y-118486724D01*
X79833203Y-118579107D01*
X79832812Y-118670925D01*
X79832670Y-118759427D01*
X79832790Y-118841862D01*
X79833183Y-118915479D01*
X79833862Y-118977526D01*
X79834841Y-119025251D01*
X79836132Y-119055904D01*
X79837747Y-119066733D01*
X79845957Y-119062333D01*
X79867647Y-119047362D01*
X79897014Y-119025448D01*
X79945879Y-118991236D01*
X80034125Y-118944714D01*
X80132916Y-118911046D01*
X80245510Y-118889231D01*
X80375164Y-118878265D01*
X80467670Y-118877219D01*
X80589011Y-118887014D01*
X80699099Y-118911174D01*
X80802389Y-118950785D01*
X80903338Y-119006932D01*
X80948503Y-119037883D01*
X81053911Y-119129115D01*
X81145538Y-119238106D01*
X81223332Y-119364726D01*
X81287241Y-119508845D01*
X81337214Y-119670332D01*
X81373198Y-119849059D01*
X81395143Y-120044895D01*
X81400900Y-120200934D01*
X81402994Y-120257711D01*
G37*
X83944755Y-120658467D02*
X83944261Y-120692363D01*
X83940632Y-120767202D01*
X83933022Y-120829401D01*
X83920688Y-120885984D01*
X83876313Y-121012076D01*
X83813400Y-121126679D01*
X83733238Y-121227568D01*
X83636740Y-121313924D01*
X83524822Y-121384932D01*
X83398397Y-121439776D01*
X83258378Y-121477638D01*
X83222149Y-121483351D01*
X83143155Y-121489313D01*
X83054841Y-121489646D01*
X82965075Y-121484659D01*
X82881722Y-121474666D01*
X82812651Y-121459978D01*
X82726187Y-121429749D01*
X82616286Y-121375057D01*
X82518956Y-121307543D01*
X82456867Y-121256556D01*
X82453605Y-121352622D01*
X82450343Y-121448689D01*
X82027450Y-121448689D01*
X82016543Y-121448686D01*
X81922056Y-121448380D01*
X81835331Y-121447616D01*
X81758837Y-121446451D01*
X81695043Y-121444942D01*
X81646418Y-121443147D01*
X81615433Y-121441121D01*
X81604556Y-121438922D01*
X81604578Y-121438463D01*
X81611614Y-121422910D01*
X81627434Y-121400071D01*
X81631734Y-121394638D01*
X81642777Y-121380606D01*
X81652311Y-121367186D01*
X81660461Y-121352722D01*
X81667352Y-121335556D01*
X81673111Y-121314034D01*
X81677862Y-121286498D01*
X81681731Y-121251292D01*
X81684844Y-121206760D01*
X81687325Y-121151246D01*
X81689300Y-121083093D01*
X81690894Y-121000645D01*
X81692234Y-120902246D01*
X81693444Y-120786239D01*
X81694649Y-120650968D01*
X81695595Y-120539586D01*
X82496378Y-120539586D01*
X82496378Y-120735462D01*
X82541048Y-120791973D01*
X82553785Y-120807212D01*
X82600604Y-120849844D01*
X82661255Y-120885672D01*
X82671897Y-120890850D01*
X82710676Y-120907745D01*
X82745692Y-120917909D01*
X82785722Y-120923325D01*
X82839541Y-120925978D01*
X82857648Y-120926383D01*
X82933011Y-120923540D01*
X82993743Y-120911620D01*
X83045452Y-120889037D01*
X83093746Y-120854211D01*
X83098803Y-120849798D01*
X83147272Y-120794160D01*
X83175459Y-120730333D01*
X83184752Y-120655282D01*
X83177520Y-120583693D01*
X83152796Y-120520645D01*
X83108249Y-120462758D01*
X83053319Y-120415808D01*
X82980894Y-120375961D01*
X82894340Y-120348263D01*
X82791670Y-120332096D01*
X82670894Y-120326842D01*
X82662007Y-120326857D01*
X82606660Y-120327655D01*
X82559736Y-120329488D01*
X82525953Y-120332111D01*
X82510028Y-120335274D01*
X82505943Y-120341741D01*
X82501572Y-120363875D01*
X82498604Y-120402988D01*
X82496914Y-120460939D01*
X82496378Y-120539586D01*
X81695595Y-120539586D01*
X81695975Y-120494778D01*
X81697228Y-120352012D01*
X81698651Y-120206942D01*
X81700176Y-120081027D01*
X81701933Y-119972436D01*
X81704051Y-119879334D01*
X81706660Y-119799891D01*
X81709890Y-119732273D01*
X81713869Y-119674649D01*
X81718728Y-119625185D01*
X81724597Y-119582050D01*
X81731604Y-119543410D01*
X81739880Y-119507434D01*
X81749554Y-119472289D01*
X81760756Y-119436142D01*
X81773616Y-119397161D01*
X81789090Y-119354091D01*
X81831994Y-119261871D01*
X81885735Y-119182099D01*
X81954576Y-119107965D01*
X82032185Y-119044405D01*
X82136761Y-118982725D01*
X82256244Y-118935202D01*
X82391508Y-118901567D01*
X82543426Y-118881552D01*
X82712872Y-118874889D01*
X82770890Y-118875287D01*
X82836398Y-118877335D01*
X82897693Y-118881704D01*
X82959097Y-118889035D01*
X83024932Y-118899969D01*
X83099520Y-118915147D01*
X83187184Y-118935209D01*
X83292245Y-118960797D01*
X83320806Y-118967820D01*
X83396054Y-118985776D01*
X83466388Y-119001820D01*
X83527567Y-119015028D01*
X83575354Y-119024474D01*
X83605511Y-119029231D01*
X83633783Y-119032910D01*
X83660060Y-119038187D01*
X83670059Y-119042942D01*
X83666952Y-119051781D01*
X83656194Y-119079072D01*
X83638864Y-119121906D01*
X83616126Y-119177425D01*
X83589147Y-119242772D01*
X83559090Y-119315089D01*
X83552493Y-119330879D01*
X83513907Y-119421484D01*
X83482768Y-119491217D01*
X83458917Y-119540405D01*
X83442198Y-119569374D01*
X83432454Y-119578452D01*
X83424766Y-119576405D01*
X83398415Y-119566760D01*
X83359982Y-119551190D01*
X83314822Y-119531815D01*
X83220293Y-119493814D01*
X83083480Y-119452780D01*
X82942289Y-119427612D01*
X82904314Y-119423611D01*
X82801059Y-119421447D01*
X82713952Y-119434622D01*
X82642129Y-119463756D01*
X82584731Y-119509466D01*
X82540896Y-119572372D01*
X82509762Y-119653092D01*
X82490470Y-119752245D01*
X82483050Y-119811224D01*
X82644936Y-119804445D01*
X82771495Y-119802813D01*
X82922951Y-119809194D01*
X83071396Y-119823777D01*
X83207578Y-119845882D01*
X83272245Y-119860821D01*
X83404490Y-119903741D01*
X83526762Y-119960340D01*
X83636685Y-120029017D01*
X83731883Y-120108170D01*
X83809980Y-120196196D01*
X83868599Y-120291493D01*
X83892595Y-120343864D01*
X83918232Y-120414590D01*
X83934478Y-120485812D01*
X83942822Y-120564712D01*
X83944690Y-120655282D01*
X83944755Y-120658467D01*
G36*
X83944755Y-120658467D02*
G01*
X83944261Y-120692363D01*
X83940632Y-120767202D01*
X83933022Y-120829401D01*
X83920688Y-120885984D01*
X83876313Y-121012076D01*
X83813400Y-121126679D01*
X83733238Y-121227568D01*
X83636740Y-121313924D01*
X83524822Y-121384932D01*
X83398397Y-121439776D01*
X83258378Y-121477638D01*
X83222149Y-121483351D01*
X83143155Y-121489313D01*
X83054841Y-121489646D01*
X82965075Y-121484659D01*
X82881722Y-121474666D01*
X82812651Y-121459978D01*
X82726187Y-121429749D01*
X82616286Y-121375057D01*
X82518956Y-121307543D01*
X82456867Y-121256556D01*
X82453605Y-121352622D01*
X82450343Y-121448689D01*
X82027450Y-121448689D01*
X82016543Y-121448686D01*
X81922056Y-121448380D01*
X81835331Y-121447616D01*
X81758837Y-121446451D01*
X81695043Y-121444942D01*
X81646418Y-121443147D01*
X81615433Y-121441121D01*
X81604556Y-121438922D01*
X81604578Y-121438463D01*
X81611614Y-121422910D01*
X81627434Y-121400071D01*
X81631734Y-121394638D01*
X81642777Y-121380606D01*
X81652311Y-121367186D01*
X81660461Y-121352722D01*
X81667352Y-121335556D01*
X81673111Y-121314034D01*
X81677862Y-121286498D01*
X81681731Y-121251292D01*
X81684844Y-121206760D01*
X81687325Y-121151246D01*
X81689300Y-121083093D01*
X81690894Y-121000645D01*
X81692234Y-120902246D01*
X81693444Y-120786239D01*
X81694649Y-120650968D01*
X81695595Y-120539586D01*
X82496378Y-120539586D01*
X82496378Y-120735462D01*
X82541048Y-120791973D01*
X82553785Y-120807212D01*
X82600604Y-120849844D01*
X82661255Y-120885672D01*
X82671897Y-120890850D01*
X82710676Y-120907745D01*
X82745692Y-120917909D01*
X82785722Y-120923325D01*
X82839541Y-120925978D01*
X82857648Y-120926383D01*
X82933011Y-120923540D01*
X82993743Y-120911620D01*
X83045452Y-120889037D01*
X83093746Y-120854211D01*
X83098803Y-120849798D01*
X83147272Y-120794160D01*
X83175459Y-120730333D01*
X83184752Y-120655282D01*
X83177520Y-120583693D01*
X83152796Y-120520645D01*
X83108249Y-120462758D01*
X83053319Y-120415808D01*
X82980894Y-120375961D01*
X82894340Y-120348263D01*
X82791670Y-120332096D01*
X82670894Y-120326842D01*
X82662007Y-120326857D01*
X82606660Y-120327655D01*
X82559736Y-120329488D01*
X82525953Y-120332111D01*
X82510028Y-120335274D01*
X82505943Y-120341741D01*
X82501572Y-120363875D01*
X82498604Y-120402988D01*
X82496914Y-120460939D01*
X82496378Y-120539586D01*
X81695595Y-120539586D01*
X81695975Y-120494778D01*
X81697228Y-120352012D01*
X81698651Y-120206942D01*
X81700176Y-120081027D01*
X81701933Y-119972436D01*
X81704051Y-119879334D01*
X81706660Y-119799891D01*
X81709890Y-119732273D01*
X81713869Y-119674649D01*
X81718728Y-119625185D01*
X81724597Y-119582050D01*
X81731604Y-119543410D01*
X81739880Y-119507434D01*
X81749554Y-119472289D01*
X81760756Y-119436142D01*
X81773616Y-119397161D01*
X81789090Y-119354091D01*
X81831994Y-119261871D01*
X81885735Y-119182099D01*
X81954576Y-119107965D01*
X82032185Y-119044405D01*
X82136761Y-118982725D01*
X82256244Y-118935202D01*
X82391508Y-118901567D01*
X82543426Y-118881552D01*
X82712872Y-118874889D01*
X82770890Y-118875287D01*
X82836398Y-118877335D01*
X82897693Y-118881704D01*
X82959097Y-118889035D01*
X83024932Y-118899969D01*
X83099520Y-118915147D01*
X83187184Y-118935209D01*
X83292245Y-118960797D01*
X83320806Y-118967820D01*
X83396054Y-118985776D01*
X83466388Y-119001820D01*
X83527567Y-119015028D01*
X83575354Y-119024474D01*
X83605511Y-119029231D01*
X83633783Y-119032910D01*
X83660060Y-119038187D01*
X83670059Y-119042942D01*
X83666952Y-119051781D01*
X83656194Y-119079072D01*
X83638864Y-119121906D01*
X83616126Y-119177425D01*
X83589147Y-119242772D01*
X83559090Y-119315089D01*
X83552493Y-119330879D01*
X83513907Y-119421484D01*
X83482768Y-119491217D01*
X83458917Y-119540405D01*
X83442198Y-119569374D01*
X83432454Y-119578452D01*
X83424766Y-119576405D01*
X83398415Y-119566760D01*
X83359982Y-119551190D01*
X83314822Y-119531815D01*
X83220293Y-119493814D01*
X83083480Y-119452780D01*
X82942289Y-119427612D01*
X82904314Y-119423611D01*
X82801059Y-119421447D01*
X82713952Y-119434622D01*
X82642129Y-119463756D01*
X82584731Y-119509466D01*
X82540896Y-119572372D01*
X82509762Y-119653092D01*
X82490470Y-119752245D01*
X82483050Y-119811224D01*
X82644936Y-119804445D01*
X82771495Y-119802813D01*
X82922951Y-119809194D01*
X83071396Y-119823777D01*
X83207578Y-119845882D01*
X83272245Y-119860821D01*
X83404490Y-119903741D01*
X83526762Y-119960340D01*
X83636685Y-120029017D01*
X83731883Y-120108170D01*
X83809980Y-120196196D01*
X83868599Y-120291493D01*
X83892595Y-120343864D01*
X83918232Y-120414590D01*
X83934478Y-120485812D01*
X83942822Y-120564712D01*
X83944690Y-120655282D01*
X83944755Y-120658467D01*
G37*
X91492614Y-118126792D02*
X91493059Y-118258011D01*
X91493362Y-118405216D01*
X91493548Y-118569349D01*
X91493642Y-118751352D01*
X91493671Y-118952165D01*
X91493661Y-119172732D01*
X91493636Y-119413992D01*
X91493622Y-119676889D01*
X91493622Y-119719040D01*
X91493646Y-119979668D01*
X91493685Y-120218796D01*
X91493708Y-120437360D01*
X91493687Y-120636295D01*
X91493593Y-120816535D01*
X91493395Y-120979015D01*
X91493063Y-121124670D01*
X91492569Y-121254434D01*
X91491883Y-121369243D01*
X91490976Y-121470030D01*
X91489817Y-121557730D01*
X91488378Y-121633279D01*
X91486629Y-121697611D01*
X91484540Y-121751661D01*
X91482083Y-121796363D01*
X91479227Y-121832652D01*
X91475943Y-121861463D01*
X91472202Y-121883731D01*
X91467974Y-121900390D01*
X91463229Y-121912375D01*
X91457939Y-121920621D01*
X91452073Y-121926062D01*
X91445602Y-121929634D01*
X91438497Y-121932270D01*
X91430728Y-121934906D01*
X91422266Y-121938477D01*
X91417908Y-121940145D01*
X91409395Y-121942111D01*
X91396694Y-121943911D01*
X91378885Y-121945555D01*
X91355049Y-121947047D01*
X91324266Y-121948397D01*
X91285617Y-121949611D01*
X91238182Y-121950697D01*
X91181043Y-121951661D01*
X91113279Y-121952511D01*
X91033971Y-121953253D01*
X90942199Y-121953897D01*
X90837044Y-121954447D01*
X90717587Y-121954913D01*
X90582908Y-121955300D01*
X90432088Y-121955616D01*
X90264206Y-121955869D01*
X90078345Y-121956066D01*
X89873583Y-121956213D01*
X89649002Y-121956318D01*
X89403682Y-121956389D01*
X89136704Y-121956432D01*
X89098321Y-121956437D01*
X88832922Y-121956480D01*
X88589050Y-121956525D01*
X88365783Y-121956548D01*
X88162196Y-121956524D01*
X87977367Y-121956430D01*
X87810373Y-121956243D01*
X87660290Y-121955939D01*
X87526196Y-121955494D01*
X87407166Y-121954885D01*
X87302279Y-121954089D01*
X87210610Y-121953080D01*
X87131237Y-121951837D01*
X87063237Y-121950335D01*
X87005686Y-121948551D01*
X86957662Y-121946461D01*
X86918240Y-121944042D01*
X86886499Y-121941270D01*
X86861514Y-121938121D01*
X86842364Y-121934572D01*
X86828123Y-121930598D01*
X86817871Y-121926178D01*
X86810682Y-121921286D01*
X86805635Y-121915900D01*
X86801805Y-121909996D01*
X86798271Y-121903549D01*
X86794108Y-121896537D01*
X86793025Y-121894687D01*
X86790813Y-121889180D01*
X86788786Y-121880868D01*
X86786938Y-121868809D01*
X86785261Y-121852063D01*
X86783745Y-121829687D01*
X86782383Y-121800740D01*
X86781167Y-121764280D01*
X86780089Y-121719367D01*
X86779140Y-121665057D01*
X86778312Y-121600410D01*
X86777597Y-121524484D01*
X86776987Y-121436338D01*
X86776942Y-121427493D01*
X87068378Y-121427493D01*
X87072260Y-121428765D01*
X87095520Y-121430791D01*
X87137874Y-121432626D01*
X87197132Y-121434227D01*
X87271107Y-121435549D01*
X87357610Y-121436548D01*
X87454452Y-121437180D01*
X87559445Y-121437400D01*
X88257651Y-121437400D01*
X89412090Y-121437400D01*
X89411456Y-121361200D01*
X89412574Y-121319160D01*
X89418304Y-121283334D01*
X89430890Y-121245772D01*
X89452568Y-121197577D01*
X89455789Y-121190897D01*
X89481188Y-121141359D01*
X89507996Y-121093369D01*
X89530917Y-121056466D01*
X89535485Y-121049834D01*
X89557516Y-121018593D01*
X89589693Y-120973654D01*
X89630457Y-120917147D01*
X89678245Y-120851204D01*
X89731498Y-120777957D01*
X89788655Y-120699536D01*
X89848155Y-120618072D01*
X89908437Y-120535698D01*
X89967940Y-120454544D01*
X90025105Y-120376742D01*
X90078370Y-120304423D01*
X90126174Y-120239718D01*
X90166957Y-120184759D01*
X90199158Y-120141676D01*
X90221216Y-120112602D01*
X90231571Y-120099667D01*
X90236044Y-120095351D01*
X90240236Y-120093312D01*
X90243643Y-120095926D01*
X90246325Y-120104986D01*
X90248341Y-120122285D01*
X90249748Y-120149614D01*
X90250605Y-120188765D01*
X90250970Y-120241533D01*
X90250903Y-120309707D01*
X90250460Y-120395082D01*
X90249702Y-120499449D01*
X90248685Y-120624600D01*
X90248308Y-120669300D01*
X90247169Y-120790395D01*
X90245972Y-120891688D01*
X90244636Y-120975262D01*
X90243077Y-121043204D01*
X90241215Y-121097599D01*
X90238966Y-121140532D01*
X90236248Y-121174089D01*
X90232979Y-121200355D01*
X90229078Y-121221416D01*
X90224461Y-121239357D01*
X90216192Y-121265770D01*
X90192583Y-121327772D01*
X90166685Y-121380573D01*
X90141535Y-121417645D01*
X90140339Y-121419075D01*
X90138168Y-121423424D01*
X90140328Y-121427026D01*
X90148644Y-121429951D01*
X90164940Y-121432269D01*
X90191041Y-121434051D01*
X90228771Y-121435367D01*
X90279956Y-121436286D01*
X90346420Y-121436878D01*
X90429987Y-121437215D01*
X90532483Y-121437365D01*
X90655732Y-121437400D01*
X91187296Y-121437400D01*
X91148523Y-121379783D01*
X91142432Y-121370893D01*
X91131976Y-121356069D01*
X91122579Y-121342422D01*
X91114183Y-121328765D01*
X91106733Y-121313911D01*
X91100173Y-121296670D01*
X91094446Y-121275855D01*
X91089495Y-121250280D01*
X91085266Y-121218755D01*
X91081701Y-121180093D01*
X91078744Y-121133107D01*
X91076340Y-121076608D01*
X91074431Y-121009409D01*
X91072962Y-120930322D01*
X91071876Y-120838160D01*
X91071118Y-120731734D01*
X91070630Y-120609857D01*
X91070358Y-120471341D01*
X91070243Y-120314999D01*
X91070231Y-120139642D01*
X91070265Y-119944082D01*
X91070289Y-119727133D01*
X91070280Y-119604513D01*
X91070243Y-119399447D01*
X91070227Y-119215116D01*
X91070288Y-119050334D01*
X91070484Y-118903916D01*
X91070870Y-118774674D01*
X91071505Y-118661422D01*
X91072444Y-118562975D01*
X91073745Y-118478144D01*
X91075464Y-118405744D01*
X91077659Y-118344589D01*
X91080385Y-118293492D01*
X91083701Y-118251267D01*
X91087662Y-118216727D01*
X91092325Y-118188686D01*
X91097747Y-118165958D01*
X91103986Y-118147356D01*
X91111097Y-118131693D01*
X91119138Y-118117784D01*
X91128166Y-118104441D01*
X91138236Y-118090479D01*
X91149407Y-118074711D01*
X91189197Y-118016867D01*
X90129314Y-118016867D01*
X90167311Y-118079966D01*
X90181993Y-118105005D01*
X90196531Y-118132586D01*
X90208627Y-118160700D01*
X90218532Y-118191551D01*
X90226494Y-118227344D01*
X90232761Y-118270283D01*
X90237582Y-118322574D01*
X90241206Y-118386419D01*
X90243881Y-118464025D01*
X90245857Y-118557594D01*
X90247382Y-118669333D01*
X90248704Y-118801445D01*
X90249613Y-118921434D01*
X90250020Y-119038063D01*
X90249767Y-119133531D01*
X90248857Y-119207556D01*
X90247293Y-119259855D01*
X90245079Y-119290149D01*
X90242220Y-119298156D01*
X90239161Y-119294858D01*
X90221006Y-119273408D01*
X90191275Y-119236889D01*
X90151639Y-119187442D01*
X90103771Y-119127207D01*
X90049343Y-119058327D01*
X89990027Y-118982943D01*
X89927495Y-118903196D01*
X89863421Y-118821228D01*
X89799475Y-118739180D01*
X89737331Y-118659194D01*
X89678661Y-118583411D01*
X89625137Y-118513973D01*
X89578430Y-118453021D01*
X89540214Y-118402696D01*
X89512161Y-118365140D01*
X89495943Y-118342495D01*
X89450635Y-118270212D01*
X89410661Y-118190463D01*
X89389130Y-118122188D01*
X89385827Y-118064844D01*
X89391116Y-118016867D01*
X88259356Y-118017117D01*
X88298867Y-118047722D01*
X88308248Y-118055089D01*
X88371183Y-118109438D01*
X88439997Y-118177259D01*
X88516596Y-118260516D01*
X88602888Y-118361178D01*
X88620052Y-118381847D01*
X88660833Y-118431409D01*
X88710588Y-118492326D01*
X88767955Y-118562898D01*
X88831569Y-118641424D01*
X88900069Y-118726204D01*
X88972090Y-118815537D01*
X89046270Y-118907722D01*
X89061517Y-118926702D01*
X89121246Y-119001060D01*
X89195653Y-119093848D01*
X89268131Y-119184388D01*
X89337314Y-119270978D01*
X89401841Y-119351918D01*
X89460347Y-119425506D01*
X89511470Y-119490044D01*
X89553847Y-119543829D01*
X89586115Y-119585162D01*
X89606910Y-119612342D01*
X89614869Y-119623668D01*
X89613111Y-119627771D01*
X89600230Y-119648334D01*
X89575885Y-119684561D01*
X89541247Y-119734824D01*
X89497486Y-119797492D01*
X89445775Y-119870936D01*
X89387284Y-119953527D01*
X89323184Y-120043636D01*
X89254646Y-120139631D01*
X89182843Y-120239885D01*
X89108944Y-120342768D01*
X89034121Y-120446650D01*
X88959545Y-120549901D01*
X88886387Y-120650892D01*
X88815819Y-120747994D01*
X88749011Y-120839577D01*
X88687135Y-120924011D01*
X88631361Y-120999667D01*
X88582862Y-121064916D01*
X88542807Y-121118128D01*
X88512369Y-121157673D01*
X88491944Y-121183026D01*
X88445899Y-121237295D01*
X88395612Y-121293775D01*
X88348815Y-121343669D01*
X88257651Y-121437400D01*
X87559445Y-121437400D01*
X87628356Y-121437349D01*
X87726607Y-121437091D01*
X87816030Y-121436637D01*
X87894333Y-121436010D01*
X87959223Y-121435235D01*
X88008411Y-121434335D01*
X88039604Y-121433334D01*
X88050511Y-121432257D01*
X88049322Y-121429037D01*
X88039176Y-121411452D01*
X88022040Y-121385158D01*
X88013540Y-121372691D01*
X88004329Y-121358622D01*
X87996233Y-121344351D01*
X87989185Y-121328479D01*
X87983117Y-121309609D01*
X87977961Y-121286341D01*
X87973651Y-121257278D01*
X87970119Y-121221021D01*
X87967297Y-121176170D01*
X87965118Y-121121328D01*
X87963514Y-121055097D01*
X87962419Y-120976077D01*
X87961765Y-120882871D01*
X87961484Y-120774079D01*
X87961509Y-120648303D01*
X87961772Y-120504145D01*
X87962206Y-120340207D01*
X87962745Y-120155089D01*
X87963279Y-119976232D01*
X87963805Y-119817374D01*
X87964350Y-119678316D01*
X87964945Y-119557665D01*
X87965619Y-119454028D01*
X87966403Y-119366011D01*
X87967326Y-119292223D01*
X87968419Y-119231269D01*
X87969712Y-119181757D01*
X87971235Y-119142293D01*
X87973019Y-119111484D01*
X87975092Y-119087938D01*
X87977486Y-119070260D01*
X87980230Y-119057059D01*
X87983356Y-119046940D01*
X87986892Y-119038511D01*
X87990791Y-119030375D01*
X88010438Y-118993544D01*
X88029225Y-118963391D01*
X88030272Y-118961908D01*
X88044602Y-118939659D01*
X88050511Y-118926702D01*
X88049504Y-118926249D01*
X88032305Y-118924803D01*
X87995656Y-118923480D01*
X87941962Y-118922316D01*
X87873630Y-118921347D01*
X87793064Y-118920611D01*
X87702670Y-118920142D01*
X87604853Y-118919978D01*
X87159195Y-118919978D01*
X87156120Y-120096845D01*
X87153045Y-121273711D01*
X87126407Y-121332622D01*
X87114485Y-121357183D01*
X87097246Y-121387434D01*
X87084074Y-121404560D01*
X87076076Y-121412591D01*
X87068378Y-121427493D01*
X86776942Y-121427493D01*
X86776474Y-121335029D01*
X86776050Y-121219617D01*
X86775706Y-121089160D01*
X86775434Y-120942716D01*
X86775227Y-120779344D01*
X86775076Y-120598101D01*
X86774972Y-120398048D01*
X86774908Y-120178241D01*
X86774876Y-119937739D01*
X86774867Y-119675602D01*
X86774867Y-117484031D01*
X86813249Y-117445649D01*
X86840355Y-117421911D01*
X86867253Y-117410111D01*
X86903560Y-117407267D01*
X86955489Y-117407267D01*
X86955489Y-117495206D01*
X86957427Y-117545102D01*
X86976199Y-117655523D01*
X87013217Y-117756987D01*
X87066369Y-117848152D01*
X87133546Y-117927673D01*
X87212638Y-117994205D01*
X87301534Y-118046406D01*
X87398125Y-118082930D01*
X87500300Y-118102434D01*
X87605950Y-118103573D01*
X87712964Y-118085005D01*
X87819232Y-118045384D01*
X87916219Y-117987516D01*
X88001293Y-117912684D01*
X88070015Y-117824615D01*
X88120918Y-117725616D01*
X88152535Y-117617993D01*
X88163400Y-117504054D01*
X88163400Y-117407267D01*
X89783753Y-117407267D01*
X89994897Y-117407280D01*
X90199020Y-117407330D01*
X90382686Y-117407430D01*
X90546991Y-117407592D01*
X90693029Y-117407829D01*
X90821894Y-117408153D01*
X90934683Y-117408575D01*
X91032488Y-117409109D01*
X91116404Y-117409767D01*
X91187527Y-117410561D01*
X91246950Y-117411504D01*
X91295768Y-117412608D01*
X91335077Y-117413884D01*
X91365969Y-117415347D01*
X91389541Y-117417007D01*
X91406886Y-117418878D01*
X91419099Y-117420972D01*
X91427275Y-117423300D01*
X91432508Y-117425876D01*
X91438504Y-117429445D01*
X91445279Y-117432978D01*
X91451478Y-117436488D01*
X91457126Y-117440918D01*
X91462247Y-117447208D01*
X91466869Y-117456301D01*
X91471015Y-117469139D01*
X91474713Y-117486662D01*
X91477987Y-117509813D01*
X91480863Y-117539534D01*
X91483367Y-117576765D01*
X91485524Y-117622449D01*
X91487360Y-117677527D01*
X91488900Y-117742941D01*
X91490170Y-117819633D01*
X91491195Y-117908544D01*
X91492001Y-118010617D01*
X91492034Y-118016867D01*
X91492614Y-118126792D01*
G36*
X91492614Y-118126792D02*
G01*
X91493059Y-118258011D01*
X91493362Y-118405216D01*
X91493548Y-118569349D01*
X91493642Y-118751352D01*
X91493671Y-118952165D01*
X91493661Y-119172732D01*
X91493636Y-119413992D01*
X91493622Y-119676889D01*
X91493622Y-119719040D01*
X91493646Y-119979668D01*
X91493685Y-120218796D01*
X91493708Y-120437360D01*
X91493687Y-120636295D01*
X91493593Y-120816535D01*
X91493395Y-120979015D01*
X91493063Y-121124670D01*
X91492569Y-121254434D01*
X91491883Y-121369243D01*
X91490976Y-121470030D01*
X91489817Y-121557730D01*
X91488378Y-121633279D01*
X91486629Y-121697611D01*
X91484540Y-121751661D01*
X91482083Y-121796363D01*
X91479227Y-121832652D01*
X91475943Y-121861463D01*
X91472202Y-121883731D01*
X91467974Y-121900390D01*
X91463229Y-121912375D01*
X91457939Y-121920621D01*
X91452073Y-121926062D01*
X91445602Y-121929634D01*
X91438497Y-121932270D01*
X91430728Y-121934906D01*
X91422266Y-121938477D01*
X91417908Y-121940145D01*
X91409395Y-121942111D01*
X91396694Y-121943911D01*
X91378885Y-121945555D01*
X91355049Y-121947047D01*
X91324266Y-121948397D01*
X91285617Y-121949611D01*
X91238182Y-121950697D01*
X91181043Y-121951661D01*
X91113279Y-121952511D01*
X91033971Y-121953253D01*
X90942199Y-121953897D01*
X90837044Y-121954447D01*
X90717587Y-121954913D01*
X90582908Y-121955300D01*
X90432088Y-121955616D01*
X90264206Y-121955869D01*
X90078345Y-121956066D01*
X89873583Y-121956213D01*
X89649002Y-121956318D01*
X89403682Y-121956389D01*
X89136704Y-121956432D01*
X89098321Y-121956437D01*
X88832922Y-121956480D01*
X88589050Y-121956525D01*
X88365783Y-121956548D01*
X88162196Y-121956524D01*
X87977367Y-121956430D01*
X87810373Y-121956243D01*
X87660290Y-121955939D01*
X87526196Y-121955494D01*
X87407166Y-121954885D01*
X87302279Y-121954089D01*
X87210610Y-121953080D01*
X87131237Y-121951837D01*
X87063237Y-121950335D01*
X87005686Y-121948551D01*
X86957662Y-121946461D01*
X86918240Y-121944042D01*
X86886499Y-121941270D01*
X86861514Y-121938121D01*
X86842364Y-121934572D01*
X86828123Y-121930598D01*
X86817871Y-121926178D01*
X86810682Y-121921286D01*
X86805635Y-121915900D01*
X86801805Y-121909996D01*
X86798271Y-121903549D01*
X86794108Y-121896537D01*
X86793025Y-121894687D01*
X86790813Y-121889180D01*
X86788786Y-121880868D01*
X86786938Y-121868809D01*
X86785261Y-121852063D01*
X86783745Y-121829687D01*
X86782383Y-121800740D01*
X86781167Y-121764280D01*
X86780089Y-121719367D01*
X86779140Y-121665057D01*
X86778312Y-121600410D01*
X86777597Y-121524484D01*
X86776987Y-121436338D01*
X86776942Y-121427493D01*
X87068378Y-121427493D01*
X87072260Y-121428765D01*
X87095520Y-121430791D01*
X87137874Y-121432626D01*
X87197132Y-121434227D01*
X87271107Y-121435549D01*
X87357610Y-121436548D01*
X87454452Y-121437180D01*
X87559445Y-121437400D01*
X88257651Y-121437400D01*
X89412090Y-121437400D01*
X89411456Y-121361200D01*
X89412574Y-121319160D01*
X89418304Y-121283334D01*
X89430890Y-121245772D01*
X89452568Y-121197577D01*
X89455789Y-121190897D01*
X89481188Y-121141359D01*
X89507996Y-121093369D01*
X89530917Y-121056466D01*
X89535485Y-121049834D01*
X89557516Y-121018593D01*
X89589693Y-120973654D01*
X89630457Y-120917147D01*
X89678245Y-120851204D01*
X89731498Y-120777957D01*
X89788655Y-120699536D01*
X89848155Y-120618072D01*
X89908437Y-120535698D01*
X89967940Y-120454544D01*
X90025105Y-120376742D01*
X90078370Y-120304423D01*
X90126174Y-120239718D01*
X90166957Y-120184759D01*
X90199158Y-120141676D01*
X90221216Y-120112602D01*
X90231571Y-120099667D01*
X90236044Y-120095351D01*
X90240236Y-120093312D01*
X90243643Y-120095926D01*
X90246325Y-120104986D01*
X90248341Y-120122285D01*
X90249748Y-120149614D01*
X90250605Y-120188765D01*
X90250970Y-120241533D01*
X90250903Y-120309707D01*
X90250460Y-120395082D01*
X90249702Y-120499449D01*
X90248685Y-120624600D01*
X90248308Y-120669300D01*
X90247169Y-120790395D01*
X90245972Y-120891688D01*
X90244636Y-120975262D01*
X90243077Y-121043204D01*
X90241215Y-121097599D01*
X90238966Y-121140532D01*
X90236248Y-121174089D01*
X90232979Y-121200355D01*
X90229078Y-121221416D01*
X90224461Y-121239357D01*
X90216192Y-121265770D01*
X90192583Y-121327772D01*
X90166685Y-121380573D01*
X90141535Y-121417645D01*
X90140339Y-121419075D01*
X90138168Y-121423424D01*
X90140328Y-121427026D01*
X90148644Y-121429951D01*
X90164940Y-121432269D01*
X90191041Y-121434051D01*
X90228771Y-121435367D01*
X90279956Y-121436286D01*
X90346420Y-121436878D01*
X90429987Y-121437215D01*
X90532483Y-121437365D01*
X90655732Y-121437400D01*
X91187296Y-121437400D01*
X91148523Y-121379783D01*
X91142432Y-121370893D01*
X91131976Y-121356069D01*
X91122579Y-121342422D01*
X91114183Y-121328765D01*
X91106733Y-121313911D01*
X91100173Y-121296670D01*
X91094446Y-121275855D01*
X91089495Y-121250280D01*
X91085266Y-121218755D01*
X91081701Y-121180093D01*
X91078744Y-121133107D01*
X91076340Y-121076608D01*
X91074431Y-121009409D01*
X91072962Y-120930322D01*
X91071876Y-120838160D01*
X91071118Y-120731734D01*
X91070630Y-120609857D01*
X91070358Y-120471341D01*
X91070243Y-120314999D01*
X91070231Y-120139642D01*
X91070265Y-119944082D01*
X91070289Y-119727133D01*
X91070280Y-119604513D01*
X91070243Y-119399447D01*
X91070227Y-119215116D01*
X91070288Y-119050334D01*
X91070484Y-118903916D01*
X91070870Y-118774674D01*
X91071505Y-118661422D01*
X91072444Y-118562975D01*
X91073745Y-118478144D01*
X91075464Y-118405744D01*
X91077659Y-118344589D01*
X91080385Y-118293492D01*
X91083701Y-118251267D01*
X91087662Y-118216727D01*
X91092325Y-118188686D01*
X91097747Y-118165958D01*
X91103986Y-118147356D01*
X91111097Y-118131693D01*
X91119138Y-118117784D01*
X91128166Y-118104441D01*
X91138236Y-118090479D01*
X91149407Y-118074711D01*
X91189197Y-118016867D01*
X90129314Y-118016867D01*
X90167311Y-118079966D01*
X90181993Y-118105005D01*
X90196531Y-118132586D01*
X90208627Y-118160700D01*
X90218532Y-118191551D01*
X90226494Y-118227344D01*
X90232761Y-118270283D01*
X90237582Y-118322574D01*
X90241206Y-118386419D01*
X90243881Y-118464025D01*
X90245857Y-118557594D01*
X90247382Y-118669333D01*
X90248704Y-118801445D01*
X90249613Y-118921434D01*
X90250020Y-119038063D01*
X90249767Y-119133531D01*
X90248857Y-119207556D01*
X90247293Y-119259855D01*
X90245079Y-119290149D01*
X90242220Y-119298156D01*
X90239161Y-119294858D01*
X90221006Y-119273408D01*
X90191275Y-119236889D01*
X90151639Y-119187442D01*
X90103771Y-119127207D01*
X90049343Y-119058327D01*
X89990027Y-118982943D01*
X89927495Y-118903196D01*
X89863421Y-118821228D01*
X89799475Y-118739180D01*
X89737331Y-118659194D01*
X89678661Y-118583411D01*
X89625137Y-118513973D01*
X89578430Y-118453021D01*
X89540214Y-118402696D01*
X89512161Y-118365140D01*
X89495943Y-118342495D01*
X89450635Y-118270212D01*
X89410661Y-118190463D01*
X89389130Y-118122188D01*
X89385827Y-118064844D01*
X89391116Y-118016867D01*
X88259356Y-118017117D01*
X88298867Y-118047722D01*
X88308248Y-118055089D01*
X88371183Y-118109438D01*
X88439997Y-118177259D01*
X88516596Y-118260516D01*
X88602888Y-118361178D01*
X88620052Y-118381847D01*
X88660833Y-118431409D01*
X88710588Y-118492326D01*
X88767955Y-118562898D01*
X88831569Y-118641424D01*
X88900069Y-118726204D01*
X88972090Y-118815537D01*
X89046270Y-118907722D01*
X89061517Y-118926702D01*
X89121246Y-119001060D01*
X89195653Y-119093848D01*
X89268131Y-119184388D01*
X89337314Y-119270978D01*
X89401841Y-119351918D01*
X89460347Y-119425506D01*
X89511470Y-119490044D01*
X89553847Y-119543829D01*
X89586115Y-119585162D01*
X89606910Y-119612342D01*
X89614869Y-119623668D01*
X89613111Y-119627771D01*
X89600230Y-119648334D01*
X89575885Y-119684561D01*
X89541247Y-119734824D01*
X89497486Y-119797492D01*
X89445775Y-119870936D01*
X89387284Y-119953527D01*
X89323184Y-120043636D01*
X89254646Y-120139631D01*
X89182843Y-120239885D01*
X89108944Y-120342768D01*
X89034121Y-120446650D01*
X88959545Y-120549901D01*
X88886387Y-120650892D01*
X88815819Y-120747994D01*
X88749011Y-120839577D01*
X88687135Y-120924011D01*
X88631361Y-120999667D01*
X88582862Y-121064916D01*
X88542807Y-121118128D01*
X88512369Y-121157673D01*
X88491944Y-121183026D01*
X88445899Y-121237295D01*
X88395612Y-121293775D01*
X88348815Y-121343669D01*
X88257651Y-121437400D01*
X87559445Y-121437400D01*
X87628356Y-121437349D01*
X87726607Y-121437091D01*
X87816030Y-121436637D01*
X87894333Y-121436010D01*
X87959223Y-121435235D01*
X88008411Y-121434335D01*
X88039604Y-121433334D01*
X88050511Y-121432257D01*
X88049322Y-121429037D01*
X88039176Y-121411452D01*
X88022040Y-121385158D01*
X88013540Y-121372691D01*
X88004329Y-121358622D01*
X87996233Y-121344351D01*
X87989185Y-121328479D01*
X87983117Y-121309609D01*
X87977961Y-121286341D01*
X87973651Y-121257278D01*
X87970119Y-121221021D01*
X87967297Y-121176170D01*
X87965118Y-121121328D01*
X87963514Y-121055097D01*
X87962419Y-120976077D01*
X87961765Y-120882871D01*
X87961484Y-120774079D01*
X87961509Y-120648303D01*
X87961772Y-120504145D01*
X87962206Y-120340207D01*
X87962745Y-120155089D01*
X87963279Y-119976232D01*
X87963805Y-119817374D01*
X87964350Y-119678316D01*
X87964945Y-119557665D01*
X87965619Y-119454028D01*
X87966403Y-119366011D01*
X87967326Y-119292223D01*
X87968419Y-119231269D01*
X87969712Y-119181757D01*
X87971235Y-119142293D01*
X87973019Y-119111484D01*
X87975092Y-119087938D01*
X87977486Y-119070260D01*
X87980230Y-119057059D01*
X87983356Y-119046940D01*
X87986892Y-119038511D01*
X87990791Y-119030375D01*
X88010438Y-118993544D01*
X88029225Y-118963391D01*
X88030272Y-118961908D01*
X88044602Y-118939659D01*
X88050511Y-118926702D01*
X88049504Y-118926249D01*
X88032305Y-118924803D01*
X87995656Y-118923480D01*
X87941962Y-118922316D01*
X87873630Y-118921347D01*
X87793064Y-118920611D01*
X87702670Y-118920142D01*
X87604853Y-118919978D01*
X87159195Y-118919978D01*
X87156120Y-120096845D01*
X87153045Y-121273711D01*
X87126407Y-121332622D01*
X87114485Y-121357183D01*
X87097246Y-121387434D01*
X87084074Y-121404560D01*
X87076076Y-121412591D01*
X87068378Y-121427493D01*
X86776942Y-121427493D01*
X86776474Y-121335029D01*
X86776050Y-121219617D01*
X86775706Y-121089160D01*
X86775434Y-120942716D01*
X86775227Y-120779344D01*
X86775076Y-120598101D01*
X86774972Y-120398048D01*
X86774908Y-120178241D01*
X86774876Y-119937739D01*
X86774867Y-119675602D01*
X86774867Y-117484031D01*
X86813249Y-117445649D01*
X86840355Y-117421911D01*
X86867253Y-117410111D01*
X86903560Y-117407267D01*
X86955489Y-117407267D01*
X86955489Y-117495206D01*
X86957427Y-117545102D01*
X86976199Y-117655523D01*
X87013217Y-117756987D01*
X87066369Y-117848152D01*
X87133546Y-117927673D01*
X87212638Y-117994205D01*
X87301534Y-118046406D01*
X87398125Y-118082930D01*
X87500300Y-118102434D01*
X87605950Y-118103573D01*
X87712964Y-118085005D01*
X87819232Y-118045384D01*
X87916219Y-117987516D01*
X88001293Y-117912684D01*
X88070015Y-117824615D01*
X88120918Y-117725616D01*
X88152535Y-117617993D01*
X88163400Y-117504054D01*
X88163400Y-117407267D01*
X89783753Y-117407267D01*
X89994897Y-117407280D01*
X90199020Y-117407330D01*
X90382686Y-117407430D01*
X90546991Y-117407592D01*
X90693029Y-117407829D01*
X90821894Y-117408153D01*
X90934683Y-117408575D01*
X91032488Y-117409109D01*
X91116404Y-117409767D01*
X91187527Y-117410561D01*
X91246950Y-117411504D01*
X91295768Y-117412608D01*
X91335077Y-117413884D01*
X91365969Y-117415347D01*
X91389541Y-117417007D01*
X91406886Y-117418878D01*
X91419099Y-117420972D01*
X91427275Y-117423300D01*
X91432508Y-117425876D01*
X91438504Y-117429445D01*
X91445279Y-117432978D01*
X91451478Y-117436488D01*
X91457126Y-117440918D01*
X91462247Y-117447208D01*
X91466869Y-117456301D01*
X91471015Y-117469139D01*
X91474713Y-117486662D01*
X91477987Y-117509813D01*
X91480863Y-117539534D01*
X91483367Y-117576765D01*
X91485524Y-117622449D01*
X91487360Y-117677527D01*
X91488900Y-117742941D01*
X91490170Y-117819633D01*
X91491195Y-117908544D01*
X91492001Y-118010617D01*
X91492034Y-118016867D01*
X91492614Y-118126792D01*
G37*
D13*
%TO.C,JP3*%
X126762000Y-135282000D02*
X126762000Y-138082000D01*
X127462000Y-138732000D02*
X128062000Y-138732000D01*
X128062000Y-134632000D02*
X127462000Y-134632000D01*
X128762000Y-138082000D02*
X128762000Y-135282000D01*
X126762000Y-135332000D02*
G75*
G02*
X127462000Y-134632000I699999J1D01*
G01*
X127462000Y-138732000D02*
G75*
G02*
X126762000Y-138032000I0J700000D01*
G01*
X128062000Y-134632000D02*
G75*
G02*
X128762000Y-135332000I1J-699999D01*
G01*
X128762000Y-138032000D02*
G75*
G02*
X128062000Y-138732000I-700000J0D01*
G01*
%TO.C,JP1*%
X124222000Y-135282000D02*
X124222000Y-138082000D01*
X124922000Y-138732000D02*
X125522000Y-138732000D01*
X125522000Y-134632000D02*
X124922000Y-134632000D01*
X126222000Y-138082000D02*
X126222000Y-135282000D01*
X124222000Y-135332000D02*
G75*
G02*
X124922000Y-134632000I699999J1D01*
G01*
X124922000Y-138732000D02*
G75*
G02*
X124222000Y-138032000I0J700000D01*
G01*
X125522000Y-134632000D02*
G75*
G02*
X126222000Y-135332000I1J-699999D01*
G01*
X126222000Y-138032000D02*
G75*
G02*
X125522000Y-138732000I-700000J0D01*
G01*
%TO.C,JP2*%
X129302000Y-135282000D02*
X129302000Y-138082000D01*
X130002000Y-138732000D02*
X130602000Y-138732000D01*
X130602000Y-134632000D02*
X130002000Y-134632000D01*
X131302000Y-138082000D02*
X131302000Y-135282000D01*
X129302000Y-135332000D02*
G75*
G02*
X130002000Y-134632000I699999J1D01*
G01*
X130002000Y-138732000D02*
G75*
G02*
X129302000Y-138032000I0J700000D01*
G01*
X130602000Y-134632000D02*
G75*
G02*
X131302000Y-135332000I1J-699999D01*
G01*
X131302000Y-138032000D02*
G75*
G02*
X130602000Y-138732000I-700000J0D01*
G01*
%TD*%
M02*
