%TF.GenerationSoftware,KiCad,Pcbnew,9.0.7*%
%TF.CreationDate,2026-09-12T17:01:17+02:00*%
%TF.ProjectId,1551-III-Pico,31353531-2d49-4494-992d-5069636f2e6b,2b*%
%TF.SameCoordinates,Original*%
%TF.FileFunction,Soldermask,Bot*%
%TF.FilePolarity,Negative*%
%FSLAX46Y46*%
G04 Gerber Fmt 4.6, Leading zero omitted, Abs format (unit mm)*
G04 Created by KiCad (PCBNEW 9.0.7) date 2026-09-12 17:01:17*
%MOMM*%
%LPD*%
G01*
G04 APERTURE LIST*
G04 Aperture macros list*
%AMRoundRect*
0 Rectangle with rounded corners*
0 $1 Rounding radius*
0 $2 $3 $4 $5 $6 $7 $8 $9 X,Y pos of 4 corners*
0 Add a 4 corners polygon primitive as box body*
4,1,4,$2,$3,$4,$5,$6,$7,$8,$9,$2,$3,0*
0 Add four circle primitives for the rounded corners*
1,1,$1+$1,$2,$3*
1,1,$1+$1,$4,$5*
1,1,$1+$1,$6,$7*
1,1,$1+$1,$8,$9*
0 Add four rect primitives between the rounded corners*
20,1,$1+$1,$2,$3,$4,$5,0*
20,1,$1+$1,$4,$5,$6,$7,0*
20,1,$1+$1,$6,$7,$8,$9,0*
20,1,$1+$1,$8,$9,$2,$3,0*%
%AMFreePoly0*
4,1,23,0.550000,-0.750000,0.000000,-0.750000,0.000000,-0.745722,-0.065263,-0.745722,-0.191342,-0.711940,-0.304381,-0.646677,-0.396677,-0.554381,-0.461940,-0.441342,-0.495722,-0.315263,-0.495722,-0.250000,-0.500000,-0.250000,-0.500000,0.250000,-0.495722,0.250000,-0.495722,0.315263,-0.461940,0.441342,-0.396677,0.554381,-0.304381,0.646677,-0.191342,0.711940,-0.065263,0.745722,0.000000,0.745722,
0.000000,0.750000,0.550000,0.750000,0.550000,-0.750000,0.550000,-0.750000,$1*%
%AMFreePoly1*
4,1,23,0.000000,0.745722,0.065263,0.745722,0.191342,0.711940,0.304381,0.646677,0.396677,0.554381,0.461940,0.441342,0.495722,0.315263,0.495722,0.250000,0.500000,0.250000,0.500000,-0.250000,0.495722,-0.250000,0.495722,-0.315263,0.461940,-0.441342,0.396677,-0.554381,0.304381,-0.646677,0.191342,-0.711940,0.065263,-0.745722,0.000000,-0.745722,0.000000,-0.750000,-0.550000,-0.750000,
-0.550000,0.750000,0.000000,0.750000,0.000000,0.745722,0.000000,0.745722,$1*%
G04 Aperture macros list end*
%ADD10C,5.100000*%
%ADD11R,1.600000X1.600000*%
%ADD12C,1.600000*%
%ADD13R,3.500000X3.500000*%
%ADD14R,1.700000X1.700000*%
%ADD15O,1.700000X1.700000*%
%ADD16RoundRect,0.250000X0.600000X-0.600000X0.600000X0.600000X-0.600000X0.600000X-0.600000X-0.600000X0*%
%ADD17C,1.700000*%
%ADD18RoundRect,0.250000X-0.950000X-0.550000X0.950000X-0.550000X0.950000X0.550000X-0.950000X0.550000X0*%
%ADD19O,2.400000X1.600000*%
%ADD20O,1.800000X1.800000*%
%ADD21O,1.500000X1.500000*%
%ADD22RoundRect,0.250000X-0.550000X-0.550000X0.550000X-0.550000X0.550000X0.550000X-0.550000X0.550000X0*%
%ADD23FreePoly0,270.000000*%
%ADD24R,1.500000X1.000000*%
%ADD25FreePoly1,270.000000*%
G04 APERTURE END LIST*
%TO.C,JP3*%
G36*
X127012000Y-135932000D02*
G01*
X128512000Y-135932000D01*
X128512000Y-137432000D01*
X127012000Y-137432000D01*
X127012000Y-135932000D01*
G37*
%TO.C,JP1*%
G36*
X124472000Y-135932000D02*
G01*
X125972000Y-135932000D01*
X125972000Y-137432000D01*
X124472000Y-137432000D01*
X124472000Y-135932000D01*
G37*
%TO.C,JP2*%
G36*
X129552000Y-135932000D02*
G01*
X131052000Y-135932000D01*
X131052000Y-137432000D01*
X129552000Y-137432000D01*
X129552000Y-135932000D01*
G37*
%TD*%
D10*
%TO.C,M1*%
X73355000Y-151435000D03*
%TD*%
D11*
%TO.C,C7*%
X76581000Y-68962700D03*
D12*
X76581000Y-65462700D03*
%TD*%
D13*
%TO.C,J4*%
X90000000Y-68500000D03*
X90000000Y-62500000D03*
X85300000Y-65500000D03*
%TD*%
D14*
%TO.C,J5*%
X112560000Y-140970000D03*
D15*
X115100000Y-140970000D03*
X117640000Y-140970000D03*
X120180000Y-140970000D03*
X122720000Y-140970000D03*
X125260000Y-140970000D03*
X127800000Y-140970000D03*
X130340000Y-140970000D03*
X132880000Y-140970000D03*
X135420000Y-140970000D03*
X137960000Y-140970000D03*
X140500000Y-140970000D03*
%TD*%
D10*
%TO.C,M2*%
X167005000Y-151435000D03*
%TD*%
%TO.C,M3*%
X167005000Y-57785000D03*
%TD*%
%TO.C,M4*%
X73355000Y-57785000D03*
%TD*%
D16*
%TO.C,J1*%
X139610000Y-62992000D03*
D17*
X139610000Y-60452000D03*
X142150000Y-62992000D03*
X142150000Y-60452000D03*
X144690000Y-62992000D03*
X144690000Y-60452000D03*
X147230000Y-62992000D03*
X147230000Y-60452000D03*
X149770000Y-62992000D03*
X149770000Y-60452000D03*
X152310000Y-62992000D03*
X152310000Y-60452000D03*
X154850000Y-62992000D03*
X154850000Y-60452000D03*
X157390000Y-62992000D03*
X157390000Y-60452000D03*
%TD*%
D14*
%TO.C,J7*%
X167939000Y-71432000D03*
D17*
X167939000Y-73972000D03*
%TD*%
D18*
%TO.C,U4*%
X98171000Y-94996000D03*
D19*
X98171000Y-97536000D03*
X98171000Y-100076000D03*
X98171000Y-102616000D03*
X98171000Y-105156000D03*
X98171000Y-107696000D03*
X98171000Y-110236000D03*
X98171000Y-112776000D03*
X98171000Y-115316000D03*
X98171000Y-117856000D03*
X98171000Y-120396000D03*
X98171000Y-122936000D03*
X98171000Y-125476000D03*
X98171000Y-128016000D03*
X113411000Y-128016000D03*
X113411000Y-125476000D03*
X113411000Y-122936000D03*
X113411000Y-120396000D03*
X113411000Y-117856000D03*
X113411000Y-115316000D03*
X113411000Y-112776000D03*
X113411000Y-110236000D03*
X113411000Y-107696000D03*
X113411000Y-105156000D03*
X113411000Y-102616000D03*
X113411000Y-100076000D03*
X113411000Y-97536000D03*
X113411000Y-94996000D03*
%TD*%
D14*
%TO.C,J6*%
X113538000Y-70485000D03*
D17*
X116078000Y-70485000D03*
X118618000Y-70485000D03*
X121158000Y-70485000D03*
X123698000Y-70485000D03*
X126238000Y-70485000D03*
%TD*%
D20*
%TO.C,U3*%
X81984000Y-79632000D03*
D21*
X82284000Y-82662000D03*
X87134000Y-82662000D03*
D20*
X87434000Y-79632000D03*
D15*
X75819000Y-79502000D03*
X75819000Y-82042000D03*
D14*
X75819000Y-84582000D03*
D15*
X75819000Y-87122000D03*
X75819000Y-89662000D03*
X75819000Y-92202000D03*
X75819000Y-94742000D03*
D14*
X75819000Y-97282000D03*
D15*
X75819000Y-99822000D03*
X75819000Y-102362000D03*
X75819000Y-104902000D03*
X75819000Y-107442000D03*
D14*
X75819000Y-109982000D03*
D15*
X75819000Y-112522000D03*
X75819000Y-115062000D03*
X75819000Y-117602000D03*
X75819000Y-120142000D03*
D14*
X75819000Y-122682000D03*
D15*
X75819000Y-125222000D03*
X75819000Y-127762000D03*
X93599000Y-127762000D03*
X93599000Y-125222000D03*
D14*
X93599000Y-122682000D03*
D15*
X93599000Y-120142000D03*
X93599000Y-117602000D03*
X93599000Y-115062000D03*
X93599000Y-112522000D03*
D14*
X93599000Y-109982000D03*
D15*
X93599000Y-107442000D03*
X93599000Y-104902000D03*
X93599000Y-102362000D03*
X93599000Y-99822000D03*
D14*
X93599000Y-97282000D03*
D15*
X93599000Y-94742000D03*
X93599000Y-92202000D03*
X93599000Y-89662000D03*
X93599000Y-87122000D03*
D14*
X93599000Y-84582000D03*
D15*
X93599000Y-82042000D03*
X93599000Y-79502000D03*
X82169000Y-127532000D03*
D14*
X84709000Y-127532000D03*
D15*
X87249000Y-127532000D03*
%TD*%
D18*
%TO.C,U5*%
X116505000Y-94996000D03*
D19*
X116505000Y-97536000D03*
X116505000Y-100076000D03*
X116505000Y-102616000D03*
X116505000Y-105156000D03*
X116505000Y-107696000D03*
X116505000Y-110236000D03*
X116505000Y-112776000D03*
X116505000Y-115316000D03*
X116505000Y-117856000D03*
X116505000Y-120396000D03*
X116505000Y-122936000D03*
X116505000Y-125476000D03*
X116505000Y-128016000D03*
X131745000Y-128016000D03*
X131745000Y-125476000D03*
X131745000Y-122936000D03*
X131745000Y-120396000D03*
X131745000Y-117856000D03*
X131745000Y-115316000D03*
X131745000Y-112776000D03*
X131745000Y-110236000D03*
X131745000Y-107696000D03*
X131745000Y-105156000D03*
X131745000Y-102616000D03*
X131745000Y-100076000D03*
X131745000Y-97536000D03*
X131745000Y-94996000D03*
%TD*%
D22*
%TO.C,U6*%
X140589000Y-79761000D03*
D12*
X140589000Y-82301000D03*
X140589000Y-84841000D03*
X140589000Y-87381000D03*
X140589000Y-89921000D03*
X140589000Y-92461000D03*
X140589000Y-95001000D03*
X140589000Y-97541000D03*
X140589000Y-100081000D03*
X140589000Y-102621000D03*
X140589000Y-105161000D03*
X140589000Y-107701000D03*
X140589000Y-110241000D03*
X140589000Y-112781000D03*
X140589000Y-115321000D03*
X140589000Y-117861000D03*
X140589000Y-120401000D03*
X140589000Y-122941000D03*
X140589000Y-125481000D03*
X140589000Y-128021000D03*
X155829000Y-128021000D03*
X155829000Y-125481000D03*
X155829000Y-122941000D03*
X155829000Y-120401000D03*
X155829000Y-117861000D03*
X155829000Y-115321000D03*
X155829000Y-112781000D03*
X155829000Y-110241000D03*
X155829000Y-107701000D03*
X155829000Y-105161000D03*
X155829000Y-102621000D03*
X155829000Y-100081000D03*
X155829000Y-97541000D03*
X155829000Y-95001000D03*
X155829000Y-92461000D03*
X155829000Y-89921000D03*
X155829000Y-87381000D03*
X155829000Y-84841000D03*
X155829000Y-82301000D03*
X155829000Y-79761000D03*
%TD*%
D14*
%TO.C,J3*%
X164211000Y-71374000D03*
D17*
X164211000Y-73914000D03*
X164211000Y-76454000D03*
X164211000Y-78994000D03*
X164211000Y-81534000D03*
X164211000Y-84074000D03*
%TD*%
D14*
%TO.C,J2*%
X168021000Y-84079000D03*
D17*
X168021000Y-81539000D03*
%TD*%
D23*
%TO.C,JP3*%
X127762000Y-135382000D03*
D24*
X127762000Y-136682000D03*
D25*
X127762000Y-137982000D03*
%TD*%
D23*
%TO.C,JP1*%
X125222000Y-135382000D03*
D24*
X125222000Y-136682000D03*
D25*
X125222000Y-137982000D03*
%TD*%
D23*
%TO.C,JP2*%
X130302000Y-135382000D03*
D24*
X130302000Y-136682000D03*
D25*
X130302000Y-137982000D03*
%TD*%
M02*
