%TF.GenerationSoftware,KiCad,Pcbnew,9.0.7*%
%TF.CreationDate,2026-07-16T22:19:29+02:00*%
%TF.ProjectId,1551-rePico,31353531-2d72-4655-9069-636f2e6b6963,1.0*%
%TF.SameCoordinates,Original*%
%TF.FileFunction,Soldermask,Bot*%
%TF.FilePolarity,Negative*%
%FSLAX46Y46*%
G04 Gerber Fmt 4.6, Leading zero omitted, Abs format (unit mm)*
G04 Created by KiCad (PCBNEW 9.0.7) date 2026-07-16 22:19:29*
%MOMM*%
%LPD*%
G01*
G04 APERTURE LIST*
G04 Aperture macros list*
%AMRoundRect*
0 Rectangle with rounded corners*
0 $1 Rounding radius*
0 $2 $3 $4 $5 $6 $7 $8 $9 X,Y pos of 4 corners*
0 Add a 4 corners polygon primitive as box body*
4,1,4,$2,$3,$4,$5,$6,$7,$8,$9,$2,$3,0*
0 Add four circle primitives for the rounded corners*
1,1,$1+$1,$2,$3*
1,1,$1+$1,$4,$5*
1,1,$1+$1,$6,$7*
1,1,$1+$1,$8,$9*
0 Add four rect primitives between the rounded corners*
20,1,$1+$1,$2,$3,$4,$5,0*
20,1,$1+$1,$4,$5,$6,$7,0*
20,1,$1+$1,$6,$7,$8,$9,0*
20,1,$1+$1,$8,$9,$2,$3,0*%
%AMFreePoly0*
4,1,23,0.550000,-0.750000,0.000000,-0.750000,0.000000,-0.745722,-0.065263,-0.745722,-0.191342,-0.711940,-0.304381,-0.646677,-0.396677,-0.554381,-0.461940,-0.441342,-0.495722,-0.315263,-0.495722,-0.250000,-0.500000,-0.250000,-0.500000,0.250000,-0.495722,0.250000,-0.495722,0.315263,-0.461940,0.441342,-0.396677,0.554381,-0.304381,0.646677,-0.191342,0.711940,-0.065263,0.745722,0.000000,0.745722,
0.000000,0.750000,0.550000,0.750000,0.550000,-0.750000,0.550000,-0.750000,$1*%
%AMFreePoly1*
4,1,23,0.000000,0.745722,0.065263,0.745722,0.191342,0.711940,0.304381,0.646677,0.396677,0.554381,0.461940,0.441342,0.495722,0.315263,0.495722,0.250000,0.500000,0.250000,0.500000,-0.250000,0.495722,-0.250000,0.495722,-0.315263,0.461940,-0.441342,0.396677,-0.554381,0.304381,-0.646677,0.191342,-0.711940,0.065263,-0.745722,0.000000,-0.745722,0.000000,-0.750000,-0.550000,-0.750000,
-0.550000,0.750000,0.000000,0.750000,0.000000,0.745722,0.000000,0.745722,$1*%
%AMFreePoly2*
4,1,23,0.500000,-0.750000,0.000000,-0.750000,0.000000,-0.745722,-0.065263,-0.745722,-0.191342,-0.711940,-0.304381,-0.646677,-0.396677,-0.554381,-0.461940,-0.441342,-0.495722,-0.315263,-0.495722,-0.250000,-0.500000,-0.250000,-0.500000,0.250000,-0.495722,0.250000,-0.495722,0.315263,-0.461940,0.441342,-0.396677,0.554381,-0.304381,0.646677,-0.191342,0.711940,-0.065263,0.745722,0.000000,0.745722,
0.000000,0.750000,0.500000,0.750000,0.500000,-0.750000,0.500000,-0.750000,$1*%
%AMFreePoly3*
4,1,23,0.000000,0.745722,0.065263,0.745722,0.191342,0.711940,0.304381,0.646677,0.396677,0.554381,0.461940,0.441342,0.495722,0.315263,0.495722,0.250000,0.500000,0.250000,0.500000,-0.250000,0.495722,-0.250000,0.495722,-0.315263,0.461940,-0.441342,0.396677,-0.554381,0.304381,-0.646677,0.191342,-0.711940,0.065263,-0.745722,0.000000,-0.745722,0.000000,-0.750000,-0.500000,-0.750000,
-0.500000,0.750000,0.000000,0.750000,0.000000,0.745722,0.000000,0.745722,$1*%
G04 Aperture macros list end*
%ADD10RoundRect,0.250000X0.550000X-0.550000X0.550000X0.550000X-0.550000X0.550000X-0.550000X-0.550000X0*%
%ADD11C,1.600000*%
%ADD12R,1.700000X1.700000*%
%ADD13C,1.700000*%
%ADD14RoundRect,0.250000X-0.600000X-0.600000X0.600000X-0.600000X0.600000X0.600000X-0.600000X0.600000X0*%
%ADD15O,1.800000X1.800000*%
%ADD16O,1.500000X1.500000*%
%ADD17O,1.700000X1.700000*%
%ADD18RoundRect,0.075000X0.415425X0.521491X-0.521491X-0.415425X-0.415425X-0.521491X0.521491X0.415425X0*%
%ADD19RoundRect,0.075000X-0.415425X0.521491X-0.521491X0.415425X0.415425X-0.521491X0.521491X-0.415425X0*%
%ADD20RoundRect,0.250000X0.475000X-0.337500X0.475000X0.337500X-0.475000X0.337500X-0.475000X-0.337500X0*%
%ADD21RoundRect,0.150000X-0.587500X-0.150000X0.587500X-0.150000X0.587500X0.150000X-0.587500X0.150000X0*%
%ADD22RoundRect,0.250000X-0.350000X-0.450000X0.350000X-0.450000X0.350000X0.450000X-0.350000X0.450000X0*%
%ADD23RoundRect,0.250000X0.337500X0.475000X-0.337500X0.475000X-0.337500X-0.475000X0.337500X-0.475000X0*%
%ADD24FreePoly0,180.000000*%
%ADD25R,1.000000X1.500000*%
%ADD26FreePoly1,180.000000*%
%ADD27RoundRect,0.250000X0.450000X-0.350000X0.450000X0.350000X-0.450000X0.350000X-0.450000X-0.350000X0*%
%ADD28RoundRect,0.250000X0.350000X0.450000X-0.350000X0.450000X-0.350000X-0.450000X0.350000X-0.450000X0*%
%ADD29RoundRect,0.250000X-0.475000X0.337500X-0.475000X-0.337500X0.475000X-0.337500X0.475000X0.337500X0*%
%ADD30FreePoly2,270.000000*%
%ADD31FreePoly3,270.000000*%
G04 APERTURE END LIST*
%TO.C,JP4*%
G36*
X131245600Y-143877600D02*
G01*
X129745600Y-143877600D01*
X129745600Y-145377600D01*
X131245600Y-145377600D01*
X131245600Y-143877600D01*
G37*
%TO.C,JP3*%
G36*
X125022600Y-143883600D02*
G01*
X123522600Y-143883600D01*
X123522600Y-145383600D01*
X125022600Y-145383600D01*
X125022600Y-143883600D01*
G37*
%TO.C,JP1*%
G36*
X119107600Y-131254600D02*
G01*
X120607600Y-131254600D01*
X120607600Y-131554600D01*
X119107600Y-131554600D01*
X119107600Y-131254600D01*
G37*
%TD*%
D10*
%TO.C,U5*%
X107035600Y-81254600D03*
D11*
X109575600Y-81254600D03*
X112115600Y-81254600D03*
X114655600Y-81254600D03*
X117195600Y-81254600D03*
X119735600Y-81254600D03*
X122275600Y-81254600D03*
X124815600Y-81254600D03*
X127355600Y-81254600D03*
X129895600Y-81254600D03*
X132435600Y-81254600D03*
X134975600Y-81254600D03*
X137515600Y-81254600D03*
X140055600Y-81254600D03*
X142595600Y-81254600D03*
X145135600Y-81254600D03*
X147675600Y-81254600D03*
X150215600Y-81254600D03*
X152755600Y-81254600D03*
X155295600Y-81254600D03*
X155295600Y-66014600D03*
X152755600Y-66014600D03*
X150215600Y-66014600D03*
X147675600Y-66014600D03*
X145135600Y-66014600D03*
X142595600Y-66014600D03*
X140055600Y-66014600D03*
X137515600Y-66014600D03*
X134975600Y-66014600D03*
X132435600Y-66014600D03*
X129895600Y-66014600D03*
X127355600Y-66014600D03*
X124815600Y-66014600D03*
X122275600Y-66014600D03*
X119735600Y-66014600D03*
X117195600Y-66014600D03*
X114655600Y-66014600D03*
X112115600Y-66014600D03*
X109575600Y-66014600D03*
X107035600Y-66014600D03*
%TD*%
D12*
%TO.C,J8*%
X101828600Y-160121600D03*
D13*
X101828600Y-157581600D03*
X101828600Y-155041600D03*
X101828600Y-152501600D03*
X101828600Y-149961600D03*
X101828600Y-147421600D03*
%TD*%
D10*
%TO.C,U6*%
X107035600Y-83794600D03*
D11*
X109575600Y-83794600D03*
X112115600Y-83794600D03*
X114655600Y-83794600D03*
X117195600Y-83794600D03*
X119735600Y-83794600D03*
X122275600Y-83794600D03*
X124815600Y-83794600D03*
X127355600Y-83794600D03*
X129895600Y-83794600D03*
X132435600Y-83794600D03*
X134975600Y-83794600D03*
X137515600Y-83794600D03*
X140055600Y-83794600D03*
X142595600Y-83794600D03*
X145135600Y-83794600D03*
X147675600Y-83794600D03*
X150215600Y-83794600D03*
X152755600Y-83794600D03*
X155295600Y-83794600D03*
X155295600Y-68554600D03*
X152755600Y-68554600D03*
X150215600Y-68554600D03*
X147675600Y-68554600D03*
X145135600Y-68554600D03*
X142595600Y-68554600D03*
X140055600Y-68554600D03*
X137515600Y-68554600D03*
X134975600Y-68554600D03*
X132435600Y-68554600D03*
X129895600Y-68554600D03*
X127355600Y-68554600D03*
X124815600Y-68554600D03*
X122275600Y-68554600D03*
X119735600Y-68554600D03*
X117195600Y-68554600D03*
X114655600Y-68554600D03*
X112115600Y-68554600D03*
X109575600Y-68554600D03*
X107035600Y-68554600D03*
%TD*%
D14*
%TO.C,J10*%
X103728600Y-111607600D03*
D13*
X106268600Y-111607600D03*
X103728600Y-114147600D03*
X106268600Y-114147600D03*
X103728600Y-116687600D03*
X106268600Y-116687600D03*
X103728600Y-119227600D03*
X106268600Y-119227600D03*
X103728600Y-121767600D03*
X106268600Y-121767600D03*
X103728600Y-124307600D03*
X106268600Y-124307600D03*
X103728600Y-126847600D03*
X106268600Y-126847600D03*
X103728600Y-129387600D03*
X106268600Y-129387600D03*
%TD*%
D12*
%TO.C,J6*%
X106146600Y-159359600D03*
D13*
X106146600Y-156819600D03*
X106146600Y-154279600D03*
X106146600Y-151739600D03*
X106146600Y-149199600D03*
%TD*%
D12*
%TO.C,J1*%
X106146600Y-137388600D03*
D13*
X106146600Y-139928600D03*
X106146600Y-142468600D03*
X106146600Y-145008600D03*
%TD*%
D10*
%TO.C,U4*%
X107035600Y-104114600D03*
D11*
X109575600Y-104114600D03*
X112115600Y-104114600D03*
X114655600Y-104114600D03*
X117195600Y-104114600D03*
X119735600Y-104114600D03*
X122275600Y-104114600D03*
X124815600Y-104114600D03*
X127355600Y-104114600D03*
X129895600Y-104114600D03*
X132435600Y-104114600D03*
X134975600Y-104114600D03*
X137515600Y-104114600D03*
X140055600Y-104114600D03*
X142595600Y-104114600D03*
X145135600Y-104114600D03*
X147675600Y-104114600D03*
X150215600Y-104114600D03*
X152755600Y-104114600D03*
X155295600Y-104114600D03*
X155295600Y-88874600D03*
X152755600Y-88874600D03*
X150215600Y-88874600D03*
X147675600Y-88874600D03*
X145135600Y-88874600D03*
X142595600Y-88874600D03*
X140055600Y-88874600D03*
X137515600Y-88874600D03*
X134975600Y-88874600D03*
X132435600Y-88874600D03*
X129895600Y-88874600D03*
X127355600Y-88874600D03*
X124815600Y-88874600D03*
X122275600Y-88874600D03*
X119735600Y-88874600D03*
X117195600Y-88874600D03*
X114655600Y-88874600D03*
X112115600Y-88874600D03*
X109575600Y-88874600D03*
X107035600Y-88874600D03*
%TD*%
D10*
%TO.C,C1*%
X159359600Y-87539700D03*
D11*
X159359600Y-85039700D03*
%TD*%
D12*
%TO.C,J11*%
X159354600Y-118084600D03*
D13*
X159354600Y-120624600D03*
X159354600Y-123164600D03*
X159354600Y-125704600D03*
X159354600Y-128244600D03*
X159354600Y-130784600D03*
%TD*%
D15*
%TO.C,U1*%
X159220600Y-146982600D03*
D16*
X156190600Y-147282600D03*
X156190600Y-152132600D03*
D15*
X159220600Y-152432600D03*
D17*
X159350600Y-140817600D03*
X156810600Y-140817600D03*
D12*
X154270600Y-140817600D03*
D17*
X151730600Y-140817600D03*
X149190600Y-140817600D03*
X146650600Y-140817600D03*
X144110600Y-140817600D03*
D12*
X141570600Y-140817600D03*
D17*
X139030600Y-140817600D03*
X136490600Y-140817600D03*
X133950600Y-140817600D03*
X131410600Y-140817600D03*
D12*
X128870600Y-140817600D03*
D17*
X126330600Y-140817600D03*
X123790600Y-140817600D03*
X121250600Y-140817600D03*
X118710600Y-140817600D03*
D12*
X116170600Y-140817600D03*
D17*
X113630600Y-140817600D03*
X111090600Y-140817600D03*
X111090600Y-158597600D03*
X113630600Y-158597600D03*
D12*
X116170600Y-158597600D03*
D17*
X118710600Y-158597600D03*
X121250600Y-158597600D03*
X123790600Y-158597600D03*
X126330600Y-158597600D03*
D12*
X128870600Y-158597600D03*
D17*
X131410600Y-158597600D03*
X133950600Y-158597600D03*
X136490600Y-158597600D03*
X139030600Y-158597600D03*
D12*
X141570600Y-158597600D03*
D17*
X144110600Y-158597600D03*
X146650600Y-158597600D03*
X149190600Y-158597600D03*
X151730600Y-158597600D03*
D12*
X154270600Y-158597600D03*
D17*
X156810600Y-158597600D03*
X159350600Y-158597600D03*
X111320600Y-147167600D03*
D12*
X111320600Y-149707600D03*
D17*
X111320600Y-152247600D03*
%TD*%
D12*
%TO.C,SWDBG1*%
X101828600Y-137388600D03*
D13*
X101828600Y-139928600D03*
X101828600Y-142468600D03*
%TD*%
D18*
%TO.C,U3*%
X133312642Y-113162257D03*
X133666195Y-113515811D03*
X134019749Y-113869364D03*
X134373302Y-114222918D03*
X134726855Y-114576471D03*
X135080409Y-114930024D03*
X135433962Y-115283578D03*
X135787515Y-115637131D03*
X136141069Y-115990685D03*
X136494622Y-116344238D03*
X136848176Y-116697791D03*
X137201729Y-117051345D03*
X137555282Y-117404898D03*
X137908836Y-117758451D03*
X138262389Y-118112005D03*
X138615943Y-118465558D03*
D19*
X138615943Y-121170242D03*
X138262389Y-121523795D03*
X137908836Y-121877349D03*
X137555282Y-122230902D03*
X137201729Y-122584455D03*
X136848176Y-122938009D03*
X136494622Y-123291562D03*
X136141069Y-123645115D03*
X135787515Y-123998669D03*
X135433962Y-124352222D03*
X135080409Y-124705776D03*
X134726855Y-125059329D03*
X134373302Y-125412882D03*
X134019749Y-125766436D03*
X133666195Y-126119989D03*
X133312642Y-126473543D03*
D18*
X130607958Y-126473543D03*
X130254405Y-126119989D03*
X129900851Y-125766436D03*
X129547298Y-125412882D03*
X129193745Y-125059329D03*
X128840191Y-124705776D03*
X128486638Y-124352222D03*
X128133085Y-123998669D03*
X127779531Y-123645115D03*
X127425978Y-123291562D03*
X127072424Y-122938009D03*
X126718871Y-122584455D03*
X126365318Y-122230902D03*
X126011764Y-121877349D03*
X125658211Y-121523795D03*
X125304657Y-121170242D03*
D19*
X125304657Y-118465558D03*
X125658211Y-118112005D03*
X126011764Y-117758451D03*
X126365318Y-117404898D03*
X126718871Y-117051345D03*
X127072424Y-116697791D03*
X127425978Y-116344238D03*
X127779531Y-115990685D03*
X128133085Y-115637131D03*
X128486638Y-115283578D03*
X128840191Y-114930024D03*
X129193745Y-114576471D03*
X129547298Y-114222918D03*
X129900851Y-113869364D03*
X130254405Y-113515811D03*
X130607958Y-113162257D03*
%TD*%
D20*
%TO.C,C2*%
X117317600Y-120900100D03*
X117317600Y-118825100D03*
%TD*%
D21*
%TO.C,Q2*%
X139723600Y-97190600D03*
X139723600Y-95290600D03*
X141598600Y-96240600D03*
%TD*%
D22*
%TO.C,R12*%
X145654600Y-131546600D03*
X147654600Y-131546600D03*
%TD*%
D23*
%TO.C,C5*%
X132960100Y-109194600D03*
X130885100Y-109194600D03*
%TD*%
D24*
%TO.C,JP4*%
X131795600Y-144627600D03*
D25*
X130495600Y-144627600D03*
D26*
X129195600Y-144627600D03*
%TD*%
D22*
%TO.C,R9*%
X146491100Y-95490600D03*
X148491100Y-95490600D03*
%TD*%
%TO.C,R13*%
X118079600Y-144754600D03*
X120079600Y-144754600D03*
%TD*%
D27*
%TO.C,R7*%
X116174600Y-132435600D03*
X116174600Y-130435600D03*
%TD*%
D24*
%TO.C,JP3*%
X125572600Y-144633600D03*
D25*
X124272600Y-144633600D03*
D26*
X122972600Y-144633600D03*
%TD*%
D28*
%TO.C,R14*%
X116047600Y-144754600D03*
X114047600Y-144754600D03*
%TD*%
D22*
%TO.C,R10*%
X146491100Y-98440600D03*
X148491100Y-98440600D03*
%TD*%
%TO.C,R3*%
X134831100Y-95490600D03*
X136831100Y-95490600D03*
%TD*%
D23*
%TO.C,C4*%
X133087100Y-131546600D03*
X131012100Y-131546600D03*
%TD*%
D21*
%TO.C,Q4*%
X151383600Y-97190600D03*
X151383600Y-95290600D03*
X153258600Y-96240600D03*
%TD*%
D22*
%TO.C,R4*%
X134831100Y-98440600D03*
X136831100Y-98440600D03*
%TD*%
%TO.C,R5*%
X111511100Y-95490600D03*
X113511100Y-95490600D03*
%TD*%
D21*
%TO.C,Q1*%
X128063600Y-97190600D03*
X128063600Y-95290600D03*
X129938600Y-96240600D03*
%TD*%
D28*
%TO.C,R8*%
X142701600Y-131546600D03*
X140701600Y-131546600D03*
%TD*%
D21*
%TO.C,Q3*%
X116403600Y-97190600D03*
X116403600Y-95290600D03*
X118278600Y-96240600D03*
%TD*%
D22*
%TO.C,R1*%
X123171100Y-95490600D03*
X125171100Y-95490600D03*
%TD*%
%TO.C,R11*%
X150750600Y-131546600D03*
X152750600Y-131546600D03*
%TD*%
D29*
%TO.C,C3*%
X145511600Y-118825100D03*
X145511600Y-120900100D03*
%TD*%
D22*
%TO.C,R6*%
X111511100Y-98440600D03*
X113511100Y-98440600D03*
%TD*%
D30*
%TO.C,JP1*%
X119857600Y-130754600D03*
D31*
X119857600Y-132054600D03*
%TD*%
D22*
%TO.C,R2*%
X123171100Y-98440600D03*
X125171100Y-98440600D03*
%TD*%
M02*
