%TF.GenerationSoftware,KiCad,Pcbnew,9.0.7*%
%TF.CreationDate,2026-07-16T22:19:29+02:00*%
%TF.ProjectId,1551-rePico,31353531-2d72-4655-9069-636f2e6b6963,1.0*%
%TF.SameCoordinates,Original*%
%TF.FileFunction,Legend,Top*%
%TF.FilePolarity,Positive*%
%FSLAX46Y46*%
G04 Gerber Fmt 4.6, Leading zero omitted, Abs format (unit mm)*
G04 Created by KiCad (PCBNEW 9.0.7) date 2026-07-16 22:19:29*
%MOMM*%
%LPD*%
G01*
G04 APERTURE LIST*
%ADD10C,0.100000*%
%ADD11C,0.150000*%
%ADD12C,0.120000*%
G04 APERTURE END LIST*
D10*
X102140436Y-81108876D02*
X102140436Y-81608876D01*
X102140436Y-81132685D02*
X102188055Y-81108876D01*
X102188055Y-81108876D02*
X102283293Y-81108876D01*
X102283293Y-81108876D02*
X102330912Y-81132685D01*
X102330912Y-81132685D02*
X102354722Y-81156495D01*
X102354722Y-81156495D02*
X102378531Y-81204114D01*
X102378531Y-81204114D02*
X102378531Y-81346971D01*
X102378531Y-81346971D02*
X102354722Y-81394590D01*
X102354722Y-81394590D02*
X102330912Y-81418400D01*
X102330912Y-81418400D02*
X102283293Y-81442209D01*
X102283293Y-81442209D02*
X102188055Y-81442209D01*
X102188055Y-81442209D02*
X102140436Y-81418400D01*
X102592817Y-81442209D02*
X102592817Y-81108876D01*
X102592817Y-80942209D02*
X102569008Y-80966019D01*
X102569008Y-80966019D02*
X102592817Y-80989828D01*
X102592817Y-80989828D02*
X102616627Y-80966019D01*
X102616627Y-80966019D02*
X102592817Y-80942209D01*
X102592817Y-80942209D02*
X102592817Y-80989828D01*
X102830912Y-81108876D02*
X102830912Y-81442209D01*
X102830912Y-81156495D02*
X102854722Y-81132685D01*
X102854722Y-81132685D02*
X102902341Y-81108876D01*
X102902341Y-81108876D02*
X102973769Y-81108876D01*
X102973769Y-81108876D02*
X103021388Y-81132685D01*
X103021388Y-81132685D02*
X103045198Y-81180304D01*
X103045198Y-81180304D02*
X103045198Y-81442209D01*
X103259484Y-81418400D02*
X103307103Y-81442209D01*
X103307103Y-81442209D02*
X103402341Y-81442209D01*
X103402341Y-81442209D02*
X103449960Y-81418400D01*
X103449960Y-81418400D02*
X103473769Y-81370780D01*
X103473769Y-81370780D02*
X103473769Y-81346971D01*
X103473769Y-81346971D02*
X103449960Y-81299352D01*
X103449960Y-81299352D02*
X103402341Y-81275542D01*
X103402341Y-81275542D02*
X103330912Y-81275542D01*
X103330912Y-81275542D02*
X103283293Y-81251733D01*
X103283293Y-81251733D02*
X103259484Y-81204114D01*
X103259484Y-81204114D02*
X103259484Y-81180304D01*
X103259484Y-81180304D02*
X103283293Y-81132685D01*
X103283293Y-81132685D02*
X103330912Y-81108876D01*
X103330912Y-81108876D02*
X103402341Y-81108876D01*
X103402341Y-81108876D02*
X103449960Y-81132685D01*
X104069007Y-81251733D02*
X104449960Y-81251733D01*
X104688055Y-81108876D02*
X105069008Y-81251733D01*
X105069008Y-81251733D02*
X104688055Y-81394590D01*
X122046647Y-108092075D02*
X121475219Y-108092075D01*
X121760933Y-108092075D02*
X121760933Y-107092075D01*
X121760933Y-107092075D02*
X121665695Y-107234932D01*
X121665695Y-107234932D02*
X121570457Y-107330170D01*
X121570457Y-107330170D02*
X121475219Y-107377789D01*
X122951409Y-107092075D02*
X122475219Y-107092075D01*
X122475219Y-107092075D02*
X122427600Y-107568265D01*
X122427600Y-107568265D02*
X122475219Y-107520646D01*
X122475219Y-107520646D02*
X122570457Y-107473027D01*
X122570457Y-107473027D02*
X122808552Y-107473027D01*
X122808552Y-107473027D02*
X122903790Y-107520646D01*
X122903790Y-107520646D02*
X122951409Y-107568265D01*
X122951409Y-107568265D02*
X122999028Y-107663503D01*
X122999028Y-107663503D02*
X122999028Y-107901598D01*
X122999028Y-107901598D02*
X122951409Y-107996836D01*
X122951409Y-107996836D02*
X122903790Y-108044456D01*
X122903790Y-108044456D02*
X122808552Y-108092075D01*
X122808552Y-108092075D02*
X122570457Y-108092075D01*
X122570457Y-108092075D02*
X122475219Y-108044456D01*
X122475219Y-108044456D02*
X122427600Y-107996836D01*
X123903790Y-107092075D02*
X123427600Y-107092075D01*
X123427600Y-107092075D02*
X123379981Y-107568265D01*
X123379981Y-107568265D02*
X123427600Y-107520646D01*
X123427600Y-107520646D02*
X123522838Y-107473027D01*
X123522838Y-107473027D02*
X123760933Y-107473027D01*
X123760933Y-107473027D02*
X123856171Y-107520646D01*
X123856171Y-107520646D02*
X123903790Y-107568265D01*
X123903790Y-107568265D02*
X123951409Y-107663503D01*
X123951409Y-107663503D02*
X123951409Y-107901598D01*
X123951409Y-107901598D02*
X123903790Y-107996836D01*
X123903790Y-107996836D02*
X123856171Y-108044456D01*
X123856171Y-108044456D02*
X123760933Y-108092075D01*
X123760933Y-108092075D02*
X123522838Y-108092075D01*
X123522838Y-108092075D02*
X123427600Y-108044456D01*
X123427600Y-108044456D02*
X123379981Y-107996836D01*
X124903790Y-108092075D02*
X124332362Y-108092075D01*
X124618076Y-108092075D02*
X124618076Y-107092075D01*
X124618076Y-107092075D02*
X124522838Y-107234932D01*
X124522838Y-107234932D02*
X124427600Y-107330170D01*
X124427600Y-107330170D02*
X124332362Y-107377789D01*
X125332362Y-107711122D02*
X126094267Y-107711122D01*
X126570457Y-108092075D02*
X126570457Y-107425408D01*
X126570457Y-107615884D02*
X126618076Y-107520646D01*
X126618076Y-107520646D02*
X126665695Y-107473027D01*
X126665695Y-107473027D02*
X126760933Y-107425408D01*
X126760933Y-107425408D02*
X126856171Y-107425408D01*
X127570457Y-108044456D02*
X127475219Y-108092075D01*
X127475219Y-108092075D02*
X127284743Y-108092075D01*
X127284743Y-108092075D02*
X127189505Y-108044456D01*
X127189505Y-108044456D02*
X127141886Y-107949217D01*
X127141886Y-107949217D02*
X127141886Y-107568265D01*
X127141886Y-107568265D02*
X127189505Y-107473027D01*
X127189505Y-107473027D02*
X127284743Y-107425408D01*
X127284743Y-107425408D02*
X127475219Y-107425408D01*
X127475219Y-107425408D02*
X127570457Y-107473027D01*
X127570457Y-107473027D02*
X127618076Y-107568265D01*
X127618076Y-107568265D02*
X127618076Y-107663503D01*
X127618076Y-107663503D02*
X127141886Y-107758741D01*
X128046648Y-108092075D02*
X128046648Y-107092075D01*
X128046648Y-107092075D02*
X128427600Y-107092075D01*
X128427600Y-107092075D02*
X128522838Y-107139694D01*
X128522838Y-107139694D02*
X128570457Y-107187313D01*
X128570457Y-107187313D02*
X128618076Y-107282551D01*
X128618076Y-107282551D02*
X128618076Y-107425408D01*
X128618076Y-107425408D02*
X128570457Y-107520646D01*
X128570457Y-107520646D02*
X128522838Y-107568265D01*
X128522838Y-107568265D02*
X128427600Y-107615884D01*
X128427600Y-107615884D02*
X128046648Y-107615884D01*
X129046648Y-108092075D02*
X129046648Y-107425408D01*
X129046648Y-107092075D02*
X128999029Y-107139694D01*
X128999029Y-107139694D02*
X129046648Y-107187313D01*
X129046648Y-107187313D02*
X129094267Y-107139694D01*
X129094267Y-107139694D02*
X129046648Y-107092075D01*
X129046648Y-107092075D02*
X129046648Y-107187313D01*
X129951409Y-108044456D02*
X129856171Y-108092075D01*
X129856171Y-108092075D02*
X129665695Y-108092075D01*
X129665695Y-108092075D02*
X129570457Y-108044456D01*
X129570457Y-108044456D02*
X129522838Y-107996836D01*
X129522838Y-107996836D02*
X129475219Y-107901598D01*
X129475219Y-107901598D02*
X129475219Y-107615884D01*
X129475219Y-107615884D02*
X129522838Y-107520646D01*
X129522838Y-107520646D02*
X129570457Y-107473027D01*
X129570457Y-107473027D02*
X129665695Y-107425408D01*
X129665695Y-107425408D02*
X129856171Y-107425408D01*
X129856171Y-107425408D02*
X129951409Y-107473027D01*
X130522838Y-108092075D02*
X130427600Y-108044456D01*
X130427600Y-108044456D02*
X130379981Y-107996836D01*
X130379981Y-107996836D02*
X130332362Y-107901598D01*
X130332362Y-107901598D02*
X130332362Y-107615884D01*
X130332362Y-107615884D02*
X130379981Y-107520646D01*
X130379981Y-107520646D02*
X130427600Y-107473027D01*
X130427600Y-107473027D02*
X130522838Y-107425408D01*
X130522838Y-107425408D02*
X130665695Y-107425408D01*
X130665695Y-107425408D02*
X130760933Y-107473027D01*
X130760933Y-107473027D02*
X130808552Y-107520646D01*
X130808552Y-107520646D02*
X130856171Y-107615884D01*
X130856171Y-107615884D02*
X130856171Y-107901598D01*
X130856171Y-107901598D02*
X130808552Y-107996836D01*
X130808552Y-107996836D02*
X130760933Y-108044456D01*
X130760933Y-108044456D02*
X130665695Y-108092075D01*
X130665695Y-108092075D02*
X130522838Y-108092075D01*
X131951410Y-107425408D02*
X132189505Y-108092075D01*
X132189505Y-108092075D02*
X132427600Y-107425408D01*
X133332362Y-108092075D02*
X132760934Y-108092075D01*
X133046648Y-108092075D02*
X133046648Y-107092075D01*
X133046648Y-107092075D02*
X132951410Y-107234932D01*
X132951410Y-107234932D02*
X132856172Y-107330170D01*
X132856172Y-107330170D02*
X132760934Y-107377789D01*
X133760934Y-107996836D02*
X133808553Y-108044456D01*
X133808553Y-108044456D02*
X133760934Y-108092075D01*
X133760934Y-108092075D02*
X133713315Y-108044456D01*
X133713315Y-108044456D02*
X133760934Y-107996836D01*
X133760934Y-107996836D02*
X133760934Y-108092075D01*
X134427600Y-107092075D02*
X134522838Y-107092075D01*
X134522838Y-107092075D02*
X134618076Y-107139694D01*
X134618076Y-107139694D02*
X134665695Y-107187313D01*
X134665695Y-107187313D02*
X134713314Y-107282551D01*
X134713314Y-107282551D02*
X134760933Y-107473027D01*
X134760933Y-107473027D02*
X134760933Y-107711122D01*
X134760933Y-107711122D02*
X134713314Y-107901598D01*
X134713314Y-107901598D02*
X134665695Y-107996836D01*
X134665695Y-107996836D02*
X134618076Y-108044456D01*
X134618076Y-108044456D02*
X134522838Y-108092075D01*
X134522838Y-108092075D02*
X134427600Y-108092075D01*
X134427600Y-108092075D02*
X134332362Y-108044456D01*
X134332362Y-108044456D02*
X134284743Y-107996836D01*
X134284743Y-107996836D02*
X134237124Y-107901598D01*
X134237124Y-107901598D02*
X134189505Y-107711122D01*
X134189505Y-107711122D02*
X134189505Y-107473027D01*
X134189505Y-107473027D02*
X134237124Y-107282551D01*
X134237124Y-107282551D02*
X134284743Y-107187313D01*
X134284743Y-107187313D02*
X134332362Y-107139694D01*
X134332362Y-107139694D02*
X134427600Y-107092075D01*
X135237124Y-108044456D02*
X135237124Y-108092075D01*
X135237124Y-108092075D02*
X135189505Y-108187313D01*
X135189505Y-108187313D02*
X135141886Y-108234932D01*
X136284743Y-107092075D02*
X136618076Y-108092075D01*
X136618076Y-108092075D02*
X136951409Y-107092075D01*
X137284743Y-108092075D02*
X137284743Y-107092075D01*
X137760933Y-108092075D02*
X137760933Y-107092075D01*
X138951409Y-107187313D02*
X138999028Y-107139694D01*
X138999028Y-107139694D02*
X139094266Y-107092075D01*
X139094266Y-107092075D02*
X139332361Y-107092075D01*
X139332361Y-107092075D02*
X139427599Y-107139694D01*
X139427599Y-107139694D02*
X139475218Y-107187313D01*
X139475218Y-107187313D02*
X139522837Y-107282551D01*
X139522837Y-107282551D02*
X139522837Y-107377789D01*
X139522837Y-107377789D02*
X139475218Y-107520646D01*
X139475218Y-107520646D02*
X138903790Y-108092075D01*
X138903790Y-108092075D02*
X139522837Y-108092075D01*
X140141885Y-107092075D02*
X140237123Y-107092075D01*
X140237123Y-107092075D02*
X140332361Y-107139694D01*
X140332361Y-107139694D02*
X140379980Y-107187313D01*
X140379980Y-107187313D02*
X140427599Y-107282551D01*
X140427599Y-107282551D02*
X140475218Y-107473027D01*
X140475218Y-107473027D02*
X140475218Y-107711122D01*
X140475218Y-107711122D02*
X140427599Y-107901598D01*
X140427599Y-107901598D02*
X140379980Y-107996836D01*
X140379980Y-107996836D02*
X140332361Y-108044456D01*
X140332361Y-108044456D02*
X140237123Y-108092075D01*
X140237123Y-108092075D02*
X140141885Y-108092075D01*
X140141885Y-108092075D02*
X140046647Y-108044456D01*
X140046647Y-108044456D02*
X139999028Y-107996836D01*
X139999028Y-107996836D02*
X139951409Y-107901598D01*
X139951409Y-107901598D02*
X139903790Y-107711122D01*
X139903790Y-107711122D02*
X139903790Y-107473027D01*
X139903790Y-107473027D02*
X139951409Y-107282551D01*
X139951409Y-107282551D02*
X139999028Y-107187313D01*
X139999028Y-107187313D02*
X140046647Y-107139694D01*
X140046647Y-107139694D02*
X140141885Y-107092075D01*
X140856171Y-107187313D02*
X140903790Y-107139694D01*
X140903790Y-107139694D02*
X140999028Y-107092075D01*
X140999028Y-107092075D02*
X141237123Y-107092075D01*
X141237123Y-107092075D02*
X141332361Y-107139694D01*
X141332361Y-107139694D02*
X141379980Y-107187313D01*
X141379980Y-107187313D02*
X141427599Y-107282551D01*
X141427599Y-107282551D02*
X141427599Y-107377789D01*
X141427599Y-107377789D02*
X141379980Y-107520646D01*
X141379980Y-107520646D02*
X140808552Y-108092075D01*
X140808552Y-108092075D02*
X141427599Y-108092075D01*
X142284742Y-107092075D02*
X142094266Y-107092075D01*
X142094266Y-107092075D02*
X141999028Y-107139694D01*
X141999028Y-107139694D02*
X141951409Y-107187313D01*
X141951409Y-107187313D02*
X141856171Y-107330170D01*
X141856171Y-107330170D02*
X141808552Y-107520646D01*
X141808552Y-107520646D02*
X141808552Y-107901598D01*
X141808552Y-107901598D02*
X141856171Y-107996836D01*
X141856171Y-107996836D02*
X141903790Y-108044456D01*
X141903790Y-108044456D02*
X141999028Y-108092075D01*
X141999028Y-108092075D02*
X142189504Y-108092075D01*
X142189504Y-108092075D02*
X142284742Y-108044456D01*
X142284742Y-108044456D02*
X142332361Y-107996836D01*
X142332361Y-107996836D02*
X142379980Y-107901598D01*
X142379980Y-107901598D02*
X142379980Y-107663503D01*
X142379980Y-107663503D02*
X142332361Y-107568265D01*
X142332361Y-107568265D02*
X142284742Y-107520646D01*
X142284742Y-107520646D02*
X142189504Y-107473027D01*
X142189504Y-107473027D02*
X141999028Y-107473027D01*
X141999028Y-107473027D02*
X141903790Y-107520646D01*
X141903790Y-107520646D02*
X141856171Y-107568265D01*
X141856171Y-107568265D02*
X141808552Y-107663503D01*
X117260933Y-109702019D02*
X117260933Y-108702019D01*
X117260933Y-109082971D02*
X117356171Y-109035352D01*
X117356171Y-109035352D02*
X117546647Y-109035352D01*
X117546647Y-109035352D02*
X117641885Y-109082971D01*
X117641885Y-109082971D02*
X117689504Y-109130590D01*
X117689504Y-109130590D02*
X117737123Y-109225828D01*
X117737123Y-109225828D02*
X117737123Y-109511542D01*
X117737123Y-109511542D02*
X117689504Y-109606780D01*
X117689504Y-109606780D02*
X117641885Y-109654400D01*
X117641885Y-109654400D02*
X117546647Y-109702019D01*
X117546647Y-109702019D02*
X117356171Y-109702019D01*
X117356171Y-109702019D02*
X117260933Y-109654400D01*
X118070457Y-109035352D02*
X118308552Y-109702019D01*
X118546647Y-109035352D02*
X118308552Y-109702019D01*
X118308552Y-109702019D02*
X118213314Y-109940114D01*
X118213314Y-109940114D02*
X118165695Y-109987733D01*
X118165695Y-109987733D02*
X118070457Y-110035352D01*
X119689505Y-109702019D02*
X119689505Y-108702019D01*
X119689505Y-108702019D02*
X120022838Y-109416304D01*
X120022838Y-109416304D02*
X120356171Y-108702019D01*
X120356171Y-108702019D02*
X120356171Y-109702019D01*
X121260933Y-109702019D02*
X121260933Y-109178209D01*
X121260933Y-109178209D02*
X121213314Y-109082971D01*
X121213314Y-109082971D02*
X121118076Y-109035352D01*
X121118076Y-109035352D02*
X120927600Y-109035352D01*
X120927600Y-109035352D02*
X120832362Y-109082971D01*
X121260933Y-109654400D02*
X121165695Y-109702019D01*
X121165695Y-109702019D02*
X120927600Y-109702019D01*
X120927600Y-109702019D02*
X120832362Y-109654400D01*
X120832362Y-109654400D02*
X120784743Y-109559161D01*
X120784743Y-109559161D02*
X120784743Y-109463923D01*
X120784743Y-109463923D02*
X120832362Y-109368685D01*
X120832362Y-109368685D02*
X120927600Y-109321066D01*
X120927600Y-109321066D02*
X121165695Y-109321066D01*
X121165695Y-109321066D02*
X121260933Y-109273447D01*
X122165695Y-109654400D02*
X122070457Y-109702019D01*
X122070457Y-109702019D02*
X121879981Y-109702019D01*
X121879981Y-109702019D02*
X121784743Y-109654400D01*
X121784743Y-109654400D02*
X121737124Y-109606780D01*
X121737124Y-109606780D02*
X121689505Y-109511542D01*
X121689505Y-109511542D02*
X121689505Y-109225828D01*
X121689505Y-109225828D02*
X121737124Y-109130590D01*
X121737124Y-109130590D02*
X121784743Y-109082971D01*
X121784743Y-109082971D02*
X121879981Y-109035352D01*
X121879981Y-109035352D02*
X122070457Y-109035352D01*
X122070457Y-109035352D02*
X122165695Y-109082971D01*
X122594267Y-109702019D02*
X122594267Y-109035352D01*
X122594267Y-108702019D02*
X122546648Y-108749638D01*
X122546648Y-108749638D02*
X122594267Y-108797257D01*
X122594267Y-108797257D02*
X122641886Y-108749638D01*
X122641886Y-108749638D02*
X122594267Y-108702019D01*
X122594267Y-108702019D02*
X122594267Y-108797257D01*
X123451409Y-109654400D02*
X123356171Y-109702019D01*
X123356171Y-109702019D02*
X123165695Y-109702019D01*
X123165695Y-109702019D02*
X123070457Y-109654400D01*
X123070457Y-109654400D02*
X123022838Y-109559161D01*
X123022838Y-109559161D02*
X123022838Y-109178209D01*
X123022838Y-109178209D02*
X123070457Y-109082971D01*
X123070457Y-109082971D02*
X123165695Y-109035352D01*
X123165695Y-109035352D02*
X123356171Y-109035352D01*
X123356171Y-109035352D02*
X123451409Y-109082971D01*
X123451409Y-109082971D02*
X123499028Y-109178209D01*
X123499028Y-109178209D02*
X123499028Y-109273447D01*
X123499028Y-109273447D02*
X123022838Y-109368685D01*
X123927600Y-109035352D02*
X123927600Y-109892495D01*
X123927600Y-109892495D02*
X123879981Y-109987733D01*
X123879981Y-109987733D02*
X123784743Y-110035352D01*
X123784743Y-110035352D02*
X123737124Y-110035352D01*
X123927600Y-108702019D02*
X123879981Y-108749638D01*
X123879981Y-108749638D02*
X123927600Y-108797257D01*
X123927600Y-108797257D02*
X123975219Y-108749638D01*
X123975219Y-108749638D02*
X123927600Y-108702019D01*
X123927600Y-108702019D02*
X123927600Y-108797257D01*
X125070457Y-108702019D02*
X125308552Y-109702019D01*
X125308552Y-109702019D02*
X125499028Y-108987733D01*
X125499028Y-108987733D02*
X125689504Y-109702019D01*
X125689504Y-109702019D02*
X125927600Y-108702019D01*
X126308552Y-109702019D02*
X126308552Y-109035352D01*
X126308552Y-108702019D02*
X126260933Y-108749638D01*
X126260933Y-108749638D02*
X126308552Y-108797257D01*
X126308552Y-108797257D02*
X126356171Y-108749638D01*
X126356171Y-108749638D02*
X126308552Y-108702019D01*
X126308552Y-108702019D02*
X126308552Y-108797257D01*
X126641885Y-109035352D02*
X127022837Y-109035352D01*
X126784742Y-108702019D02*
X126784742Y-109559161D01*
X126784742Y-109559161D02*
X126832361Y-109654400D01*
X126832361Y-109654400D02*
X126927599Y-109702019D01*
X126927599Y-109702019D02*
X127022837Y-109702019D01*
X127356171Y-109702019D02*
X127356171Y-108702019D01*
X127451409Y-109321066D02*
X127737123Y-109702019D01*
X127737123Y-109035352D02*
X127356171Y-109416304D01*
X128308552Y-109702019D02*
X128213314Y-109654400D01*
X128213314Y-109654400D02*
X128165695Y-109606780D01*
X128165695Y-109606780D02*
X128118076Y-109511542D01*
X128118076Y-109511542D02*
X128118076Y-109225828D01*
X128118076Y-109225828D02*
X128165695Y-109130590D01*
X128165695Y-109130590D02*
X128213314Y-109082971D01*
X128213314Y-109082971D02*
X128308552Y-109035352D01*
X128308552Y-109035352D02*
X128451409Y-109035352D01*
X128451409Y-109035352D02*
X128546647Y-109082971D01*
X128546647Y-109082971D02*
X128594266Y-109130590D01*
X128594266Y-109130590D02*
X128641885Y-109225828D01*
X128641885Y-109225828D02*
X128641885Y-109511542D01*
X128641885Y-109511542D02*
X128594266Y-109606780D01*
X128594266Y-109606780D02*
X128546647Y-109654400D01*
X128546647Y-109654400D02*
X128451409Y-109702019D01*
X128451409Y-109702019D02*
X128308552Y-109702019D01*
X128975219Y-109035352D02*
X129165695Y-109702019D01*
X129165695Y-109702019D02*
X129356171Y-109225828D01*
X129356171Y-109225828D02*
X129546647Y-109702019D01*
X129546647Y-109702019D02*
X129737123Y-109035352D01*
X130118076Y-109702019D02*
X130118076Y-109035352D01*
X130118076Y-108702019D02*
X130070457Y-108749638D01*
X130070457Y-108749638D02*
X130118076Y-108797257D01*
X130118076Y-108797257D02*
X130165695Y-108749638D01*
X130165695Y-108749638D02*
X130118076Y-108702019D01*
X130118076Y-108702019D02*
X130118076Y-108797257D01*
X131022837Y-109702019D02*
X131022837Y-109178209D01*
X131022837Y-109178209D02*
X130975218Y-109082971D01*
X130975218Y-109082971D02*
X130879980Y-109035352D01*
X130879980Y-109035352D02*
X130689504Y-109035352D01*
X130689504Y-109035352D02*
X130594266Y-109082971D01*
X131022837Y-109654400D02*
X130927599Y-109702019D01*
X130927599Y-109702019D02*
X130689504Y-109702019D01*
X130689504Y-109702019D02*
X130594266Y-109654400D01*
X130594266Y-109654400D02*
X130546647Y-109559161D01*
X130546647Y-109559161D02*
X130546647Y-109463923D01*
X130546647Y-109463923D02*
X130594266Y-109368685D01*
X130594266Y-109368685D02*
X130689504Y-109321066D01*
X130689504Y-109321066D02*
X130927599Y-109321066D01*
X130927599Y-109321066D02*
X131022837Y-109273447D01*
X131499028Y-109702019D02*
X131499028Y-108702019D01*
X131594266Y-109321066D02*
X131879980Y-109702019D01*
X131879980Y-109035352D02*
X131499028Y-109416304D01*
X133832362Y-109035352D02*
X133070457Y-109321066D01*
X133070457Y-109321066D02*
X133832362Y-109606780D01*
X134213314Y-109035352D02*
X134451409Y-109702019D01*
X134689504Y-109035352D02*
X134451409Y-109702019D01*
X134451409Y-109702019D02*
X134356171Y-109940114D01*
X134356171Y-109940114D02*
X134308552Y-109987733D01*
X134308552Y-109987733D02*
X134213314Y-110035352D01*
X134927600Y-109035352D02*
X135308552Y-109035352D01*
X135070457Y-108702019D02*
X135070457Y-109559161D01*
X135070457Y-109559161D02*
X135118076Y-109654400D01*
X135118076Y-109654400D02*
X135213314Y-109702019D01*
X135213314Y-109702019D02*
X135308552Y-109702019D01*
X135641886Y-109702019D02*
X135641886Y-109035352D01*
X135641886Y-109130590D02*
X135689505Y-109082971D01*
X135689505Y-109082971D02*
X135784743Y-109035352D01*
X135784743Y-109035352D02*
X135927600Y-109035352D01*
X135927600Y-109035352D02*
X136022838Y-109082971D01*
X136022838Y-109082971D02*
X136070457Y-109178209D01*
X136070457Y-109178209D02*
X136070457Y-109702019D01*
X136070457Y-109178209D02*
X136118076Y-109082971D01*
X136118076Y-109082971D02*
X136213314Y-109035352D01*
X136213314Y-109035352D02*
X136356171Y-109035352D01*
X136356171Y-109035352D02*
X136451410Y-109082971D01*
X136451410Y-109082971D02*
X136499029Y-109178209D01*
X136499029Y-109178209D02*
X136499029Y-109702019D01*
X137594266Y-109225828D02*
X137546647Y-109178209D01*
X137546647Y-109178209D02*
X137451409Y-109130590D01*
X137451409Y-109130590D02*
X137356171Y-109130590D01*
X137356171Y-109130590D02*
X137260933Y-109178209D01*
X137260933Y-109178209D02*
X137213314Y-109225828D01*
X137213314Y-109225828D02*
X137165695Y-109321066D01*
X137165695Y-109321066D02*
X137165695Y-109416304D01*
X137165695Y-109416304D02*
X137213314Y-109511542D01*
X137213314Y-109511542D02*
X137260933Y-109559161D01*
X137260933Y-109559161D02*
X137356171Y-109606780D01*
X137356171Y-109606780D02*
X137451409Y-109606780D01*
X137451409Y-109606780D02*
X137546647Y-109559161D01*
X137546647Y-109559161D02*
X137594266Y-109511542D01*
X137594266Y-109130590D02*
X137594266Y-109511542D01*
X137594266Y-109511542D02*
X137641885Y-109559161D01*
X137641885Y-109559161D02*
X137689504Y-109559161D01*
X137689504Y-109559161D02*
X137784743Y-109511542D01*
X137784743Y-109511542D02*
X137832362Y-109416304D01*
X137832362Y-109416304D02*
X137832362Y-109178209D01*
X137832362Y-109178209D02*
X137737124Y-109035352D01*
X137737124Y-109035352D02*
X137594266Y-108940114D01*
X137594266Y-108940114D02*
X137403790Y-108892495D01*
X137403790Y-108892495D02*
X137213314Y-108940114D01*
X137213314Y-108940114D02*
X137070457Y-109035352D01*
X137070457Y-109035352D02*
X136975219Y-109178209D01*
X136975219Y-109178209D02*
X136927600Y-109368685D01*
X136927600Y-109368685D02*
X136975219Y-109559161D01*
X136975219Y-109559161D02*
X137070457Y-109702019D01*
X137070457Y-109702019D02*
X137213314Y-109797257D01*
X137213314Y-109797257D02*
X137403790Y-109844876D01*
X137403790Y-109844876D02*
X137594266Y-109797257D01*
X137594266Y-109797257D02*
X137737124Y-109702019D01*
X138641885Y-109654400D02*
X138546647Y-109702019D01*
X138546647Y-109702019D02*
X138356171Y-109702019D01*
X138356171Y-109702019D02*
X138260933Y-109654400D01*
X138260933Y-109654400D02*
X138213314Y-109559161D01*
X138213314Y-109559161D02*
X138213314Y-109178209D01*
X138213314Y-109178209D02*
X138260933Y-109082971D01*
X138260933Y-109082971D02*
X138356171Y-109035352D01*
X138356171Y-109035352D02*
X138546647Y-109035352D01*
X138546647Y-109035352D02*
X138641885Y-109082971D01*
X138641885Y-109082971D02*
X138689504Y-109178209D01*
X138689504Y-109178209D02*
X138689504Y-109273447D01*
X138689504Y-109273447D02*
X138213314Y-109368685D01*
X139260933Y-109702019D02*
X139165695Y-109654400D01*
X139165695Y-109654400D02*
X139118076Y-109559161D01*
X139118076Y-109559161D02*
X139118076Y-108702019D01*
X139546648Y-109035352D02*
X139784743Y-109702019D01*
X140022838Y-109035352D02*
X139784743Y-109702019D01*
X139784743Y-109702019D02*
X139689505Y-109940114D01*
X139689505Y-109940114D02*
X139641886Y-109987733D01*
X139641886Y-109987733D02*
X139546648Y-110035352D01*
X140356172Y-109654400D02*
X140451410Y-109702019D01*
X140451410Y-109702019D02*
X140641886Y-109702019D01*
X140641886Y-109702019D02*
X140737124Y-109654400D01*
X140737124Y-109654400D02*
X140784743Y-109559161D01*
X140784743Y-109559161D02*
X140784743Y-109511542D01*
X140784743Y-109511542D02*
X140737124Y-109416304D01*
X140737124Y-109416304D02*
X140641886Y-109368685D01*
X140641886Y-109368685D02*
X140499029Y-109368685D01*
X140499029Y-109368685D02*
X140403791Y-109321066D01*
X140403791Y-109321066D02*
X140356172Y-109225828D01*
X140356172Y-109225828D02*
X140356172Y-109178209D01*
X140356172Y-109178209D02*
X140403791Y-109082971D01*
X140403791Y-109082971D02*
X140499029Y-109035352D01*
X140499029Y-109035352D02*
X140641886Y-109035352D01*
X140641886Y-109035352D02*
X140737124Y-109082971D01*
X141213315Y-109702019D02*
X141213315Y-109035352D01*
X141213315Y-108702019D02*
X141165696Y-108749638D01*
X141165696Y-108749638D02*
X141213315Y-108797257D01*
X141213315Y-108797257D02*
X141260934Y-108749638D01*
X141260934Y-108749638D02*
X141213315Y-108702019D01*
X141213315Y-108702019D02*
X141213315Y-108797257D01*
X142118076Y-109035352D02*
X142118076Y-109702019D01*
X141689505Y-109035352D02*
X141689505Y-109559161D01*
X141689505Y-109559161D02*
X141737124Y-109654400D01*
X141737124Y-109654400D02*
X141832362Y-109702019D01*
X141832362Y-109702019D02*
X141975219Y-109702019D01*
X141975219Y-109702019D02*
X142070457Y-109654400D01*
X142070457Y-109654400D02*
X142118076Y-109606780D01*
X142594267Y-109702019D02*
X142594267Y-109035352D01*
X142594267Y-109130590D02*
X142641886Y-109082971D01*
X142641886Y-109082971D02*
X142737124Y-109035352D01*
X142737124Y-109035352D02*
X142879981Y-109035352D01*
X142879981Y-109035352D02*
X142975219Y-109082971D01*
X142975219Y-109082971D02*
X143022838Y-109178209D01*
X143022838Y-109178209D02*
X143022838Y-109702019D01*
X143022838Y-109178209D02*
X143070457Y-109082971D01*
X143070457Y-109082971D02*
X143165695Y-109035352D01*
X143165695Y-109035352D02*
X143308552Y-109035352D01*
X143308552Y-109035352D02*
X143403791Y-109082971D01*
X143403791Y-109082971D02*
X143451410Y-109178209D01*
X143451410Y-109178209D02*
X143451410Y-109702019D01*
X143927600Y-109606780D02*
X143975219Y-109654400D01*
X143975219Y-109654400D02*
X143927600Y-109702019D01*
X143927600Y-109702019D02*
X143879981Y-109654400D01*
X143879981Y-109654400D02*
X143927600Y-109606780D01*
X143927600Y-109606780D02*
X143927600Y-109702019D01*
X144403790Y-109035352D02*
X144403790Y-110035352D01*
X144403790Y-109082971D02*
X144499028Y-109035352D01*
X144499028Y-109035352D02*
X144689504Y-109035352D01*
X144689504Y-109035352D02*
X144784742Y-109082971D01*
X144784742Y-109082971D02*
X144832361Y-109130590D01*
X144832361Y-109130590D02*
X144879980Y-109225828D01*
X144879980Y-109225828D02*
X144879980Y-109511542D01*
X144879980Y-109511542D02*
X144832361Y-109606780D01*
X144832361Y-109606780D02*
X144784742Y-109654400D01*
X144784742Y-109654400D02*
X144689504Y-109702019D01*
X144689504Y-109702019D02*
X144499028Y-109702019D01*
X144499028Y-109702019D02*
X144403790Y-109654400D01*
X145451409Y-109702019D02*
X145356171Y-109654400D01*
X145356171Y-109654400D02*
X145308552Y-109559161D01*
X145308552Y-109559161D02*
X145308552Y-108702019D01*
X145832362Y-109035352D02*
X146594267Y-109321066D01*
X146594267Y-109321066D02*
X145832362Y-109606780D01*
X102394436Y-88728876D02*
X102394436Y-89228876D01*
X102394436Y-88752685D02*
X102442055Y-88728876D01*
X102442055Y-88728876D02*
X102537293Y-88728876D01*
X102537293Y-88728876D02*
X102584912Y-88752685D01*
X102584912Y-88752685D02*
X102608722Y-88776495D01*
X102608722Y-88776495D02*
X102632531Y-88824114D01*
X102632531Y-88824114D02*
X102632531Y-88966971D01*
X102632531Y-88966971D02*
X102608722Y-89014590D01*
X102608722Y-89014590D02*
X102584912Y-89038400D01*
X102584912Y-89038400D02*
X102537293Y-89062209D01*
X102537293Y-89062209D02*
X102442055Y-89062209D01*
X102442055Y-89062209D02*
X102394436Y-89038400D01*
X102846817Y-89062209D02*
X102846817Y-88728876D01*
X102846817Y-88562209D02*
X102823008Y-88586019D01*
X102823008Y-88586019D02*
X102846817Y-88609828D01*
X102846817Y-88609828D02*
X102870627Y-88586019D01*
X102870627Y-88586019D02*
X102846817Y-88562209D01*
X102846817Y-88562209D02*
X102846817Y-88609828D01*
X103084912Y-88728876D02*
X103084912Y-89062209D01*
X103084912Y-88776495D02*
X103108722Y-88752685D01*
X103108722Y-88752685D02*
X103156341Y-88728876D01*
X103156341Y-88728876D02*
X103227769Y-88728876D01*
X103227769Y-88728876D02*
X103275388Y-88752685D01*
X103275388Y-88752685D02*
X103299198Y-88800304D01*
X103299198Y-88800304D02*
X103299198Y-89062209D01*
X103513484Y-89038400D02*
X103561103Y-89062209D01*
X103561103Y-89062209D02*
X103656341Y-89062209D01*
X103656341Y-89062209D02*
X103703960Y-89038400D01*
X103703960Y-89038400D02*
X103727769Y-88990780D01*
X103727769Y-88990780D02*
X103727769Y-88966971D01*
X103727769Y-88966971D02*
X103703960Y-88919352D01*
X103703960Y-88919352D02*
X103656341Y-88895542D01*
X103656341Y-88895542D02*
X103584912Y-88895542D01*
X103584912Y-88895542D02*
X103537293Y-88871733D01*
X103537293Y-88871733D02*
X103513484Y-88824114D01*
X103513484Y-88824114D02*
X103513484Y-88800304D01*
X103513484Y-88800304D02*
X103537293Y-88752685D01*
X103537293Y-88752685D02*
X103584912Y-88728876D01*
X103584912Y-88728876D02*
X103656341Y-88728876D01*
X103656341Y-88728876D02*
X103703960Y-88752685D01*
X104323007Y-88871733D02*
X104703960Y-88871733D01*
X104942055Y-88728876D02*
X105323008Y-88871733D01*
X105323008Y-88871733D02*
X104942055Y-89014590D01*
X102394436Y-65868876D02*
X102394436Y-66368876D01*
X102394436Y-65892685D02*
X102442055Y-65868876D01*
X102442055Y-65868876D02*
X102537293Y-65868876D01*
X102537293Y-65868876D02*
X102584912Y-65892685D01*
X102584912Y-65892685D02*
X102608722Y-65916495D01*
X102608722Y-65916495D02*
X102632531Y-65964114D01*
X102632531Y-65964114D02*
X102632531Y-66106971D01*
X102632531Y-66106971D02*
X102608722Y-66154590D01*
X102608722Y-66154590D02*
X102584912Y-66178400D01*
X102584912Y-66178400D02*
X102537293Y-66202209D01*
X102537293Y-66202209D02*
X102442055Y-66202209D01*
X102442055Y-66202209D02*
X102394436Y-66178400D01*
X102846817Y-66202209D02*
X102846817Y-65868876D01*
X102846817Y-65702209D02*
X102823008Y-65726019D01*
X102823008Y-65726019D02*
X102846817Y-65749828D01*
X102846817Y-65749828D02*
X102870627Y-65726019D01*
X102870627Y-65726019D02*
X102846817Y-65702209D01*
X102846817Y-65702209D02*
X102846817Y-65749828D01*
X103084912Y-65868876D02*
X103084912Y-66202209D01*
X103084912Y-65916495D02*
X103108722Y-65892685D01*
X103108722Y-65892685D02*
X103156341Y-65868876D01*
X103156341Y-65868876D02*
X103227769Y-65868876D01*
X103227769Y-65868876D02*
X103275388Y-65892685D01*
X103275388Y-65892685D02*
X103299198Y-65940304D01*
X103299198Y-65940304D02*
X103299198Y-66202209D01*
X103513484Y-66178400D02*
X103561103Y-66202209D01*
X103561103Y-66202209D02*
X103656341Y-66202209D01*
X103656341Y-66202209D02*
X103703960Y-66178400D01*
X103703960Y-66178400D02*
X103727769Y-66130780D01*
X103727769Y-66130780D02*
X103727769Y-66106971D01*
X103727769Y-66106971D02*
X103703960Y-66059352D01*
X103703960Y-66059352D02*
X103656341Y-66035542D01*
X103656341Y-66035542D02*
X103584912Y-66035542D01*
X103584912Y-66035542D02*
X103537293Y-66011733D01*
X103537293Y-66011733D02*
X103513484Y-65964114D01*
X103513484Y-65964114D02*
X103513484Y-65940304D01*
X103513484Y-65940304D02*
X103537293Y-65892685D01*
X103537293Y-65892685D02*
X103584912Y-65868876D01*
X103584912Y-65868876D02*
X103656341Y-65868876D01*
X103656341Y-65868876D02*
X103703960Y-65892685D01*
X104323007Y-66011733D02*
X104703960Y-66011733D01*
X104942055Y-65868876D02*
X105323008Y-66011733D01*
X105323008Y-66011733D02*
X104942055Y-66154590D01*
X102140436Y-103968876D02*
X102140436Y-104468876D01*
X102140436Y-103992685D02*
X102188055Y-103968876D01*
X102188055Y-103968876D02*
X102283293Y-103968876D01*
X102283293Y-103968876D02*
X102330912Y-103992685D01*
X102330912Y-103992685D02*
X102354722Y-104016495D01*
X102354722Y-104016495D02*
X102378531Y-104064114D01*
X102378531Y-104064114D02*
X102378531Y-104206971D01*
X102378531Y-104206971D02*
X102354722Y-104254590D01*
X102354722Y-104254590D02*
X102330912Y-104278400D01*
X102330912Y-104278400D02*
X102283293Y-104302209D01*
X102283293Y-104302209D02*
X102188055Y-104302209D01*
X102188055Y-104302209D02*
X102140436Y-104278400D01*
X102592817Y-104302209D02*
X102592817Y-103968876D01*
X102592817Y-103802209D02*
X102569008Y-103826019D01*
X102569008Y-103826019D02*
X102592817Y-103849828D01*
X102592817Y-103849828D02*
X102616627Y-103826019D01*
X102616627Y-103826019D02*
X102592817Y-103802209D01*
X102592817Y-103802209D02*
X102592817Y-103849828D01*
X102830912Y-103968876D02*
X102830912Y-104302209D01*
X102830912Y-104016495D02*
X102854722Y-103992685D01*
X102854722Y-103992685D02*
X102902341Y-103968876D01*
X102902341Y-103968876D02*
X102973769Y-103968876D01*
X102973769Y-103968876D02*
X103021388Y-103992685D01*
X103021388Y-103992685D02*
X103045198Y-104040304D01*
X103045198Y-104040304D02*
X103045198Y-104302209D01*
X103259484Y-104278400D02*
X103307103Y-104302209D01*
X103307103Y-104302209D02*
X103402341Y-104302209D01*
X103402341Y-104302209D02*
X103449960Y-104278400D01*
X103449960Y-104278400D02*
X103473769Y-104230780D01*
X103473769Y-104230780D02*
X103473769Y-104206971D01*
X103473769Y-104206971D02*
X103449960Y-104159352D01*
X103449960Y-104159352D02*
X103402341Y-104135542D01*
X103402341Y-104135542D02*
X103330912Y-104135542D01*
X103330912Y-104135542D02*
X103283293Y-104111733D01*
X103283293Y-104111733D02*
X103259484Y-104064114D01*
X103259484Y-104064114D02*
X103259484Y-104040304D01*
X103259484Y-104040304D02*
X103283293Y-103992685D01*
X103283293Y-103992685D02*
X103330912Y-103968876D01*
X103330912Y-103968876D02*
X103402341Y-103968876D01*
X103402341Y-103968876D02*
X103449960Y-103992685D01*
X104069007Y-104111733D02*
X104449960Y-104111733D01*
X104688055Y-103968876D02*
X105069008Y-104111733D01*
X105069008Y-104111733D02*
X104688055Y-104254590D01*
D11*
X103027266Y-101537419D02*
X103027266Y-102251704D01*
X103027266Y-102251704D02*
X102979647Y-102394561D01*
X102979647Y-102394561D02*
X102884409Y-102489800D01*
X102884409Y-102489800D02*
X102741552Y-102537419D01*
X102741552Y-102537419D02*
X102646314Y-102537419D01*
X103503457Y-102537419D02*
X103503457Y-101537419D01*
X103503457Y-101537419D02*
X103884409Y-101537419D01*
X103884409Y-101537419D02*
X103979647Y-101585038D01*
X103979647Y-101585038D02*
X104027266Y-101632657D01*
X104027266Y-101632657D02*
X104074885Y-101727895D01*
X104074885Y-101727895D02*
X104074885Y-101870752D01*
X104074885Y-101870752D02*
X104027266Y-101965990D01*
X104027266Y-101965990D02*
X103979647Y-102013609D01*
X103979647Y-102013609D02*
X103884409Y-102061228D01*
X103884409Y-102061228D02*
X103503457Y-102061228D01*
X104932028Y-101537419D02*
X104741552Y-101537419D01*
X104741552Y-101537419D02*
X104646314Y-101585038D01*
X104646314Y-101585038D02*
X104598695Y-101632657D01*
X104598695Y-101632657D02*
X104503457Y-101775514D01*
X104503457Y-101775514D02*
X104455838Y-101965990D01*
X104455838Y-101965990D02*
X104455838Y-102346942D01*
X104455838Y-102346942D02*
X104503457Y-102442180D01*
X104503457Y-102442180D02*
X104551076Y-102489800D01*
X104551076Y-102489800D02*
X104646314Y-102537419D01*
X104646314Y-102537419D02*
X104836790Y-102537419D01*
X104836790Y-102537419D02*
X104932028Y-102489800D01*
X104932028Y-102489800D02*
X104979647Y-102442180D01*
X104979647Y-102442180D02*
X105027266Y-102346942D01*
X105027266Y-102346942D02*
X105027266Y-102108847D01*
X105027266Y-102108847D02*
X104979647Y-102013609D01*
X104979647Y-102013609D02*
X104932028Y-101965990D01*
X104932028Y-101965990D02*
X104836790Y-101918371D01*
X104836790Y-101918371D02*
X104646314Y-101918371D01*
X104646314Y-101918371D02*
X104551076Y-101965990D01*
X104551076Y-101965990D02*
X104503457Y-102013609D01*
X104503457Y-102013609D02*
X104455838Y-102108847D01*
X103321419Y-96035932D02*
X103321419Y-95416885D01*
X103321419Y-95416885D02*
X103702371Y-95750218D01*
X103702371Y-95750218D02*
X103702371Y-95607361D01*
X103702371Y-95607361D02*
X103749990Y-95512123D01*
X103749990Y-95512123D02*
X103797609Y-95464504D01*
X103797609Y-95464504D02*
X103892847Y-95416885D01*
X103892847Y-95416885D02*
X104130942Y-95416885D01*
X104130942Y-95416885D02*
X104226180Y-95464504D01*
X104226180Y-95464504D02*
X104273800Y-95512123D01*
X104273800Y-95512123D02*
X104321419Y-95607361D01*
X104321419Y-95607361D02*
X104321419Y-95893075D01*
X104321419Y-95893075D02*
X104273800Y-95988313D01*
X104273800Y-95988313D02*
X104226180Y-96035932D01*
X104321419Y-100616885D02*
X104321419Y-101188313D01*
X104321419Y-100902599D02*
X103321419Y-100902599D01*
X103321419Y-100902599D02*
X103464276Y-100997837D01*
X103464276Y-100997837D02*
X103559514Y-101093075D01*
X103559514Y-101093075D02*
X103607133Y-101188313D01*
X102067419Y-85800933D02*
X102781704Y-85800933D01*
X102781704Y-85800933D02*
X102924561Y-85848552D01*
X102924561Y-85848552D02*
X103019800Y-85943790D01*
X103019800Y-85943790D02*
X103067419Y-86086647D01*
X103067419Y-86086647D02*
X103067419Y-86181885D01*
X103067419Y-85324742D02*
X102067419Y-85324742D01*
X102067419Y-85324742D02*
X102067419Y-84943790D01*
X102067419Y-84943790D02*
X102115038Y-84848552D01*
X102115038Y-84848552D02*
X102162657Y-84800933D01*
X102162657Y-84800933D02*
X102257895Y-84753314D01*
X102257895Y-84753314D02*
X102400752Y-84753314D01*
X102400752Y-84753314D02*
X102495990Y-84800933D01*
X102495990Y-84800933D02*
X102543609Y-84848552D01*
X102543609Y-84848552D02*
X102591228Y-84943790D01*
X102591228Y-84943790D02*
X102591228Y-85324742D01*
X102162657Y-84372361D02*
X102115038Y-84324742D01*
X102115038Y-84324742D02*
X102067419Y-84229504D01*
X102067419Y-84229504D02*
X102067419Y-83991409D01*
X102067419Y-83991409D02*
X102115038Y-83896171D01*
X102115038Y-83896171D02*
X102162657Y-83848552D01*
X102162657Y-83848552D02*
X102257895Y-83800933D01*
X102257895Y-83800933D02*
X102353133Y-83800933D01*
X102353133Y-83800933D02*
X102495990Y-83848552D01*
X102495990Y-83848552D02*
X103067419Y-84419980D01*
X103067419Y-84419980D02*
X103067419Y-83800933D01*
X101267419Y-82081885D02*
X101267419Y-82653313D01*
X101267419Y-82367599D02*
X100267419Y-82367599D01*
X100267419Y-82367599D02*
X100410276Y-82462837D01*
X100410276Y-82462837D02*
X100505514Y-82558075D01*
X100505514Y-82558075D02*
X100553133Y-82653313D01*
X100267419Y-87900932D02*
X100267419Y-87281885D01*
X100267419Y-87281885D02*
X100648371Y-87615218D01*
X100648371Y-87615218D02*
X100648371Y-87472361D01*
X100648371Y-87472361D02*
X100695990Y-87377123D01*
X100695990Y-87377123D02*
X100743609Y-87329504D01*
X100743609Y-87329504D02*
X100838847Y-87281885D01*
X100838847Y-87281885D02*
X101076942Y-87281885D01*
X101076942Y-87281885D02*
X101172180Y-87329504D01*
X101172180Y-87329504D02*
X101219800Y-87377123D01*
X101219800Y-87377123D02*
X101267419Y-87472361D01*
X101267419Y-87472361D02*
X101267419Y-87758075D01*
X101267419Y-87758075D02*
X101219800Y-87853313D01*
X101219800Y-87853313D02*
X101172180Y-87900932D01*
X104160419Y-76936504D02*
X104969942Y-76936504D01*
X104969942Y-76936504D02*
X105065180Y-76888885D01*
X105065180Y-76888885D02*
X105112800Y-76841266D01*
X105112800Y-76841266D02*
X105160419Y-76746028D01*
X105160419Y-76746028D02*
X105160419Y-76555552D01*
X105160419Y-76555552D02*
X105112800Y-76460314D01*
X105112800Y-76460314D02*
X105065180Y-76412695D01*
X105065180Y-76412695D02*
X104969942Y-76365076D01*
X104969942Y-76365076D02*
X104160419Y-76365076D01*
X104160419Y-75460314D02*
X104160419Y-75650790D01*
X104160419Y-75650790D02*
X104208038Y-75746028D01*
X104208038Y-75746028D02*
X104255657Y-75793647D01*
X104255657Y-75793647D02*
X104398514Y-75888885D01*
X104398514Y-75888885D02*
X104588990Y-75936504D01*
X104588990Y-75936504D02*
X104969942Y-75936504D01*
X104969942Y-75936504D02*
X105065180Y-75888885D01*
X105065180Y-75888885D02*
X105112800Y-75841266D01*
X105112800Y-75841266D02*
X105160419Y-75746028D01*
X105160419Y-75746028D02*
X105160419Y-75555552D01*
X105160419Y-75555552D02*
X105112800Y-75460314D01*
X105112800Y-75460314D02*
X105065180Y-75412695D01*
X105065180Y-75412695D02*
X104969942Y-75365076D01*
X104969942Y-75365076D02*
X104731847Y-75365076D01*
X104731847Y-75365076D02*
X104636609Y-75412695D01*
X104636609Y-75412695D02*
X104588990Y-75460314D01*
X104588990Y-75460314D02*
X104541371Y-75555552D01*
X104541371Y-75555552D02*
X104541371Y-75746028D01*
X104541371Y-75746028D02*
X104588990Y-75841266D01*
X104588990Y-75841266D02*
X104636609Y-75888885D01*
X104636609Y-75888885D02*
X104731847Y-75936504D01*
X106329266Y-101537419D02*
X106329266Y-102251704D01*
X106329266Y-102251704D02*
X106281647Y-102394561D01*
X106281647Y-102394561D02*
X106186409Y-102489800D01*
X106186409Y-102489800D02*
X106043552Y-102537419D01*
X106043552Y-102537419D02*
X105948314Y-102537419D01*
X106805457Y-102537419D02*
X106805457Y-101537419D01*
X106805457Y-101537419D02*
X107186409Y-101537419D01*
X107186409Y-101537419D02*
X107281647Y-101585038D01*
X107281647Y-101585038D02*
X107329266Y-101632657D01*
X107329266Y-101632657D02*
X107376885Y-101727895D01*
X107376885Y-101727895D02*
X107376885Y-101870752D01*
X107376885Y-101870752D02*
X107329266Y-101965990D01*
X107329266Y-101965990D02*
X107281647Y-102013609D01*
X107281647Y-102013609D02*
X107186409Y-102061228D01*
X107186409Y-102061228D02*
X106805457Y-102061228D01*
X107710219Y-101537419D02*
X108376885Y-101537419D01*
X108376885Y-101537419D02*
X107948314Y-102537419D01*
X106871419Y-96035932D02*
X106871419Y-95416885D01*
X106871419Y-95416885D02*
X107252371Y-95750218D01*
X107252371Y-95750218D02*
X107252371Y-95607361D01*
X107252371Y-95607361D02*
X107299990Y-95512123D01*
X107299990Y-95512123D02*
X107347609Y-95464504D01*
X107347609Y-95464504D02*
X107442847Y-95416885D01*
X107442847Y-95416885D02*
X107680942Y-95416885D01*
X107680942Y-95416885D02*
X107776180Y-95464504D01*
X107776180Y-95464504D02*
X107823800Y-95512123D01*
X107823800Y-95512123D02*
X107871419Y-95607361D01*
X107871419Y-95607361D02*
X107871419Y-95893075D01*
X107871419Y-95893075D02*
X107823800Y-95988313D01*
X107823800Y-95988313D02*
X107776180Y-96035932D01*
X107871419Y-100616885D02*
X107871419Y-101188313D01*
X107871419Y-100902599D02*
X106871419Y-100902599D01*
X106871419Y-100902599D02*
X107014276Y-100997837D01*
X107014276Y-100997837D02*
X107109514Y-101093075D01*
X107109514Y-101093075D02*
X107157133Y-101188313D01*
X155969180Y-86456366D02*
X156016800Y-86503985D01*
X156016800Y-86503985D02*
X156064419Y-86646842D01*
X156064419Y-86646842D02*
X156064419Y-86742080D01*
X156064419Y-86742080D02*
X156016800Y-86884937D01*
X156016800Y-86884937D02*
X155921561Y-86980175D01*
X155921561Y-86980175D02*
X155826323Y-87027794D01*
X155826323Y-87027794D02*
X155635847Y-87075413D01*
X155635847Y-87075413D02*
X155492990Y-87075413D01*
X155492990Y-87075413D02*
X155302514Y-87027794D01*
X155302514Y-87027794D02*
X155207276Y-86980175D01*
X155207276Y-86980175D02*
X155112038Y-86884937D01*
X155112038Y-86884937D02*
X155064419Y-86742080D01*
X155064419Y-86742080D02*
X155064419Y-86646842D01*
X155064419Y-86646842D02*
X155112038Y-86503985D01*
X155112038Y-86503985D02*
X155159657Y-86456366D01*
X156064419Y-85503985D02*
X156064419Y-86075413D01*
X156064419Y-85789699D02*
X155064419Y-85789699D01*
X155064419Y-85789699D02*
X155207276Y-85884937D01*
X155207276Y-85884937D02*
X155302514Y-85980175D01*
X155302514Y-85980175D02*
X155350133Y-86075413D01*
X105029266Y-90974419D02*
X105029266Y-91688704D01*
X105029266Y-91688704D02*
X104981647Y-91831561D01*
X104981647Y-91831561D02*
X104886409Y-91926800D01*
X104886409Y-91926800D02*
X104743552Y-91974419D01*
X104743552Y-91974419D02*
X104648314Y-91974419D01*
X105505457Y-91974419D02*
X105505457Y-90974419D01*
X105505457Y-90974419D02*
X105886409Y-90974419D01*
X105886409Y-90974419D02*
X105981647Y-91022038D01*
X105981647Y-91022038D02*
X106029266Y-91069657D01*
X106029266Y-91069657D02*
X106076885Y-91164895D01*
X106076885Y-91164895D02*
X106076885Y-91307752D01*
X106076885Y-91307752D02*
X106029266Y-91402990D01*
X106029266Y-91402990D02*
X105981647Y-91450609D01*
X105981647Y-91450609D02*
X105886409Y-91498228D01*
X105886409Y-91498228D02*
X105505457Y-91498228D01*
X106981647Y-90974419D02*
X106505457Y-90974419D01*
X106505457Y-90974419D02*
X106457838Y-91450609D01*
X106457838Y-91450609D02*
X106505457Y-91402990D01*
X106505457Y-91402990D02*
X106600695Y-91355371D01*
X106600695Y-91355371D02*
X106838790Y-91355371D01*
X106838790Y-91355371D02*
X106934028Y-91402990D01*
X106934028Y-91402990D02*
X106981647Y-91450609D01*
X106981647Y-91450609D02*
X107029266Y-91545847D01*
X107029266Y-91545847D02*
X107029266Y-91783942D01*
X107029266Y-91783942D02*
X106981647Y-91879180D01*
X106981647Y-91879180D02*
X106934028Y-91926800D01*
X106934028Y-91926800D02*
X106838790Y-91974419D01*
X106838790Y-91974419D02*
X106600695Y-91974419D01*
X106600695Y-91974419D02*
X106505457Y-91926800D01*
X106505457Y-91926800D02*
X106457838Y-91879180D01*
X108129267Y-92774419D02*
X108748314Y-92774419D01*
X108748314Y-92774419D02*
X108414981Y-93155371D01*
X108414981Y-93155371D02*
X108557838Y-93155371D01*
X108557838Y-93155371D02*
X108653076Y-93202990D01*
X108653076Y-93202990D02*
X108700695Y-93250609D01*
X108700695Y-93250609D02*
X108748314Y-93345847D01*
X108748314Y-93345847D02*
X108748314Y-93583942D01*
X108748314Y-93583942D02*
X108700695Y-93679180D01*
X108700695Y-93679180D02*
X108653076Y-93726800D01*
X108653076Y-93726800D02*
X108557838Y-93774419D01*
X108557838Y-93774419D02*
X108272124Y-93774419D01*
X108272124Y-93774419D02*
X108176886Y-93726800D01*
X108176886Y-93726800D02*
X108129267Y-93679180D01*
X103548314Y-93774419D02*
X102976886Y-93774419D01*
X103262600Y-93774419D02*
X103262600Y-92774419D01*
X103262600Y-92774419D02*
X103167362Y-92917276D01*
X103167362Y-92917276D02*
X103072124Y-93012514D01*
X103072124Y-93012514D02*
X102976886Y-93060133D01*
D12*
%TO.C,JP6*%
X102866600Y-99702600D02*
X102866600Y-96902600D01*
X103566600Y-96252600D02*
X104166600Y-96252600D01*
X104166600Y-100352600D02*
X103566600Y-100352600D01*
X104866600Y-96902600D02*
X104866600Y-99702600D01*
X102866600Y-96952600D02*
G75*
G02*
X103566600Y-96252600I700000J0D01*
G01*
X103566600Y-100352600D02*
G75*
G02*
X102866600Y-99652600I-1J699999D01*
G01*
X104166600Y-96252600D02*
G75*
G02*
X104866600Y-96952600I0J-700000D01*
G01*
X104866600Y-99652600D02*
G75*
G02*
X104166600Y-100352600I-699999J-1D01*
G01*
%TO.C,U5*%
X105705600Y-67174600D02*
X105705600Y-72634600D01*
X105705600Y-74634600D02*
X105705600Y-80094600D01*
X105705600Y-80094600D02*
X156625600Y-80094600D01*
X156625600Y-67174600D02*
X105705600Y-67174600D01*
X156625600Y-80094600D02*
X156625600Y-67174600D01*
X105705600Y-72634600D02*
G75*
G02*
X105705600Y-74634600I0J-1000000D01*
G01*
%TO.C,JP2*%
X99812600Y-86367600D02*
X99812600Y-83567600D01*
X100512600Y-82917600D02*
X101112600Y-82917600D01*
X101112600Y-87017600D02*
X100512600Y-87017600D01*
X101812600Y-83567600D02*
X101812600Y-86367600D01*
X99812600Y-83617600D02*
G75*
G02*
X100512600Y-82917600I699999J1D01*
G01*
X100512600Y-87017600D02*
G75*
G02*
X99812600Y-86317600I0J700000D01*
G01*
X101112600Y-82917600D02*
G75*
G02*
X101812600Y-83617600I1J-699999D01*
G01*
X101812600Y-86317600D02*
G75*
G02*
X101112600Y-87017600I-700000J0D01*
G01*
%TO.C,J8*%
X100448600Y-158851600D02*
X100448600Y-146041600D01*
X103208600Y-146041600D02*
X100448600Y-146041600D01*
X103208600Y-158851600D02*
X100448600Y-158851600D01*
X103208600Y-158851600D02*
X103208600Y-146041600D01*
X103208600Y-160121600D02*
X103208600Y-161501600D01*
X103208600Y-161501600D02*
X101828600Y-161501600D01*
%TO.C,U6*%
X105705600Y-69714600D02*
X105705600Y-75174600D01*
X105705600Y-77174600D02*
X105705600Y-82634600D01*
X105705600Y-82634600D02*
X156625600Y-82634600D01*
X156625600Y-69714600D02*
X105705600Y-69714600D01*
X156625600Y-82634600D02*
X156625600Y-69714600D01*
X105705600Y-75174600D02*
G75*
G02*
X105705600Y-77174600I0J-1000000D01*
G01*
%TO.C,J10*%
X99048600Y-111107600D02*
X99048600Y-112107600D01*
X99048600Y-112107600D02*
X100048600Y-111607600D01*
X100048600Y-111607600D02*
X99048600Y-111107600D01*
X100438600Y-106397600D02*
X109558600Y-106397600D01*
X100438600Y-118447600D02*
X101748600Y-118447600D01*
X100438600Y-134597600D02*
X100438600Y-106397600D01*
X101748600Y-107697600D02*
X108248600Y-107697600D01*
X101748600Y-118447600D02*
X101748600Y-107697600D01*
X101748600Y-122547600D02*
X100438600Y-122547600D01*
X101748600Y-133297600D02*
X101748600Y-122547600D01*
X108248600Y-107697600D02*
X108248600Y-133297600D01*
X108248600Y-133297600D02*
X101748600Y-133297600D01*
X109558600Y-106397600D02*
X109558600Y-134597600D01*
X109558600Y-134597600D02*
X100438600Y-134597600D01*
%TO.C,JP7*%
X106416600Y-99702600D02*
X106416600Y-96902600D01*
X107116600Y-96252600D02*
X107716600Y-96252600D01*
X107716600Y-100352600D02*
X107116600Y-100352600D01*
X108416600Y-96902600D02*
X108416600Y-99702600D01*
X106416600Y-96952600D02*
G75*
G02*
X107116600Y-96252600I700000J0D01*
G01*
X107116600Y-100352600D02*
G75*
G02*
X106416600Y-99652600I-1J699999D01*
G01*
X107716600Y-96252600D02*
G75*
G02*
X108416600Y-96952600I0J-700000D01*
G01*
X108416600Y-99652600D02*
G75*
G02*
X107716600Y-100352600I-699999J-1D01*
G01*
%TO.C,J6*%
X104766600Y-158089600D02*
X104766600Y-147819600D01*
X107526600Y-147819600D02*
X104766600Y-147819600D01*
X107526600Y-158089600D02*
X104766600Y-158089600D01*
X107526600Y-158089600D02*
X107526600Y-147819600D01*
X107526600Y-159359600D02*
X107526600Y-160739600D01*
X107526600Y-160739600D02*
X106146600Y-160739600D01*
%TO.C,J1*%
X104766600Y-136008600D02*
X106146600Y-136008600D01*
X104766600Y-137388600D02*
X104766600Y-136008600D01*
X104766600Y-138658600D02*
X104766600Y-146388600D01*
X104766600Y-138658600D02*
X107526600Y-138658600D01*
X104766600Y-146388600D02*
X107526600Y-146388600D01*
X107526600Y-138658600D02*
X107526600Y-146388600D01*
%TO.C,U4*%
X105705600Y-90034600D02*
X105705600Y-95494600D01*
X105705600Y-97494600D02*
X105705600Y-102954600D01*
X105705600Y-102954600D02*
X156625600Y-102954600D01*
X156625600Y-90034600D02*
X105705600Y-90034600D01*
X156625600Y-102954600D02*
X156625600Y-90034600D01*
X105705600Y-95494600D02*
G75*
G02*
X105705600Y-97494600I0J-1000000D01*
G01*
%TO.C,C1*%
X156779600Y-86249700D02*
X161939600Y-86249700D01*
X156779600Y-86289700D02*
X161939600Y-86289700D01*
X156780600Y-86209700D02*
X161938600Y-86209700D01*
X156782600Y-86169700D02*
X161936600Y-86169700D01*
X156784600Y-86129700D02*
X161934600Y-86129700D01*
X156787600Y-86089700D02*
X161931600Y-86089700D01*
X156790600Y-86049700D02*
X158319600Y-86049700D01*
X156794600Y-86009700D02*
X158319600Y-86009700D01*
X156799600Y-85969700D02*
X158319600Y-85969700D01*
X156804600Y-85929700D02*
X158319600Y-85929700D01*
X156810600Y-85889700D02*
X158319600Y-85889700D01*
X156816600Y-85849700D02*
X158319600Y-85849700D01*
X156823600Y-85809700D02*
X158319600Y-85809700D01*
X156831600Y-85769700D02*
X158319600Y-85769700D01*
X156840600Y-85729700D02*
X158319600Y-85729700D01*
X156849600Y-85689700D02*
X158319600Y-85689700D01*
X156858600Y-85649700D02*
X158319600Y-85649700D01*
X156869600Y-85609700D02*
X158319600Y-85609700D01*
X156880600Y-85569700D02*
X158319600Y-85569700D01*
X156892600Y-85529700D02*
X158319600Y-85529700D01*
X156904600Y-85489700D02*
X158319600Y-85489700D01*
X156917600Y-85449700D02*
X158319600Y-85449700D01*
X156931600Y-85409700D02*
X158319600Y-85409700D01*
X156946600Y-85369700D02*
X158319600Y-85369700D01*
X156961600Y-85329700D02*
X158319600Y-85329700D01*
X156977600Y-85289700D02*
X158319600Y-85289700D01*
X156994600Y-85249700D02*
X158319600Y-85249700D01*
X157012600Y-85209700D02*
X158319600Y-85209700D01*
X157030600Y-85169700D02*
X158319600Y-85169700D01*
X157050600Y-85129700D02*
X158319600Y-85129700D01*
X157070600Y-85089700D02*
X158319600Y-85089700D01*
X157091600Y-85049700D02*
X158319600Y-85049700D01*
X157113600Y-85009700D02*
X158319600Y-85009700D01*
X157136600Y-84969700D02*
X158319600Y-84969700D01*
X157160600Y-84929700D02*
X158319600Y-84929700D01*
X157184600Y-84889700D02*
X158319600Y-84889700D01*
X157210600Y-84849700D02*
X158319600Y-84849700D01*
X157237600Y-84809700D02*
X158319600Y-84809700D01*
X157265600Y-84769700D02*
X158319600Y-84769700D01*
X157294600Y-84729700D02*
X158319600Y-84729700D01*
X157324600Y-84689700D02*
X158319600Y-84689700D01*
X157356600Y-84649700D02*
X158319600Y-84649700D01*
X157389600Y-84609700D02*
X158319600Y-84609700D01*
X157423600Y-84569700D02*
X158319600Y-84569700D01*
X157458600Y-84529700D02*
X158319600Y-84529700D01*
X157495600Y-84489700D02*
X158319600Y-84489700D01*
X157534600Y-84449700D02*
X158319600Y-84449700D01*
X157574600Y-84409700D02*
X158319600Y-84409700D01*
X157616600Y-84369700D02*
X158319600Y-84369700D01*
X157634600Y-88844475D02*
X158134600Y-88844475D01*
X157660600Y-84329700D02*
X158319600Y-84329700D01*
X157707600Y-84289700D02*
X158319600Y-84289700D01*
X157755600Y-84249700D02*
X158319600Y-84249700D01*
X157806600Y-84209700D02*
X158319600Y-84209700D01*
X157860600Y-84169700D02*
X158319600Y-84169700D01*
X157884600Y-89094475D02*
X157884600Y-88594475D01*
X157916600Y-84129700D02*
X158319600Y-84129700D01*
X157976600Y-84089700D02*
X158319600Y-84089700D01*
X158040600Y-84049700D02*
X158319600Y-84049700D01*
X158108600Y-84009700D02*
X158319600Y-84009700D01*
X158182600Y-83969700D02*
X160536600Y-83969700D01*
X158261600Y-83929700D02*
X160457600Y-83929700D01*
X158348600Y-83889700D02*
X160370600Y-83889700D01*
X158445600Y-83849700D02*
X160273600Y-83849700D01*
X158554600Y-83809700D02*
X160164600Y-83809700D01*
X158682600Y-83769700D02*
X160036600Y-83769700D01*
X158842600Y-83729700D02*
X159876600Y-83729700D01*
X159076600Y-83689700D02*
X159642600Y-83689700D01*
X160399600Y-84009700D02*
X160610600Y-84009700D01*
X160399600Y-84049700D02*
X160678600Y-84049700D01*
X160399600Y-84089700D02*
X160742600Y-84089700D01*
X160399600Y-84129700D02*
X160802600Y-84129700D01*
X160399600Y-84169700D02*
X160858600Y-84169700D01*
X160399600Y-84209700D02*
X160912600Y-84209700D01*
X160399600Y-84249700D02*
X160963600Y-84249700D01*
X160399600Y-84289700D02*
X161011600Y-84289700D01*
X160399600Y-84329700D02*
X161058600Y-84329700D01*
X160399600Y-84369700D02*
X161102600Y-84369700D01*
X160399600Y-84409700D02*
X161144600Y-84409700D01*
X160399600Y-84449700D02*
X161184600Y-84449700D01*
X160399600Y-84489700D02*
X161223600Y-84489700D01*
X160399600Y-84529700D02*
X161260600Y-84529700D01*
X160399600Y-84569700D02*
X161295600Y-84569700D01*
X160399600Y-84609700D02*
X161329600Y-84609700D01*
X160399600Y-84649700D02*
X161362600Y-84649700D01*
X160399600Y-84689700D02*
X161394600Y-84689700D01*
X160399600Y-84729700D02*
X161424600Y-84729700D01*
X160399600Y-84769700D02*
X161453600Y-84769700D01*
X160399600Y-84809700D02*
X161481600Y-84809700D01*
X160399600Y-84849700D02*
X161508600Y-84849700D01*
X160399600Y-84889700D02*
X161534600Y-84889700D01*
X160399600Y-84929700D02*
X161558600Y-84929700D01*
X160399600Y-84969700D02*
X161582600Y-84969700D01*
X160399600Y-85009700D02*
X161605600Y-85009700D01*
X160399600Y-85049700D02*
X161627600Y-85049700D01*
X160399600Y-85089700D02*
X161648600Y-85089700D01*
X160399600Y-85129700D02*
X161668600Y-85129700D01*
X160399600Y-85169700D02*
X161688600Y-85169700D01*
X160399600Y-85209700D02*
X161706600Y-85209700D01*
X160399600Y-85249700D02*
X161724600Y-85249700D01*
X160399600Y-85289700D02*
X161741600Y-85289700D01*
X160399600Y-85329700D02*
X161757600Y-85329700D01*
X160399600Y-85369700D02*
X161772600Y-85369700D01*
X160399600Y-85409700D02*
X161787600Y-85409700D01*
X160399600Y-85449700D02*
X161801600Y-85449700D01*
X160399600Y-85489700D02*
X161814600Y-85489700D01*
X160399600Y-85529700D02*
X161826600Y-85529700D01*
X160399600Y-85569700D02*
X161838600Y-85569700D01*
X160399600Y-85609700D02*
X161849600Y-85609700D01*
X160399600Y-85649700D02*
X161860600Y-85649700D01*
X160399600Y-85689700D02*
X161869600Y-85689700D01*
X160399600Y-85729700D02*
X161878600Y-85729700D01*
X160399600Y-85769700D02*
X161887600Y-85769700D01*
X160399600Y-85809700D02*
X161895600Y-85809700D01*
X160399600Y-85849700D02*
X161902600Y-85849700D01*
X160399600Y-85889700D02*
X161908600Y-85889700D01*
X160399600Y-85929700D02*
X161914600Y-85929700D01*
X160399600Y-85969700D02*
X161919600Y-85969700D01*
X160399600Y-86009700D02*
X161924600Y-86009700D01*
X160399600Y-86049700D02*
X161928600Y-86049700D01*
X161979600Y-86289700D02*
G75*
G02*
X156739600Y-86289700I-2620000J0D01*
G01*
X156739600Y-86289700D02*
G75*
G02*
X161979600Y-86289700I2620000J0D01*
G01*
%TO.C,J11*%
X157974600Y-116704600D02*
X159354600Y-116704600D01*
X157974600Y-118084600D02*
X157974600Y-116704600D01*
X157974600Y-119354600D02*
X157974600Y-132164600D01*
X157974600Y-119354600D02*
X160734600Y-119354600D01*
X157974600Y-132164600D02*
X160734600Y-132164600D01*
X160734600Y-119354600D02*
X160734600Y-132164600D01*
%TO.C,JP5*%
X103812600Y-93619600D02*
X103812600Y-93019600D01*
X104462600Y-92319600D02*
X107262600Y-92319600D01*
X107262600Y-94319600D02*
X104462600Y-94319600D01*
X107912600Y-93019600D02*
X107912600Y-93619600D01*
X103812600Y-93019600D02*
G75*
G02*
X104512600Y-92319600I699999J1D01*
G01*
X104512600Y-94319600D02*
G75*
G02*
X103812600Y-93619600I-1J699999D01*
G01*
X107212600Y-92319600D02*
G75*
G02*
X107912600Y-93019600I0J-700000D01*
G01*
X107912600Y-93619600D02*
G75*
G02*
X107212600Y-94319600I-700000J0D01*
G01*
%TO.C,U1*%
X109720600Y-146007600D02*
X109720600Y-139207600D01*
X109720600Y-148207600D02*
X109720600Y-148607600D01*
X109720600Y-150807600D02*
X109720600Y-151207600D01*
X109720600Y-160207600D02*
X109720600Y-153407600D01*
X112520600Y-139207600D02*
X112120600Y-139207600D01*
X112520600Y-160207600D02*
X112120600Y-160207600D01*
X115120600Y-139207600D02*
X114720600Y-139207600D01*
X115120600Y-160207600D02*
X114720600Y-160207600D01*
X117620600Y-139207600D02*
X117220600Y-139207600D01*
X117620600Y-160207600D02*
X117220600Y-160207600D01*
X120120600Y-139207600D02*
X119720600Y-139207600D01*
X120120600Y-160207600D02*
X119720600Y-160207600D01*
X122720600Y-139207600D02*
X122320600Y-139207600D01*
X122720600Y-160207600D02*
X122320600Y-160207600D01*
X125220600Y-139207600D02*
X124820600Y-139207600D01*
X125220600Y-160207600D02*
X124820600Y-160207600D01*
X127820600Y-139207600D02*
X127420600Y-139207600D01*
X127820600Y-160207600D02*
X127420600Y-160207600D01*
X130320600Y-139207600D02*
X129920600Y-139207600D01*
X130320600Y-160207600D02*
X129920600Y-160207600D01*
X132920600Y-139207600D02*
X132520600Y-139207600D01*
X132920600Y-160207600D02*
X132520600Y-160207600D01*
X135420600Y-139207600D02*
X135020600Y-139207600D01*
X135420600Y-160207600D02*
X135020600Y-160207600D01*
X137920600Y-139207600D02*
X137520600Y-139207600D01*
X137920600Y-160207600D02*
X137520600Y-160207600D01*
X140520600Y-139207600D02*
X140120600Y-139207600D01*
X140520600Y-160207600D02*
X140120600Y-160207600D01*
X143020600Y-139207600D02*
X142620600Y-139207600D01*
X143020600Y-160207600D02*
X142620600Y-160207600D01*
X145620600Y-139207600D02*
X145220600Y-139207600D01*
X145620600Y-160207600D02*
X145220600Y-160207600D01*
X148120600Y-139207600D02*
X147720600Y-139207600D01*
X148120600Y-160207600D02*
X147720600Y-160207600D01*
X150620600Y-139207600D02*
X150220600Y-139207600D01*
X150620600Y-160207600D02*
X150220600Y-160207600D01*
X153220600Y-139207600D02*
X152820600Y-139207600D01*
X153220600Y-160207600D02*
X152820600Y-160207600D01*
X155720600Y-139207600D02*
X155320600Y-139207600D01*
X155720600Y-160207600D02*
X155320600Y-160207600D01*
X158053600Y-139207600D02*
X158053600Y-142214600D01*
X158053600Y-142214600D02*
X160720600Y-142214600D01*
X158320600Y-139207600D02*
X157920600Y-139207600D01*
X158320600Y-160207600D02*
X157920600Y-160207600D01*
X160720600Y-139207600D02*
X160420600Y-139207600D01*
X160720600Y-139207600D02*
X160720600Y-160207600D01*
X160720600Y-160207600D02*
X160420600Y-160207600D01*
%TO.C,SWDBG1*%
X100448600Y-136008600D02*
X101828600Y-136008600D01*
X100448600Y-137388600D02*
X100448600Y-136008600D01*
X100448600Y-138658600D02*
X100448600Y-143848600D01*
X100448600Y-138658600D02*
X103208600Y-138658600D01*
X100448600Y-143848600D02*
X103208600Y-143848600D01*
X103208600Y-138658600D02*
X103208600Y-143848600D01*
%TD*%
M02*
