%TF.GenerationSoftware,KiCad,Pcbnew,9.0.7*%
%TF.CreationDate,2026-07-16T22:19:29+02:00*%
%TF.ProjectId,1551-rePico,31353531-2d72-4655-9069-636f2e6b6963,1.0*%
%TF.SameCoordinates,Original*%
%TF.FileFunction,Soldermask,Top*%
%TF.FilePolarity,Negative*%
%FSLAX46Y46*%
G04 Gerber Fmt 4.6, Leading zero omitted, Abs format (unit mm)*
G04 Created by KiCad (PCBNEW 9.0.7) date 2026-07-16 22:19:29*
%MOMM*%
%LPD*%
G01*
G04 APERTURE LIST*
G04 Aperture macros list*
%AMRoundRect*
0 Rectangle with rounded corners*
0 $1 Rounding radius*
0 $2 $3 $4 $5 $6 $7 $8 $9 X,Y pos of 4 corners*
0 Add a 4 corners polygon primitive as box body*
4,1,4,$2,$3,$4,$5,$6,$7,$8,$9,$2,$3,0*
0 Add four circle primitives for the rounded corners*
1,1,$1+$1,$2,$3*
1,1,$1+$1,$4,$5*
1,1,$1+$1,$6,$7*
1,1,$1+$1,$8,$9*
0 Add four rect primitives between the rounded corners*
20,1,$1+$1,$2,$3,$4,$5,0*
20,1,$1+$1,$4,$5,$6,$7,0*
20,1,$1+$1,$6,$7,$8,$9,0*
20,1,$1+$1,$8,$9,$2,$3,0*%
%AMFreePoly0*
4,1,23,0.550000,-0.750000,0.000000,-0.750000,0.000000,-0.745722,-0.065263,-0.745722,-0.191342,-0.711940,-0.304381,-0.646677,-0.396677,-0.554381,-0.461940,-0.441342,-0.495722,-0.315263,-0.495722,-0.250000,-0.500000,-0.250000,-0.500000,0.250000,-0.495722,0.250000,-0.495722,0.315263,-0.461940,0.441342,-0.396677,0.554381,-0.304381,0.646677,-0.191342,0.711940,-0.065263,0.745722,0.000000,0.745722,
0.000000,0.750000,0.550000,0.750000,0.550000,-0.750000,0.550000,-0.750000,$1*%
%AMFreePoly1*
4,1,23,0.000000,0.745722,0.065263,0.745722,0.191342,0.711940,0.304381,0.646677,0.396677,0.554381,0.461940,0.441342,0.495722,0.315263,0.495722,0.250000,0.500000,0.250000,0.500000,-0.250000,0.495722,-0.250000,0.495722,-0.315263,0.461940,-0.441342,0.396677,-0.554381,0.304381,-0.646677,0.191342,-0.711940,0.065263,-0.745722,0.000000,-0.745722,0.000000,-0.750000,-0.550000,-0.750000,
-0.550000,0.750000,0.000000,0.750000,0.000000,0.745722,0.000000,0.745722,$1*%
G04 Aperture macros list end*
%ADD10FreePoly0,90.000000*%
%ADD11R,1.500000X1.000000*%
%ADD12FreePoly1,90.000000*%
%ADD13RoundRect,0.250000X0.550000X-0.550000X0.550000X0.550000X-0.550000X0.550000X-0.550000X-0.550000X0*%
%ADD14C,1.600000*%
%ADD15FreePoly0,270.000000*%
%ADD16FreePoly1,270.000000*%
%ADD17R,1.700000X1.700000*%
%ADD18C,1.700000*%
%ADD19RoundRect,0.250000X-0.600000X-0.600000X0.600000X-0.600000X0.600000X0.600000X-0.600000X0.600000X0*%
%ADD20FreePoly0,0.000000*%
%ADD21R,1.000000X1.500000*%
%ADD22FreePoly1,0.000000*%
%ADD23O,1.800000X1.800000*%
%ADD24O,1.500000X1.500000*%
%ADD25O,1.700000X1.700000*%
%ADD26R,1.700000X3.500000*%
%ADD27R,3.500000X1.700000*%
G04 APERTURE END LIST*
%TO.C,JP6*%
G36*
X103116600Y-99052600D02*
G01*
X104616600Y-99052600D01*
X104616600Y-97552600D01*
X103116600Y-97552600D01*
X103116600Y-99052600D01*
G37*
%TO.C,JP2*%
G36*
X101562600Y-84217600D02*
G01*
X100062600Y-84217600D01*
X100062600Y-85717600D01*
X101562600Y-85717600D01*
X101562600Y-84217600D01*
G37*
%TO.C,JP7*%
G36*
X106666600Y-99052600D02*
G01*
X108166600Y-99052600D01*
X108166600Y-97552600D01*
X106666600Y-97552600D01*
X106666600Y-99052600D01*
G37*
%TO.C,JP5*%
G36*
X105112600Y-92569600D02*
G01*
X106612600Y-92569600D01*
X106612600Y-94069600D01*
X105112600Y-94069600D01*
X105112600Y-92569600D01*
G37*
%TD*%
D10*
%TO.C,JP6*%
X103866600Y-99602600D03*
D11*
X103866600Y-98302600D03*
D12*
X103866600Y-97002600D03*
%TD*%
D13*
%TO.C,U5*%
X107035600Y-81254600D03*
D14*
X109575600Y-81254600D03*
X112115600Y-81254600D03*
X114655600Y-81254600D03*
X117195600Y-81254600D03*
X119735600Y-81254600D03*
X122275600Y-81254600D03*
X124815600Y-81254600D03*
X127355600Y-81254600D03*
X129895600Y-81254600D03*
X132435600Y-81254600D03*
X134975600Y-81254600D03*
X137515600Y-81254600D03*
X140055600Y-81254600D03*
X142595600Y-81254600D03*
X145135600Y-81254600D03*
X147675600Y-81254600D03*
X150215600Y-81254600D03*
X152755600Y-81254600D03*
X155295600Y-81254600D03*
X155295600Y-66014600D03*
X152755600Y-66014600D03*
X150215600Y-66014600D03*
X147675600Y-66014600D03*
X145135600Y-66014600D03*
X142595600Y-66014600D03*
X140055600Y-66014600D03*
X137515600Y-66014600D03*
X134975600Y-66014600D03*
X132435600Y-66014600D03*
X129895600Y-66014600D03*
X127355600Y-66014600D03*
X124815600Y-66014600D03*
X122275600Y-66014600D03*
X119735600Y-66014600D03*
X117195600Y-66014600D03*
X114655600Y-66014600D03*
X112115600Y-66014600D03*
X109575600Y-66014600D03*
X107035600Y-66014600D03*
%TD*%
D15*
%TO.C,JP2*%
X100812600Y-83667600D03*
D11*
X100812600Y-84967600D03*
D16*
X100812600Y-86267600D03*
%TD*%
D17*
%TO.C,J8*%
X101828600Y-160121600D03*
D18*
X101828600Y-157581600D03*
X101828600Y-155041600D03*
X101828600Y-152501600D03*
X101828600Y-149961600D03*
X101828600Y-147421600D03*
%TD*%
D13*
%TO.C,U6*%
X107035600Y-83794600D03*
D14*
X109575600Y-83794600D03*
X112115600Y-83794600D03*
X114655600Y-83794600D03*
X117195600Y-83794600D03*
X119735600Y-83794600D03*
X122275600Y-83794600D03*
X124815600Y-83794600D03*
X127355600Y-83794600D03*
X129895600Y-83794600D03*
X132435600Y-83794600D03*
X134975600Y-83794600D03*
X137515600Y-83794600D03*
X140055600Y-83794600D03*
X142595600Y-83794600D03*
X145135600Y-83794600D03*
X147675600Y-83794600D03*
X150215600Y-83794600D03*
X152755600Y-83794600D03*
X155295600Y-83794600D03*
X155295600Y-68554600D03*
X152755600Y-68554600D03*
X150215600Y-68554600D03*
X147675600Y-68554600D03*
X145135600Y-68554600D03*
X142595600Y-68554600D03*
X140055600Y-68554600D03*
X137515600Y-68554600D03*
X134975600Y-68554600D03*
X132435600Y-68554600D03*
X129895600Y-68554600D03*
X127355600Y-68554600D03*
X124815600Y-68554600D03*
X122275600Y-68554600D03*
X119735600Y-68554600D03*
X117195600Y-68554600D03*
X114655600Y-68554600D03*
X112115600Y-68554600D03*
X109575600Y-68554600D03*
X107035600Y-68554600D03*
%TD*%
D19*
%TO.C,J10*%
X103728600Y-111607600D03*
D18*
X106268600Y-111607600D03*
X103728600Y-114147600D03*
X106268600Y-114147600D03*
X103728600Y-116687600D03*
X106268600Y-116687600D03*
X103728600Y-119227600D03*
X106268600Y-119227600D03*
X103728600Y-121767600D03*
X106268600Y-121767600D03*
X103728600Y-124307600D03*
X106268600Y-124307600D03*
X103728600Y-126847600D03*
X106268600Y-126847600D03*
X103728600Y-129387600D03*
X106268600Y-129387600D03*
%TD*%
D10*
%TO.C,JP7*%
X107416600Y-99602600D03*
D11*
X107416600Y-98302600D03*
D12*
X107416600Y-97002600D03*
%TD*%
D17*
%TO.C,J6*%
X106146600Y-159359600D03*
D18*
X106146600Y-156819600D03*
X106146600Y-154279600D03*
X106146600Y-151739600D03*
X106146600Y-149199600D03*
%TD*%
D17*
%TO.C,J1*%
X106146600Y-137388600D03*
D18*
X106146600Y-139928600D03*
X106146600Y-142468600D03*
X106146600Y-145008600D03*
%TD*%
D13*
%TO.C,U4*%
X107035600Y-104114600D03*
D14*
X109575600Y-104114600D03*
X112115600Y-104114600D03*
X114655600Y-104114600D03*
X117195600Y-104114600D03*
X119735600Y-104114600D03*
X122275600Y-104114600D03*
X124815600Y-104114600D03*
X127355600Y-104114600D03*
X129895600Y-104114600D03*
X132435600Y-104114600D03*
X134975600Y-104114600D03*
X137515600Y-104114600D03*
X140055600Y-104114600D03*
X142595600Y-104114600D03*
X145135600Y-104114600D03*
X147675600Y-104114600D03*
X150215600Y-104114600D03*
X152755600Y-104114600D03*
X155295600Y-104114600D03*
X155295600Y-88874600D03*
X152755600Y-88874600D03*
X150215600Y-88874600D03*
X147675600Y-88874600D03*
X145135600Y-88874600D03*
X142595600Y-88874600D03*
X140055600Y-88874600D03*
X137515600Y-88874600D03*
X134975600Y-88874600D03*
X132435600Y-88874600D03*
X129895600Y-88874600D03*
X127355600Y-88874600D03*
X124815600Y-88874600D03*
X122275600Y-88874600D03*
X119735600Y-88874600D03*
X117195600Y-88874600D03*
X114655600Y-88874600D03*
X112115600Y-88874600D03*
X109575600Y-88874600D03*
X107035600Y-88874600D03*
%TD*%
D13*
%TO.C,C1*%
X159359600Y-87539700D03*
D14*
X159359600Y-85039700D03*
%TD*%
D17*
%TO.C,J11*%
X159354600Y-118084600D03*
D18*
X159354600Y-120624600D03*
X159354600Y-123164600D03*
X159354600Y-125704600D03*
X159354600Y-128244600D03*
X159354600Y-130784600D03*
%TD*%
D20*
%TO.C,JP5*%
X104562600Y-93319600D03*
D21*
X105862600Y-93319600D03*
D22*
X107162600Y-93319600D03*
%TD*%
D23*
%TO.C,U1*%
X159220600Y-146982600D03*
D24*
X156190600Y-147282600D03*
X156190600Y-152132600D03*
D23*
X159220600Y-152432600D03*
D25*
X159350600Y-140817600D03*
D26*
X159350600Y-139917600D03*
D25*
X156810600Y-140817600D03*
D26*
X156810600Y-139917600D03*
D17*
X154270600Y-140817600D03*
D26*
X154270600Y-139917600D03*
D25*
X151730600Y-140817600D03*
D26*
X151730600Y-139917600D03*
D25*
X149190600Y-140817600D03*
D26*
X149190600Y-139917600D03*
D25*
X146650600Y-140817600D03*
D26*
X146650600Y-139917600D03*
D25*
X144110600Y-140817600D03*
D26*
X144110600Y-139917600D03*
D17*
X141570600Y-140817600D03*
D26*
X141570600Y-139917600D03*
D25*
X139030600Y-140817600D03*
D26*
X139030600Y-139917600D03*
D25*
X136490600Y-140817600D03*
D26*
X136490600Y-139917600D03*
D25*
X133950600Y-140817600D03*
D26*
X133950600Y-139917600D03*
D25*
X131410600Y-140817600D03*
D26*
X131410600Y-139917600D03*
D17*
X128870600Y-140817600D03*
D26*
X128870600Y-139917600D03*
D25*
X126330600Y-140817600D03*
D26*
X126330600Y-139917600D03*
D25*
X123790600Y-140817600D03*
D26*
X123790600Y-139917600D03*
D25*
X121250600Y-140817600D03*
D26*
X121250600Y-139917600D03*
D25*
X118710600Y-140817600D03*
D26*
X118710600Y-139917600D03*
D17*
X116170600Y-140817600D03*
D26*
X116170600Y-139917600D03*
D25*
X113630600Y-140817600D03*
D26*
X113630600Y-139917600D03*
D25*
X111090600Y-140817600D03*
D26*
X111090600Y-139917600D03*
D25*
X111090600Y-158597600D03*
D26*
X111090600Y-159497600D03*
D25*
X113630600Y-158597600D03*
D26*
X113630600Y-159497600D03*
D17*
X116170600Y-158597600D03*
D26*
X116170600Y-159497600D03*
D25*
X118710600Y-158597600D03*
D26*
X118710600Y-159497600D03*
D25*
X121250600Y-158597600D03*
D26*
X121250600Y-159497600D03*
D25*
X123790600Y-158597600D03*
D26*
X123790600Y-159497600D03*
D25*
X126330600Y-158597600D03*
D26*
X126330600Y-159497600D03*
D17*
X128870600Y-158597600D03*
D26*
X128870600Y-159497600D03*
D25*
X131410600Y-158597600D03*
D26*
X131410600Y-159497600D03*
D25*
X133950600Y-158597600D03*
D26*
X133950600Y-159497600D03*
D25*
X136490600Y-158597600D03*
D26*
X136490600Y-159497600D03*
D25*
X139030600Y-158597600D03*
D26*
X139030600Y-159497600D03*
D17*
X141570600Y-158597600D03*
D26*
X141570600Y-159497600D03*
D25*
X144110600Y-158597600D03*
D26*
X144110600Y-159497600D03*
D25*
X146650600Y-158597600D03*
D26*
X146650600Y-159497600D03*
D25*
X149190600Y-158597600D03*
D26*
X149190600Y-159497600D03*
D25*
X151730600Y-158597600D03*
D26*
X151730600Y-159497600D03*
D17*
X154270600Y-158597600D03*
D26*
X154270600Y-159497600D03*
D25*
X156810600Y-158597600D03*
D26*
X156810600Y-159497600D03*
D25*
X159350600Y-158597600D03*
D26*
X159350600Y-159497600D03*
D25*
X111320600Y-147167600D03*
D27*
X110420600Y-147167600D03*
D17*
X111320600Y-149707600D03*
D27*
X110420600Y-149707600D03*
D25*
X111320600Y-152247600D03*
D27*
X110420600Y-152247600D03*
%TD*%
D17*
%TO.C,SWDBG1*%
X101828600Y-137388600D03*
D18*
X101828600Y-139928600D03*
X101828600Y-142468600D03*
%TD*%
M02*
