M48
; DRILL file {KiCad 9.0.7} date 2026-07-04T15:22:18+0200
; FORMAT={-:-/ absolute / metric / decimal}
; #@! TF.CreationDate,2026-07-04T15:22:18+02:00
; #@! TF.GenerationSoftware,Kicad,Pcbnew,9.0.7
; #@! TF.FileFunction,Plated,1,2,PTH
FMAT,2
METRIC
; #@! TA.AperFunction,Plated,PTH,ViaDrill
T1C0.300
; #@! TA.AperFunction,Plated,PTH,ComponentDrill
T2C0.800
; #@! TA.AperFunction,Plated,PTH,ComponentDrill
T3C1.000
; #@! TA.AperFunction,Plated,PTH,ComponentDrill
T4C1.020
%
G90
G05
T1
X100.813Y-128.879
X102.121Y-121.067
X109.002Y-97.444
X109.16Y-129.524
X109.377Y-116.015
X109.574Y-143.269
X111.0Y-97.162
X111.055Y-93.793
X113.017Y-112.904
X113.116Y-114.181
X114.048Y-105.82
X114.375Y-127.035
X115.674Y-106.936
X116.082Y-101.345
X116.082Y-105.248
X116.464Y-115.844
X116.605Y-112.953
X117.049Y-125.436
X117.049Y-131.435
X117.369Y-108.935
X117.448Y-78.847
X118.02Y-103.081
X118.269Y-107.261
X118.644Y-92.378
X119.856Y-155.816
X119.926Y-114.413
X120.001Y-96.245
X120.001Y-99.715
X121.123Y-108.544
X121.151Y-94.001
X121.267Y-120.918
X121.329Y-102.472
X122.098Y-133.693
X122.269Y-92.395
X122.285Y-146.826
X122.322Y-85.5
X122.584Y-120.025
X122.585Y-129.661
X123.472Y-109.675
X123.577Y-124.95
X123.966Y-102.665
X124.847Y-97.102
X125.14Y-102.322
X125.296Y-113.522
X125.299Y-157.02
X125.322Y-125.817
X125.449Y-120.102
X125.88Y-112.955
X126.331Y-150.021
X126.355Y-115.646
X126.866Y-124.487
X126.876Y-120.851
X127.583Y-132.402
X128.185Y-144.04
X128.726Y-118.899
X128.754Y-111.449
X128.82Y-121.738
X129.191Y-117.112
X129.355Y-109.436
X129.805Y-130.243
X129.914Y-123.606
X130.018Y-116.858
X130.614Y-91.18
X130.773Y-115.638
X130.777Y-114.757
X130.924Y-119.213
X131.247Y-128.753
X131.292Y-94.269
X131.59Y-114.517
X131.791Y-125.32
X131.99Y-121.115
X132.61Y-127.5
X132.905Y-120.91
X133.018Y-124.127
X133.225Y-128.929
X133.619Y-120.488
X134.221Y-123.725
X134.579Y-116.213
X135.302Y-113.043
X135.321Y-121.716
X135.432Y-119.524
X135.481Y-122.525
X135.544Y-126.276
X136.279Y-125.564
X136.709Y-94.269
X137.001Y-133.754
X137.603Y-123.945
X138.248Y-107.82
X138.617Y-109.171
X138.719Y-120.305
X138.796Y-109.99
X139.249Y-119.444
X139.546Y-131.307
X139.606Y-110.234
X139.73Y-121.545
X140.057Y-105.793
X140.226Y-109.72
X140.644Y-107.593
X140.669Y-92.395
X141.246Y-93.629
X142.758Y-100.3
X143.71Y-97.809
X144.321Y-102.064
X146.067Y-94.061
X146.249Y-97.223
X148.946Y-73.26
X148.946Y-96.705
X149.63Y-131.408
X149.862Y-102.064
X157.212Y-105.021
T2
X107.036Y-66.015
X107.036Y-68.555
X107.036Y-81.255
X107.036Y-83.795
X107.036Y-88.875
X107.036Y-104.115
X109.576Y-66.015
X109.576Y-68.555
X109.576Y-81.255
X109.576Y-83.795
X109.576Y-88.875
X109.576Y-104.115
X112.116Y-66.015
X112.116Y-68.555
X112.116Y-81.255
X112.116Y-83.795
X112.116Y-88.875
X112.116Y-104.115
X114.656Y-66.015
X114.656Y-68.555
X114.656Y-81.255
X114.656Y-83.795
X114.656Y-88.875
X114.656Y-104.115
X117.196Y-66.015
X117.196Y-68.555
X117.196Y-81.255
X117.196Y-83.795
X117.196Y-88.875
X117.196Y-104.115
X119.736Y-66.015
X119.736Y-68.555
X119.736Y-81.255
X119.736Y-83.795
X119.736Y-88.875
X119.736Y-104.115
X122.276Y-66.015
X122.276Y-68.555
X122.276Y-81.255
X122.276Y-83.795
X122.276Y-88.875
X122.276Y-104.115
X124.816Y-66.015
X124.816Y-68.555
X124.816Y-81.255
X124.816Y-83.795
X124.816Y-88.875
X124.816Y-104.115
X127.356Y-66.015
X127.356Y-68.555
X127.356Y-81.255
X127.356Y-83.795
X127.356Y-88.875
X127.356Y-104.115
X129.896Y-66.015
X129.896Y-68.555
X129.896Y-81.255
X129.896Y-83.795
X129.896Y-88.875
X129.896Y-104.115
X132.436Y-66.015
X132.436Y-68.555
X132.436Y-81.255
X132.436Y-83.795
X132.436Y-88.875
X132.436Y-104.115
X134.976Y-66.015
X134.976Y-68.555
X134.976Y-81.255
X134.976Y-83.795
X134.976Y-88.875
X134.976Y-104.115
X137.516Y-66.015
X137.516Y-68.555
X137.516Y-81.255
X137.516Y-83.795
X137.516Y-88.875
X137.516Y-104.115
X140.056Y-66.015
X140.056Y-68.555
X140.056Y-81.255
X140.056Y-83.795
X140.056Y-88.875
X140.056Y-104.115
X142.596Y-66.015
X142.596Y-68.555
X142.596Y-81.255
X142.596Y-83.795
X142.596Y-88.875
X142.596Y-104.115
X145.136Y-66.015
X145.136Y-68.555
X145.136Y-81.255
X145.136Y-83.795
X145.136Y-88.875
X145.136Y-104.115
X147.676Y-66.015
X147.676Y-68.555
X147.676Y-81.255
X147.676Y-83.795
X147.676Y-88.875
X147.676Y-104.115
X150.216Y-66.015
X150.216Y-68.555
X150.216Y-81.255
X150.216Y-83.795
X150.216Y-88.875
X150.216Y-104.115
X152.756Y-66.015
X152.756Y-68.555
X152.756Y-81.255
X152.756Y-83.795
X152.756Y-88.875
X152.756Y-104.115
X155.296Y-66.015
X155.296Y-68.555
X155.296Y-81.255
X155.296Y-83.795
X155.296Y-88.875
X155.296Y-104.115
X159.36Y-85.04
X159.36Y-87.54
T3
X101.829Y-137.389
X101.829Y-139.929
X101.829Y-142.469
X101.829Y-147.422
X101.829Y-149.962
X101.829Y-152.502
X101.829Y-155.042
X101.829Y-157.582
X101.829Y-160.122
X103.729Y-111.608
X103.729Y-114.148
X103.729Y-116.688
X103.729Y-119.228
X103.729Y-121.768
X103.729Y-124.308
X103.729Y-126.848
X103.729Y-129.388
X106.147Y-137.389
X106.147Y-139.929
X106.147Y-142.469
X106.147Y-145.009
X106.147Y-149.2
X106.147Y-151.74
X106.147Y-154.28
X106.147Y-156.82
X106.147Y-159.36
X106.269Y-111.608
X106.269Y-114.148
X106.269Y-116.688
X106.269Y-119.228
X106.269Y-121.768
X106.269Y-124.308
X106.269Y-126.848
X106.269Y-129.388
X159.355Y-118.085
X159.355Y-120.625
X159.355Y-123.165
X159.355Y-125.705
X159.355Y-128.245
X159.355Y-130.785
T4
X111.091Y-140.818
X111.091Y-158.598
X111.321Y-147.168
X111.321Y-149.708
X111.321Y-152.248
X113.631Y-140.818
X113.631Y-158.598
X116.171Y-140.818
X116.171Y-158.598
X118.711Y-140.818
X118.711Y-158.598
X121.251Y-140.818
X121.251Y-158.598
X123.791Y-140.818
X123.791Y-158.598
X126.331Y-140.818
X126.331Y-158.598
X128.871Y-140.818
X128.871Y-158.598
X131.411Y-140.818
X131.411Y-158.598
X133.951Y-140.818
X133.951Y-158.598
X136.491Y-140.818
X136.491Y-158.598
X139.031Y-140.818
X139.031Y-158.598
X141.571Y-140.818
X141.571Y-158.598
X144.111Y-140.818
X144.111Y-158.598
X146.651Y-140.818
X146.651Y-158.598
X149.191Y-140.818
X149.191Y-158.598
X151.731Y-140.818
X151.731Y-158.598
X154.271Y-140.818
X154.271Y-158.598
X156.811Y-140.818
X156.811Y-158.598
X159.351Y-140.818
X159.351Y-158.598
M30
